<svg xmlns="http://www.w3.org/2000/svg" width="300" height="300" viewBox="0 0 300 300">
<path d="M 148.48 85.15 L 147.34 85.04 C 146.48 84.95 145.71 85.57 145.63 86.43 C 145.54 87.29 146.16 88.06 147.02 88.14 L 148.17 88.26 C 149.02 88.35 149.79 87.72 149.88 86.86 C 149.96 86.01 149.34 85.24 148.48 85.15 Z M 147.27 85.03 L 146.18 84.97 C 145.32 84.92 144.58 85.57 144.53 86.43 C 144.48 87.29 145.14 88.03 146.00 88.08 L 147.09 88.15 C 147.95 88.20 148.69 87.54 148.74 86.68 C 148.79 85.82 148.13 85.08 147.27 85.03 Z M 146.03 84.97 L 145.05 85.01 C 144.19 85.04 143.52 85.77 143.56 86.63 C 143.59 87.49 144.32 88.16 145.18 88.12 L 146.15 88.09 C 147.02 88.05 147.69 87.32 147.65 86.46 C 147.62 85.60 146.89 84.93 146.03 84.97 Z M 144.75 85.05 L 143.94 85.24 C 143.11 85.45 142.59 86.29 142.80 87.13 C 143.00 87.97 143.84 88.48 144.68 88.28 L 145.48 88.08 C 146.32 87.88 146.84 87.03 146.63 86.20 C 146.43 85.36 145.59 84.84 144.75 85.05 Z M 143.40 85.49 L 142.77 85.95 C 142.07 86.45 141.91 87.43 142.41 88.13 C 142.91 88.83 143.89 88.99 144.59 88.48 L 145.22 88.03 C 145.92 87.52 146.08 86.55 145.58 85.85 C 145.08 85.15 144.10 84.99 143.40 85.49 Z M 142.31 86.47 L 141.90 87.22 C 141.49 87.98 141.78 88.92 142.54 89.33 C 143.29 89.74 144.24 89.46 144.65 88.70 L 145.05 87.96 C 145.46 87.20 145.18 86.25 144.42 85.84 C 143.66 85.43 142.72 85.71 142.31 86.47 Z M 141.75 87.62 L 141.53 88.63 C 141.34 89.47 141.87 90.30 142.71 90.49 C 143.56 90.68 144.39 90.15 144.58 89.30 L 144.80 88.30 C 144.99 87.46 144.46 86.62 143.62 86.44 C 142.78 86.25 141.94 86.78 141.75 87.62 Z M 141.50 88.81 L 141.37 90.04 C 141.29 90.89 141.91 91.66 142.77 91.75 C 143.63 91.84 144.39 91.21 144.48 90.35 L 144.61 89.12 C 144.69 88.27 144.07 87.50 143.21 87.41 C 142.36 87.32 141.59 87.95 141.50 88.81 Z M 141.37 90.09 L 141.31 90.99 C 141.25 91.85 141.89 92.60 142.75 92.66 C 143.61 92.72 144.36 92.07 144.42 91.21 L 144.49 90.30 C 144.55 89.44 143.90 88.70 143.04 88.64 C 142.18 88.58 141.43 89.23 141.37 90.09 Z M 141.31 91.01 L 141.25 91.99 C 141.20 92.85 141.86 93.59 142.72 93.64 C 143.58 93.69 144.32 93.03 144.37 92.17 L 144.42 91.19 C 144.47 90.33 143.81 89.59 142.95 89.55 C 142.09 89.50 141.35 90.15 141.31 91.01 Z M 141.25 92.01 L 141.20 93.03 C 141.16 93.89 141.82 94.62 142.69 94.66 C 143.55 94.70 144.28 94.04 144.32 93.18 L 144.37 92.15 C 144.41 91.29 143.74 90.56 142.88 90.52 C 142.02 90.48 141.29 91.15 141.25 92.01 Z M 141.20 93.04 L 141.16 94.08 C 141.13 94.95 141.80 95.67 142.66 95.70 C 143.52 95.74 144.25 95.07 144.28 94.21 L 144.32 93.16 C 144.35 92.30 143.68 91.58 142.82 91.54 C 141.96 91.51 141.23 92.18 141.20 93.04 Z M 141.16 94.10 L 141.13 95.13 C 141.10 96.00 141.78 96.72 142.64 96.74 C 143.50 96.77 144.22 96.09 144.25 95.23 L 144.28 94.19 C 144.31 93.33 143.63 92.61 142.77 92.58 C 141.91 92.56 141.19 93.23 141.16 94.10 Z M 141.13 95.14 L 141.10 96.17 C 141.08 97.03 141.76 97.74 142.62 97.76 C 143.48 97.79 144.20 97.10 144.22 96.24 L 144.25 95.22 C 144.27 94.36 143.59 93.64 142.72 93.62 C 141.86 93.60 141.15 94.28 141.13 95.14 Z M 141.10 96.18 L 141.08 97.20 C 141.07 98.06 141.75 98.77 142.61 98.79 C 143.48 98.80 144.19 98.12 144.20 97.25 L 144.22 96.23 C 144.24 95.37 143.55 94.66 142.69 94.64 C 141.83 94.63 141.12 95.31 141.10 96.18 Z M 141.08 97.20 L 141.07 98.19 C 141.06 99.05 141.74 99.76 142.61 99.78 C 143.47 99.79 144.18 99.10 144.19 98.24 L 144.20 97.25 C 144.22 96.38 143.53 95.68 142.66 95.66 C 141.80 95.65 141.09 96.34 141.08 97.20 Z M 141.07 98.20 L 141.06 99.17 C 141.04 100.04 141.73 100.74 142.60 100.75 C 143.46 100.76 144.17 100.07 144.18 99.21 L 144.19 98.23 C 144.20 97.37 143.51 96.66 142.65 96.65 C 141.79 96.64 141.08 97.33 141.07 98.20 Z M 141.06 99.17 L 141.04 100.15 C 141.03 101.02 141.72 101.73 142.58 101.74 C 143.44 101.75 144.15 101.06 144.16 100.20 L 144.18 99.21 C 144.19 98.35 143.50 97.64 142.64 97.63 C 141.78 97.62 141.07 98.31 141.06 99.17 Z M 141.04 100.15 L 141.02 101.15 C 141.01 102.02 141.70 102.73 142.56 102.74 C 143.42 102.76 144.13 102.07 144.15 101.21 L 144.16 100.20 C 144.18 99.34 143.49 98.63 142.63 98.62 C 141.77 98.60 141.06 99.29 141.04 100.15 Z M 141.02 101.15 L 141.00 102.10 C 140.98 102.96 141.66 103.68 142.53 103.70 C 143.39 103.72 144.10 103.04 144.12 102.18 L 144.15 101.22 C 144.17 100.36 143.48 99.64 142.62 99.62 C 141.76 99.60 141.04 100.28 141.02 101.15 Z M 141.00 102.09 L 140.97 103.04 C 140.95 103.90 141.63 104.62 142.49 104.65 C 143.35 104.67 144.07 103.99 144.10 103.13 L 144.12 102.18 C 144.15 101.32 143.47 100.60 142.61 100.58 C 141.75 100.55 141.03 101.23 141.00 102.09 Z M 140.97 103.03 L 140.94 104.01 C 140.92 104.87 141.59 105.59 142.45 105.62 C 143.32 105.65 144.04 104.97 144.06 104.11 L 144.10 103.13 C 144.12 102.27 143.45 101.55 142.59 101.52 C 141.72 101.50 141.00 102.17 140.97 103.03 Z M 140.94 104.01 L 140.91 105.01 C 140.88 105.87 141.56 106.60 142.42 106.62 C 143.28 106.65 144.00 105.98 144.03 105.12 L 144.06 104.11 C 144.09 103.25 143.42 102.53 142.56 102.50 C 141.69 102.47 140.97 103.15 140.94 104.01 Z M 140.91 105.01 L 140.88 106.04 C 140.85 106.90 141.52 107.62 142.38 107.65 C 143.24 107.68 143.97 107.01 144.00 106.15 L 144.03 105.12 C 144.06 104.26 143.38 103.53 142.52 103.50 C 141.66 103.48 140.94 104.15 140.91 105.01 Z M 140.88 106.04 L 140.84 107.09 C 140.81 107.95 141.49 108.68 142.35 108.70 C 143.21 108.73 143.93 108.06 143.96 107.19 L 144.00 106.14 C 144.02 105.28 143.35 104.56 142.49 104.53 C 141.62 104.50 140.90 105.18 140.88 106.04 Z M 140.84 107.10 L 140.81 108.13 C 140.78 108.99 141.46 109.71 142.32 109.73 C 143.19 109.76 143.91 109.08 143.93 108.22 L 143.96 107.19 C 143.99 106.33 143.31 105.61 142.45 105.58 C 141.59 105.56 140.87 106.23 140.84 107.10 Z M 140.81 108.13 L 140.78 109.08 C 140.76 109.94 141.44 110.66 142.30 110.68 C 143.17 110.71 143.88 110.03 143.91 109.17 L 143.93 108.22 C 143.95 107.35 143.27 106.64 142.41 106.61 C 141.55 106.59 140.83 107.27 140.81 108.13 Z M 140.78 109.09 L 140.76 110.05 C 140.74 110.91 141.42 111.63 142.28 111.65 C 143.15 111.67 143.86 110.99 143.88 110.13 L 143.91 109.16 C 143.93 108.30 143.25 107.58 142.38 107.56 C 141.52 107.54 140.81 108.22 140.78 109.09 Z M 140.76 110.05 L 140.74 111.03 C 140.72 111.90 141.40 112.61 142.27 112.63 C 143.13 112.65 143.84 111.96 143.86 111.10 L 143.88 110.12 C 143.90 109.26 143.22 108.55 142.36 108.53 C 141.49 108.51 140.78 109.19 140.76 110.05 Z M 140.74 111.04 L 140.72 112.03 C 140.70 112.90 141.39 113.61 142.25 113.63 C 143.11 113.65 143.82 112.96 143.84 112.10 L 143.86 111.10 C 143.88 110.24 143.19 109.52 142.33 109.51 C 141.47 109.49 140.76 110.17 140.74 111.04 Z M 140.72 112.04 L 140.70 113.06 C 140.68 113.92 141.37 114.63 142.23 114.65 C 143.09 114.66 143.80 113.98 143.82 113.11 L 143.84 112.10 C 143.86 111.23 143.17 110.52 142.31 110.51 C 141.45 110.49 140.74 111.17 140.72 112.04 Z M 140.70 113.06 L 140.68 114.10 C 140.67 114.96 141.35 115.67 142.21 115.69 C 143.08 115.70 143.79 115.02 143.80 114.15 L 143.82 113.11 C 143.84 112.25 143.15 111.54 142.29 111.52 C 141.43 111.51 140.71 112.20 140.70 113.06 Z M 140.68 114.10 L 140.66 115.16 C 140.65 116.02 141.33 116.73 142.20 116.75 C 143.06 116.76 143.77 116.08 143.78 115.22 L 143.80 114.15 C 143.82 113.29 143.13 112.58 142.27 112.56 C 141.41 112.55 140.70 113.24 140.68 114.10 Z M 140.66 115.16 L 140.65 116.11 C 140.63 116.97 141.32 117.69 142.18 117.70 C 143.04 117.71 143.75 117.03 143.77 116.17 L 143.78 115.21 C 143.80 114.35 143.11 113.64 142.25 113.63 C 141.39 113.61 140.68 114.30 140.66 115.16 Z M 140.65 116.11 L 140.63 117.08 C 140.62 117.94 141.30 118.65 142.16 118.67 C 143.03 118.68 143.74 118.00 143.75 117.13 L 143.77 116.17 C 143.78 115.30 143.10 114.59 142.23 114.58 C 141.37 114.56 140.66 115.25 140.65 116.11 Z M 140.63 117.08 L 140.61 118.06 C 140.60 118.92 141.28 119.64 142.15 119.65 C 143.01 119.67 143.72 118.98 143.73 118.12 L 143.75 117.13 C 143.77 116.27 143.08 115.56 142.22 115.55 C 141.36 115.53 140.65 116.22 140.63 117.08 Z M 140.61 118.06 L 140.59 119.06 C 140.58 119.92 141.26 120.63 142.13 120.65 C 142.99 120.66 143.70 119.98 143.72 119.12 L 143.73 118.12 C 143.75 117.26 143.06 116.55 142.20 116.53 C 141.34 116.51 140.63 117.20 140.61 118.06 Z M 140.59 119.06 L 140.57 120.06 C 140.56 120.93 141.24 121.64 142.10 121.66 C 142.96 121.68 143.68 120.99 143.69 120.13 L 143.72 119.12 C 143.73 118.26 143.05 117.54 142.19 117.53 C 141.32 117.51 140.61 118.19 140.59 119.06 Z M 140.57 120.06 L 140.55 121.08 C 140.53 121.94 141.21 122.66 142.08 122.68 C 142.94 122.70 143.65 122.01 143.67 121.15 L 143.69 120.13 C 143.71 119.27 143.03 118.56 142.17 118.54 C 141.31 118.52 140.59 119.20 140.57 120.06 Z M 140.55 121.08 L 140.52 122.10 C 140.50 122.97 141.18 123.68 142.05 123.70 C 142.91 123.72 143.62 123.04 143.65 122.18 L 143.67 121.15 C 143.69 120.29 143.01 119.58 142.15 119.55 C 141.29 119.53 140.57 120.21 140.55 121.08 Z M 140.52 122.10 L 140.50 123.13 C 140.47 123.99 141.15 124.71 142.01 124.74 C 142.87 124.76 143.59 124.08 143.62 123.22 L 143.65 122.19 C 143.67 121.32 142.99 120.61 142.13 120.58 C 141.27 120.56 140.55 121.24 140.52 122.10 Z M 140.50 123.13 L 140.46 124.13 C 140.44 124.99 141.11 125.72 141.98 125.74 C 142.84 125.77 143.56 125.09 143.59 124.23 L 143.62 123.22 C 143.64 122.36 142.97 121.64 142.11 121.62 C 141.24 121.59 140.52 122.26 140.50 123.13 Z M 140.46 124.13 L 140.43 125.12 C 140.40 125.99 141.08 126.71 141.94 126.74 C 142.80 126.77 143.52 126.09 143.55 125.23 L 143.59 124.24 C 143.61 123.37 142.94 122.65 142.08 122.62 C 141.22 122.59 140.49 123.27 140.46 124.13 Z M 140.43 125.12 L 140.39 126.12 C 140.36 126.98 141.03 127.70 141.90 127.74 C 142.76 127.77 143.48 127.09 143.51 126.23 L 143.55 125.23 C 143.58 124.37 142.91 123.65 142.05 123.62 C 141.19 123.59 140.46 124.26 140.43 125.12 Z M 140.39 126.11 L 140.36 127.11 C 140.32 127.98 140.99 128.70 141.86 128.73 C 142.72 128.77 143.44 128.10 143.48 127.23 L 143.51 126.24 C 143.55 125.37 142.88 124.65 142.01 124.62 C 141.15 124.58 140.43 125.25 140.39 126.11 Z M 140.36 127.11 L 140.32 128.11 C 140.28 128.98 140.95 129.70 141.81 129.74 C 142.67 129.77 143.40 129.10 143.44 128.24 L 143.48 127.24 C 143.51 126.38 142.84 125.65 141.98 125.61 C 141.12 125.58 140.39 126.25 140.36 127.11 Z M 140.32 128.11 L 140.28 129.11 C 140.24 129.98 140.91 130.70 141.77 130.74 C 142.63 130.77 143.36 130.10 143.39 129.24 L 143.44 128.24 C 143.47 127.38 142.80 126.65 141.94 126.62 C 141.08 126.58 140.35 127.25 140.32 128.11 Z M 140.28 129.11 L 140.23 130.12 C 140.20 130.98 140.87 131.70 141.73 131.74 C 142.59 131.77 143.32 131.10 143.35 130.24 L 143.39 129.24 C 143.43 128.38 142.76 127.65 141.90 127.62 C 141.04 127.58 140.31 128.25 140.28 129.11 Z M 140.23 130.12 L 140.19 131.12 C 140.16 131.98 140.83 132.71 141.69 132.74 C 142.55 132.77 143.28 132.10 143.31 131.24 L 143.35 130.24 C 143.39 129.38 142.72 128.65 141.86 128.62 C 141.00 128.58 140.27 129.26 140.23 130.12 Z M 140.19 131.12 L 140.16 132.12 C 140.12 132.98 140.79 133.71 141.65 133.74 C 142.52 133.77 143.24 133.10 143.28 132.24 L 143.31 131.24 C 143.35 130.38 142.68 129.65 141.82 129.62 C 140.95 129.59 140.23 130.26 140.19 131.12 Z M 140.16 132.12 L 140.12 133.13 C 140.09 133.99 140.76 134.72 141.62 134.75 C 142.48 134.78 143.21 134.11 143.24 133.25 L 143.28 132.24 C 143.31 131.38 142.64 130.65 141.77 130.62 C 140.91 130.59 140.19 131.26 140.16 132.12 Z M 140.12 133.14 L 140.08 134.14 C 140.05 135.01 140.72 135.73 141.58 135.76 C 142.45 135.79 143.17 135.12 143.20 134.26 L 143.24 133.25 C 143.27 132.39 142.60 131.66 141.73 131.63 C 140.87 131.60 140.15 132.27 140.12 133.14 Z M 140.08 134.15 L 140.05 135.15 C 140.02 136.01 140.69 136.74 141.55 136.77 C 142.41 136.80 143.14 136.12 143.17 135.26 L 143.20 134.26 C 143.23 133.39 142.56 132.67 141.70 132.64 C 140.83 132.61 140.11 133.28 140.08 134.15 Z M 140.05 135.15 L 140.01 136.16 C 139.98 137.02 140.65 137.74 141.52 137.77 C 142.38 137.80 143.10 137.13 143.13 136.26 L 143.17 135.26 C 143.20 134.40 142.52 133.68 141.66 133.65 C 140.80 133.62 140.08 134.29 140.05 135.15 Z M 140.01 136.16 L 139.98 137.16 C 139.95 138.02 140.62 138.74 141.48 138.77 C 142.34 138.80 143.07 138.13 143.10 137.26 L 143.13 136.26 C 143.16 135.40 142.49 134.68 141.63 134.65 C 140.76 134.62 140.04 135.29 140.01 136.16 Z M 139.98 137.16 L 139.94 138.15 C 139.91 139.01 140.58 139.74 141.45 139.77 C 142.31 139.80 143.03 139.12 143.06 138.26 L 143.10 137.27 C 143.13 136.40 142.45 135.68 141.59 135.65 C 140.73 135.62 140.01 136.29 139.98 137.16 Z M 139.94 138.15 L 139.90 139.14 C 139.87 140.00 140.55 140.73 141.41 140.76 C 142.27 140.79 142.99 140.12 143.03 139.25 L 143.06 138.26 C 143.09 137.40 142.42 136.68 141.56 136.65 C 140.70 136.62 139.97 137.29 139.94 138.15 Z M 139.91 139.14 L 139.87 140.13 C 139.84 140.99 140.51 141.71 141.37 141.74 C 142.23 141.78 142.96 141.10 142.99 140.24 L 143.03 139.26 C 143.06 138.39 142.39 137.67 141.52 137.64 C 140.66 137.61 139.94 138.28 139.91 139.14 Z M 139.87 140.12 L 139.83 141.12 C 139.80 141.98 140.47 142.70 141.33 142.74 C 142.19 142.77 142.92 142.10 142.95 141.24 L 142.99 140.25 C 143.02 139.38 142.35 138.66 141.49 138.62 C 140.63 138.59 139.90 139.26 139.87 140.12 Z M 139.83 141.11 L 139.79 142.12 C 139.75 142.98 140.42 143.71 141.28 143.74 C 142.15 143.78 142.87 143.11 142.91 142.25 L 142.95 141.24 C 142.98 140.38 142.32 139.65 141.45 139.62 C 140.59 139.58 139.86 140.25 139.83 141.11 Z M 139.79 142.12 L 139.74 143.12 C 139.71 143.98 140.38 144.71 141.24 144.74 C 142.10 144.78 142.83 144.11 142.87 143.25 L 142.91 142.25 C 142.95 141.39 142.28 140.66 141.41 140.62 C 140.55 140.59 139.82 141.25 139.79 142.12 Z M 139.74 143.11 L 139.70 144.11 C 139.66 144.97 140.33 145.70 141.19 145.74 C 142.05 145.78 142.78 145.11 142.82 144.25 L 142.87 143.25 C 142.90 142.39 142.24 141.66 141.37 141.62 C 140.51 141.59 139.78 142.25 139.74 143.11 Z M 139.70 144.11 L 139.65 145.11 C 139.62 145.97 140.28 146.70 141.14 146.74 C 142.01 146.78 142.74 146.11 142.78 145.25 L 142.82 144.25 C 142.86 143.39 142.19 142.66 141.33 142.62 C 140.47 142.58 139.74 143.25 139.70 144.11 Z M 139.65 145.11 L 139.61 146.10 C 139.57 146.96 140.23 147.69 141.10 147.73 C 141.96 147.77 142.69 147.11 142.73 146.25 L 142.78 145.25 C 142.82 144.39 142.15 143.66 141.29 143.62 C 140.43 143.58 139.69 144.24 139.65 145.11 Z M 139.61 146.10 L 139.56 147.10 C 139.52 147.96 140.19 148.69 141.05 148.73 C 141.91 148.77 142.64 148.10 142.68 147.24 L 142.73 146.25 C 142.77 145.38 142.10 144.65 141.24 144.61 C 140.38 144.57 139.65 145.24 139.61 146.10 Z M 139.56 147.09 L 139.51 148.09 C 139.47 148.95 140.14 149.69 141.00 149.73 C 141.86 149.77 142.59 149.10 142.64 148.24 L 142.68 147.24 C 142.72 146.38 142.06 145.65 141.20 145.61 C 140.33 145.57 139.60 146.23 139.56 147.09 Z M 139.51 148.09 L 139.46 149.09 C 139.42 149.96 140.09 150.69 140.95 150.73 C 141.81 150.77 142.55 150.11 142.59 149.24 L 142.64 148.24 C 142.68 147.38 142.01 146.65 141.15 146.60 C 140.29 146.56 139.55 147.23 139.51 148.09 Z M 139.46 149.09 L 139.41 150.13 C 139.37 150.99 140.04 151.73 140.90 151.77 C 141.77 151.81 142.50 151.14 142.54 150.28 L 142.59 149.24 C 142.63 148.38 141.96 147.65 141.10 147.61 C 140.24 147.56 139.50 148.23 139.46 149.09 Z M 139.41 150.13 L 139.36 151.17 C 139.32 152.03 139.99 152.76 140.86 152.81 C 141.72 152.85 142.45 152.18 142.49 151.31 L 142.54 150.28 C 142.58 149.41 141.92 148.68 141.05 148.64 C 140.19 148.60 139.45 149.27 139.41 150.13 Z M 139.36 151.17 L 139.31 152.20 C 139.27 153.06 139.94 153.80 140.81 153.84 C 141.67 153.88 142.41 153.21 142.45 152.34 L 142.50 151.31 C 142.54 150.45 141.87 149.71 141.00 149.67 C 140.14 149.63 139.40 150.30 139.36 151.17 Z M 139.31 152.20 L 139.26 153.22 C 139.23 154.08 139.90 154.82 140.76 154.86 C 141.63 154.90 142.37 154.23 142.41 153.36 L 142.45 152.34 C 142.49 151.47 141.82 150.74 140.95 150.70 C 140.08 150.66 139.35 151.33 139.31 152.20 Z M 139.26 153.22 L 139.22 154.22 C 139.18 155.09 139.85 155.83 140.72 155.86 C 141.59 155.90 142.33 155.23 142.36 154.36 L 142.41 153.36 C 142.45 152.49 141.77 151.75 140.90 151.71 C 140.04 151.68 139.30 152.35 139.26 153.22 Z M 139.22 154.22 L 139.17 155.21 C 139.14 156.08 139.81 156.81 140.68 156.85 C 141.55 156.89 142.29 156.21 142.33 155.34 L 142.37 154.36 C 142.40 153.49 141.73 152.75 140.86 152.71 C 139.99 152.68 139.25 153.35 139.22 154.22 Z M 139.17 155.21 L 139.13 156.17 C 139.10 157.04 139.78 157.77 140.65 157.81 C 141.52 157.84 142.25 157.17 142.29 156.29 L 142.33 155.34 C 142.36 154.46 141.68 153.73 140.81 153.70 C 139.94 153.66 139.21 154.34 139.17 155.21 Z M 139.13 156.17 L 139.10 157.10 C 139.06 157.97 139.74 158.71 140.62 158.74 C 141.49 158.77 142.22 158.09 142.26 157.22 L 142.29 156.29 C 142.33 155.42 141.64 154.68 140.77 154.65 C 139.90 154.62 139.16 155.30 139.13 156.17 Z M 139.09 157.11 L 139.06 158.20 C 139.03 159.08 139.71 159.81 140.59 159.84 C 141.46 159.87 142.19 159.19 142.22 158.31 L 142.26 157.21 C 142.29 156.34 141.61 155.61 140.73 155.58 C 139.86 155.55 139.12 156.23 139.09 157.11 Z M 139.05 158.21 L 139.02 159.26 C 139.00 160.14 139.68 160.87 140.56 160.90 C 141.43 160.92 142.17 160.23 142.19 159.36 L 142.22 158.30 C 142.25 157.43 141.56 156.70 140.69 156.67 C 139.81 156.65 139.08 157.33 139.05 158.21 Z M 139.02 159.27 L 138.99 160.28 C 138.97 161.16 139.66 161.89 140.54 161.91 C 141.42 161.94 142.14 161.24 142.17 160.37 L 142.19 159.35 C 142.22 158.48 141.53 157.75 140.65 157.72 C 139.77 157.70 139.04 158.39 139.02 159.27 Z M 138.99 160.29 L 138.97 161.27 C 138.95 162.15 139.65 162.88 140.52 162.90 C 141.40 162.92 142.13 162.22 142.15 161.34 L 142.17 160.36 C 142.19 159.48 141.49 158.76 140.62 158.74 C 139.74 158.72 139.01 159.41 138.99 160.29 Z M 138.97 161.28 L 138.95 162.23 C 138.94 163.11 139.63 163.84 140.51 163.85 C 141.39 163.87 142.12 163.17 142.13 162.29 L 142.15 161.34 C 142.17 160.46 141.47 159.73 140.59 159.72 C 139.71 159.70 138.99 160.40 138.97 161.28 Z M 138.95 162.24 L 138.94 163.18 C 138.92 164.05 139.63 164.78 140.50 164.79 C 141.38 164.80 142.11 164.10 142.12 163.22 L 142.13 162.29 C 142.15 161.41 141.44 160.68 140.56 160.67 C 139.69 160.66 138.96 161.36 138.95 162.24 Z M 138.93 163.18 L 138.92 164.16 C 138.91 165.04 139.62 165.76 140.50 165.77 C 141.38 165.78 142.10 165.07 142.11 164.19 L 142.12 163.22 C 142.13 162.34 141.43 161.61 140.55 161.61 C 139.67 161.60 138.94 162.30 138.93 163.18 Z M 138.92 164.16 L 138.91 165.20 C 138.91 166.08 139.62 166.80 140.50 166.80 C 141.38 166.81 142.10 166.10 142.10 165.22 L 142.11 164.19 C 142.12 163.31 141.41 162.59 140.53 162.58 C 139.65 162.57 138.93 163.28 138.92 164.16 Z M 138.91 165.20 L 138.91 166.22 C 138.90 167.10 139.61 167.82 140.50 167.83 C 141.38 167.83 142.10 167.12 142.10 166.24 L 142.11 165.22 C 142.11 164.34 141.40 163.62 140.52 163.61 C 139.63 163.61 138.92 164.32 138.91 165.20 Z M 138.90 166.22 L 138.90 167.23 C 138.90 168.11 139.61 168.83 140.50 168.83 C 141.38 168.83 142.10 168.12 142.10 167.23 L 142.10 166.23 C 142.11 165.35 141.39 164.63 140.51 164.63 C 139.62 164.63 138.91 165.34 138.90 166.22 Z M 138.90 167.23 L 138.90 168.21 C 138.90 169.09 139.61 169.81 140.50 169.81 C 141.38 169.81 142.10 169.10 142.10 168.21 L 142.10 167.23 C 142.10 166.35 141.39 165.63 140.50 165.63 C 139.62 165.63 138.90 166.34 138.90 167.23 Z M 138.90 168.21 L 138.90 169.17 C 138.90 170.06 139.61 170.78 140.50 170.78 C 141.38 170.78 142.10 170.06 142.10 169.17 L 142.10 168.21 C 142.10 167.33 141.39 166.61 140.50 166.61 C 139.61 166.61 138.90 167.33 138.90 168.21 Z M 138.89 169.17 L 138.89 170.20 C 138.89 171.09 139.61 171.80 140.50 171.80 C 141.39 171.80 142.10 171.09 142.10 170.20 L 142.10 169.17 C 142.10 168.29 141.39 167.57 140.50 167.57 C 139.61 167.57 138.89 168.29 138.89 169.17 Z M 138.89 170.20 L 138.89 171.24 C 138.89 172.12 139.61 172.84 140.50 172.84 C 141.39 172.84 142.11 172.12 142.11 171.24 L 142.11 170.20 C 142.11 169.31 141.39 168.59 140.50 168.59 C 139.61 168.59 138.89 169.31 138.89 170.20 Z M 138.89 171.24 L 138.89 172.25 C 138.89 173.13 139.61 173.85 140.50 173.85 C 141.39 173.85 142.11 173.13 142.11 172.25 L 142.11 171.24 C 142.11 170.35 141.39 169.63 140.50 169.63 C 139.61 169.63 138.89 170.35 138.89 171.24 Z M 138.89 172.25 L 138.89 173.23 C 138.89 174.12 139.61 174.84 140.50 174.84 C 141.39 174.84 142.11 174.12 142.11 173.23 L 142.11 172.25 C 142.11 171.36 141.39 170.64 140.50 170.64 C 139.61 170.64 138.89 171.36 138.89 172.25 Z M 138.89 173.23 L 138.89 174.18 C 138.89 175.07 139.61 175.79 140.50 175.79 C 141.39 175.79 142.11 175.07 142.11 174.18 L 142.11 173.23 C 142.11 172.34 141.39 171.62 140.50 171.62 C 139.61 171.62 138.89 172.34 138.89 173.23 Z M 138.89 174.18 L 138.89 175.20 C 138.89 176.09 139.61 176.81 140.50 176.81 C 141.39 176.81 142.11 176.09 142.11 175.20 L 142.11 174.18 C 142.11 173.29 141.39 172.57 140.50 172.57 C 139.61 172.57 138.89 173.29 138.89 174.18 Z M 138.88 175.21 L 138.89 176.25 C 138.89 177.14 139.62 177.87 140.51 177.86 C 141.40 177.86 142.12 177.13 142.12 176.24 L 142.11 175.20 C 142.11 174.31 141.39 173.58 140.49 173.59 C 139.60 173.59 138.88 174.32 138.88 175.21 Z M 138.88 176.27 L 138.89 177.27 C 138.90 178.16 139.64 178.88 140.53 178.87 C 141.43 178.86 142.14 178.13 142.13 177.23 L 142.12 176.23 C 142.11 175.34 141.38 174.62 140.49 174.63 C 139.59 174.64 138.87 175.37 138.88 176.27 Z M 138.89 177.29 L 138.91 178.25 C 138.94 179.15 139.68 179.86 140.58 179.84 C 141.47 179.81 142.18 179.07 142.16 178.17 L 142.14 177.21 C 142.11 176.32 141.37 175.61 140.47 175.63 C 139.58 175.65 138.87 176.40 138.89 177.29 Z M 138.91 178.29 L 138.96 179.25 C 139.00 180.15 139.76 180.84 140.66 180.80 C 141.55 180.76 142.25 180.00 142.21 179.10 L 142.16 178.14 C 142.12 177.24 141.36 176.55 140.46 176.59 C 139.56 176.63 138.87 177.39 138.91 178.29 Z M 138.96 179.30 L 139.04 180.34 C 139.11 181.24 139.89 181.91 140.79 181.84 C 141.69 181.77 142.36 180.99 142.29 180.09 L 142.21 179.05 C 142.14 178.15 141.35 177.48 140.46 177.55 C 139.56 177.62 138.89 178.40 138.96 179.30 Z M 139.04 180.41 L 139.15 181.39 C 139.26 182.29 140.07 182.93 140.97 182.83 C 141.86 182.72 142.50 181.91 142.40 181.01 L 142.29 180.03 C 142.18 179.13 141.37 178.49 140.47 178.59 C 139.58 178.70 138.93 179.51 139.04 180.41 Z M 139.16 181.46 L 139.31 182.41 C 139.46 183.30 140.30 183.91 141.19 183.77 C 142.08 183.62 142.69 182.78 142.55 181.89 L 142.39 180.94 C 142.25 180.05 141.41 179.44 140.52 179.59 C 139.62 179.73 139.02 180.57 139.16 181.46 Z M 139.33 182.49 L 139.53 183.46 C 139.72 184.34 140.59 184.91 141.47 184.72 C 142.36 184.54 142.92 183.67 142.74 182.78 L 142.53 181.81 C 142.35 180.93 141.48 180.36 140.59 180.55 C 139.70 180.73 139.14 181.60 139.33 182.49 Z M 139.55 183.56 L 139.82 184.52 C 140.06 185.39 140.96 185.91 141.84 185.67 C 142.71 185.43 143.22 184.52 142.98 183.65 L 142.72 182.68 C 142.48 181.81 141.57 181.29 140.70 181.54 C 139.82 181.78 139.31 182.68 139.55 183.56 Z M 139.85 184.64 L 140.19 185.58 C 140.50 186.43 141.44 186.87 142.30 186.56 C 143.15 186.26 143.59 185.31 143.28 184.46 L 142.95 183.52 C 142.64 182.67 141.69 182.23 140.84 182.54 C 139.99 182.85 139.54 183.79 139.85 184.64 Z M 140.25 185.72 L 140.67 186.62 C 141.06 187.44 142.04 187.79 142.86 187.40 C 143.68 187.02 144.04 186.04 143.65 185.21 L 143.23 184.32 C 142.84 183.49 141.86 183.14 141.04 183.53 C 140.21 183.92 139.86 184.90 140.25 185.72 Z M 140.74 186.74 L 141.24 187.60 C 141.70 188.38 142.70 188.65 143.49 188.19 C 144.27 187.73 144.54 186.73 144.08 185.94 L 143.58 185.09 C 143.12 184.30 142.12 184.04 141.33 184.49 C 140.55 184.95 140.28 185.96 140.74 186.74 Z M 141.29 187.68 L 141.85 188.51 C 142.35 189.27 143.37 189.47 144.12 188.97 C 144.87 188.47 145.08 187.45 144.58 186.70 L 144.03 185.86 C 143.52 185.11 142.51 184.90 141.75 185.40 C 141.00 185.91 140.79 186.92 141.29 187.68 Z M 141.88 188.55 L 142.46 189.38 C 142.98 190.11 144.00 190.29 144.74 189.77 C 145.48 189.25 145.65 188.23 145.13 187.49 L 144.55 186.66 C 144.03 185.93 143.01 185.75 142.27 186.27 C 141.53 186.79 141.36 187.81 141.88 188.55 Z"
      fill="black"
      fill-rule="nonzero" /><path d="M 147.98 225.24 L 146.96 225.29 C 146.09 225.34 145.43 226.07 145.48 226.93 C 145.52 227.79 146.26 228.45 147.12 228.41 L 148.14 228.36 C 149.00 228.31 149.66 227.58 149.62 226.72 C 149.57 225.86 148.84 225.19 147.98 225.24 Z M 146.86 225.30 L 145.86 225.42 C 145.00 225.52 144.39 226.29 144.49 227.15 C 144.59 228.00 145.36 228.62 146.22 228.52 L 147.22 228.40 C 148.07 228.30 148.69 227.53 148.59 226.67 C 148.49 225.81 147.71 225.20 146.86 225.30 Z M 145.65 225.45 L 144.71 225.69 C 143.88 225.91 143.37 226.76 143.59 227.59 C 143.80 228.43 144.65 228.93 145.48 228.72 L 146.43 228.48 C 147.26 228.27 147.77 227.42 147.55 226.58 C 147.34 225.75 146.49 225.24 145.65 225.45 Z M 144.42 225.80 L 143.55 226.22 C 142.77 226.59 142.45 227.53 142.82 228.30 C 143.20 229.08 144.13 229.41 144.90 229.03 L 145.78 228.61 C 146.55 228.24 146.88 227.31 146.50 226.53 C 146.13 225.75 145.20 225.43 144.42 225.80 Z M 143.29 226.38 L 142.50 226.97 C 141.81 227.48 141.67 228.46 142.18 229.15 C 142.70 229.84 143.68 229.98 144.37 229.47 L 145.16 228.88 C 145.85 228.36 145.99 227.38 145.48 226.69 C 144.96 226.00 143.98 225.86 143.29 226.38 Z M 142.32 227.13 L 141.60 227.86 C 141.00 228.48 141.01 229.47 141.63 230.07 C 142.25 230.67 143.24 230.66 143.84 230.04 L 144.55 229.31 C 145.16 228.69 145.14 227.70 144.52 227.10 C 143.91 226.50 142.92 226.51 142.32 227.13 Z M 141.48 228.01 L 140.69 229.04 C 140.17 229.72 140.30 230.70 140.98 231.23 C 141.67 231.75 142.65 231.62 143.17 230.93 L 143.96 229.90 C 144.48 229.22 144.35 228.24 143.67 227.71 C 142.98 227.19 142.00 227.32 141.48 228.01 Z M 140.74 228.97 L 140.17 229.64 C 139.62 230.30 139.70 231.28 140.35 231.84 C 141.01 232.40 141.99 232.32 142.55 231.66 L 143.12 231.00 C 143.68 230.34 143.60 229.35 142.94 228.80 C 142.28 228.24 141.30 228.32 140.74 228.97 Z M 142.69 229.84 L 142.54 229.58 C 142.09 228.85 141.13 228.62 140.39 229.07 C 139.66 229.52 139.43 230.48 139.88 231.22 L 140.03 231.47 C 140.48 232.21 141.45 232.43 142.18 231.98 C 142.92 231.53 143.14 230.57 142.69 229.84 Z M 142.76 230.55 L 142.84 229.81 C 142.92 228.95 142.29 228.19 141.43 228.10 C 140.58 228.02 139.81 228.65 139.73 229.50 L 139.65 230.25 C 139.57 231.11 140.20 231.87 141.05 231.95 C 141.91 232.04 142.68 231.41 142.76 230.55 Z M 142.82 229.92 L 143.01 228.84 C 143.15 227.99 142.59 227.19 141.74 227.04 C 140.89 226.89 140.08 227.46 139.93 228.31 L 139.74 229.39 C 139.60 230.24 140.17 231.05 141.01 231.20 C 141.86 231.34 142.67 230.77 142.82 229.92 Z M 143.00 228.88 L 143.25 227.60 C 143.42 226.76 142.87 225.94 142.03 225.77 C 141.18 225.60 140.36 226.15 140.19 227.00 L 139.94 228.27 C 139.77 229.12 140.32 229.94 141.16 230.11 C 142.01 230.28 142.83 229.73 143.00 228.88 Z M 143.25 227.61 L 143.36 227.11 C 143.53 226.27 142.98 225.44 142.14 225.27 C 141.29 225.10 140.47 225.64 140.30 226.48 L 140.19 226.99 C 140.02 227.83 140.56 228.66 141.41 228.83 C 142.25 229.00 143.08 228.46 143.25 227.61 Z"
      fill="black"
      fill-rule="nonzero" /></svg>