<svg xmlns="http://www.w3.org/2000/svg" width="300" height="300" viewBox="0 0 300 300">
<path d="M 151.97 214.21 L 151.38 215.02 C 150.87 215.72 151.03 216.69 151.72 217.20 C 152.42 217.70 153.40 217.55 153.90 216.85 L 154.49 216.04 C 155.00 215.34 154.85 214.37 154.15 213.86 C 153.45 213.35 152.47 213.51 151.97 214.21 Z M 151.38 215.02 L 150.79 215.83 C 150.28 216.53 150.44 217.51 151.14 218.01 C 151.84 218.52 152.81 218.36 153.32 217.66 L 153.91 216.85 C 154.41 216.15 154.25 215.18 153.56 214.67 C 152.86 214.16 151.88 214.32 151.38 215.02 Z M 150.79 215.84 L 150.20 216.65 C 149.70 217.35 149.86 218.33 150.56 218.83 C 151.27 219.33 152.24 219.17 152.74 218.47 L 153.32 217.66 C 153.83 216.95 153.66 215.98 152.96 215.48 C 152.26 214.98 151.29 215.14 150.79 215.84 Z M 150.20 216.66 L 149.62 217.48 C 149.12 218.18 149.29 219.15 150.00 219.65 C 150.70 220.15 151.68 219.98 152.17 219.28 L 152.75 218.46 C 153.25 217.75 153.08 216.78 152.37 216.28 C 151.67 215.79 150.69 215.95 150.20 216.66 Z M 149.62 217.48 L 149.04 218.31 C 148.55 219.01 148.72 219.99 149.43 220.48 C 150.14 220.97 151.11 220.80 151.60 220.09 L 152.18 219.27 C 152.67 218.56 152.50 217.59 151.79 217.09 C 151.08 216.60 150.11 216.78 149.62 217.48 Z M 149.04 218.31 L 148.47 219.12 C 147.98 219.83 148.15 220.80 148.86 221.30 C 149.56 221.79 150.54 221.62 151.03 220.91 L 151.60 220.09 C 152.10 219.39 151.92 218.41 151.22 217.92 C 150.51 217.43 149.54 217.60 149.04 218.31 Z M 148.48 219.12 L 147.90 219.93 C 147.40 220.63 147.57 221.60 148.27 222.10 C 148.98 222.60 149.95 222.44 150.45 221.73 L 151.02 220.92 C 151.52 220.22 151.36 219.24 150.65 218.74 C 149.95 218.25 148.98 218.41 148.48 219.12 Z M 147.91 219.91 L 147.32 220.72 C 146.81 221.42 146.97 222.40 147.66 222.90 C 148.36 223.41 149.34 223.26 149.85 222.56 L 150.44 221.75 C 150.95 221.05 150.79 220.08 150.10 219.57 C 149.40 219.06 148.42 219.21 147.91 219.91 Z M 147.33 220.71 L 146.73 221.51 C 146.22 222.20 146.36 223.18 147.05 223.69 C 147.74 224.21 148.72 224.07 149.23 223.38 L 149.83 222.58 C 150.35 221.89 150.21 220.91 149.52 220.39 C 148.83 219.88 147.85 220.02 147.33 220.71 Z M 146.74 221.50 L 146.14 222.29 C 145.61 222.97 145.74 223.95 146.43 224.48 C 147.11 225.00 148.09 224.87 148.62 224.19 L 149.22 223.39 C 149.75 222.71 149.62 221.73 148.93 221.20 C 148.25 220.68 147.27 220.81 146.74 221.50 Z M 146.15 222.28 L 145.53 223.07 C 145.00 223.75 145.12 224.73 145.80 225.26 C 146.48 225.79 147.46 225.67 147.99 224.99 L 148.61 224.20 C 149.14 223.52 149.02 222.53 148.34 222.00 C 147.66 221.47 146.68 221.60 146.15 222.28 Z M 145.54 223.06 L 144.91 223.85 C 144.37 224.52 144.49 225.50 145.16 226.04 C 145.83 226.58 146.82 226.47 147.35 225.79 L 147.98 225.00 C 148.52 224.32 148.41 223.34 147.73 222.80 C 147.06 222.27 146.08 222.38 145.54 223.06 Z M 144.93 223.83 L 144.29 224.60 C 143.74 225.26 143.84 226.25 144.51 226.80 C 145.17 227.34 146.15 227.25 146.70 226.58 L 147.34 225.81 C 147.88 225.14 147.79 224.16 147.12 223.61 C 146.46 223.07 145.47 223.16 144.93 223.83 Z M 144.32 224.57 L 143.67 225.31 C 143.11 225.96 143.18 226.95 143.83 227.51 C 144.49 228.08 145.47 228.01 146.04 227.35 L 146.68 226.61 C 147.24 225.96 147.17 224.97 146.52 224.41 C 145.87 223.84 144.88 223.92 144.32 224.57 Z M 143.71 225.27 L 143.03 226.01 C 142.45 226.64 142.48 227.63 143.12 228.21 C 143.75 228.80 144.74 228.76 145.32 228.13 L 146.00 227.39 C 146.59 226.76 146.55 225.77 145.91 225.19 C 145.28 224.60 144.29 224.64 143.71 225.27 Z M 143.07 225.96 L 142.37 226.67 C 141.76 227.28 141.76 228.27 142.37 228.88 C 142.98 229.48 143.97 229.48 144.58 228.87 L 145.28 228.17 C 145.89 227.56 145.89 226.57 145.28 225.96 C 144.67 225.35 143.68 225.35 143.07 225.96 Z M 142.42 226.62 L 141.68 227.31 C 141.05 227.89 141.01 228.88 141.59 229.51 C 142.18 230.14 143.17 230.18 143.80 229.60 L 144.54 228.92 C 145.17 228.33 145.21 227.34 144.62 226.71 C 144.04 226.08 143.05 226.04 142.42 226.62 Z M 141.73 227.26 L 141.02 227.86 C 140.37 228.42 140.29 229.41 140.85 230.06 C 141.41 230.72 142.39 230.80 143.05 230.24 L 143.75 229.64 C 144.41 229.08 144.49 228.10 143.93 227.44 C 143.37 226.78 142.38 226.70 141.73 227.26 Z M 141.10 227.80 L 140.35 228.37 C 139.66 228.88 139.53 229.86 140.04 230.55 C 140.56 231.24 141.54 231.38 142.23 230.86 L 142.97 230.30 C 143.66 229.78 143.80 228.80 143.28 228.11 C 142.76 227.42 141.78 227.29 141.10 227.80 Z M 140.46 228.29 L 139.60 228.83 C 138.88 229.29 138.66 230.26 139.12 230.99 C 139.58 231.71 140.54 231.93 141.27 231.47 L 142.13 230.93 C 142.85 230.47 143.07 229.51 142.61 228.78 C 142.15 228.05 141.19 227.83 140.46 228.29 Z M 139.73 228.76 L 138.73 229.27 C 137.96 229.66 137.65 230.60 138.04 231.37 C 138.43 232.14 139.37 232.44 140.14 232.05 L 141.15 231.54 C 141.91 231.15 142.22 230.21 141.83 229.44 C 141.44 228.68 140.50 228.37 139.73 228.76 Z M 138.84 229.22 L 137.94 229.59 C 137.14 229.92 136.76 230.83 137.09 231.63 C 137.41 232.42 138.33 232.80 139.12 232.48 L 140.03 232.10 C 140.83 231.78 141.21 230.86 140.88 230.07 C 140.55 229.27 139.64 228.89 138.84 229.22 Z M 138.02 229.56 L 137.05 229.90 C 136.24 230.18 135.81 231.07 136.09 231.88 C 136.37 232.70 137.26 233.13 138.08 232.84 L 139.04 232.51 C 139.86 232.22 140.29 231.33 140.00 230.52 C 139.72 229.70 138.83 229.28 138.02 229.56 Z M 137.11 229.88 L 136.12 230.17 C 135.29 230.42 134.82 231.29 135.07 232.12 C 135.32 232.95 136.19 233.41 137.02 233.16 L 138.01 232.86 C 138.84 232.62 139.31 231.75 139.06 230.92 C 138.81 230.09 137.94 229.63 137.11 229.88 Z M 136.18 230.16 L 135.19 230.41 C 134.36 230.63 133.86 231.48 134.07 232.32 C 134.29 233.15 135.14 233.65 135.98 233.44 L 136.96 233.18 C 137.79 232.96 138.30 232.11 138.08 231.28 C 137.86 230.44 137.01 229.94 136.18 230.16 Z M 135.25 230.40 L 134.32 230.60 C 133.48 230.79 132.94 231.62 133.13 232.46 C 133.31 233.30 134.14 233.84 134.99 233.65 L 135.92 233.45 C 136.76 233.27 137.29 232.43 137.11 231.59 C 136.92 230.75 136.09 230.22 135.25 230.40 Z M 134.40 230.59 L 133.28 230.77 C 132.43 230.91 131.85 231.72 131.99 232.57 C 132.14 233.42 132.94 233.99 133.79 233.85 L 134.91 233.67 C 135.76 233.53 136.33 232.72 136.19 231.87 C 136.05 231.02 135.25 230.45 134.40 230.59 Z M 133.37 230.76 L 132.38 230.86 C 131.52 230.95 130.90 231.72 130.99 232.58 C 131.08 233.44 131.84 234.06 132.70 233.97 L 133.70 233.87 C 134.55 233.78 135.18 233.01 135.09 232.15 C 135.00 231.30 134.23 230.67 133.37 230.76 Z M 132.46 230.86 L 131.54 230.91 C 130.67 230.95 130.01 231.69 130.06 232.55 C 130.10 233.41 130.84 234.07 131.70 234.02 L 132.62 233.98 C 133.48 233.93 134.15 233.20 134.10 232.34 C 134.06 231.47 133.32 230.81 132.46 230.86 Z M 131.58 230.90 L 130.65 230.93 C 129.79 230.95 129.10 231.66 129.12 232.52 C 129.14 233.38 129.86 234.07 130.72 234.05 L 131.65 234.03 C 132.51 234.01 133.20 233.29 133.18 232.43 C 133.16 231.57 132.44 230.88 131.58 230.90 Z M 130.67 230.93 L 129.67 230.93 C 128.81 230.94 128.12 231.65 128.13 232.51 C 128.13 233.37 128.84 234.07 129.70 234.06 L 130.70 234.05 C 131.56 234.04 132.25 233.33 132.24 232.47 C 132.24 231.61 131.53 230.92 130.67 230.93 Z M 129.69 230.93 L 128.68 230.93 C 127.82 230.93 127.12 231.63 127.12 232.49 C 127.12 233.35 127.82 234.05 128.68 234.06 L 129.68 234.06 C 130.55 234.06 131.25 233.36 131.25 232.50 C 131.25 231.64 130.55 230.94 129.69 230.93 Z M 128.70 230.93 L 127.70 230.92 C 126.84 230.91 126.13 231.60 126.12 232.46 C 126.10 233.32 126.79 234.03 127.66 234.04 L 128.66 234.06 C 129.52 234.07 130.23 233.38 130.24 232.52 C 130.25 231.65 129.56 230.94 128.70 230.93 Z M 127.72 230.92 L 126.74 230.89 C 125.87 230.86 125.15 231.54 125.13 232.40 C 125.10 233.27 125.78 233.99 126.64 234.01 L 127.63 234.04 C 128.49 234.07 129.21 233.39 129.24 232.53 C 129.26 231.67 128.59 230.95 127.72 230.92 Z M 126.80 230.89 L 125.81 230.82 C 124.95 230.76 124.21 231.41 124.14 232.27 C 124.08 233.13 124.73 233.88 125.59 233.94 L 126.58 234.01 C 127.44 234.07 128.18 233.42 128.25 232.56 C 128.31 231.70 127.66 230.96 126.80 230.89 Z M 125.92 230.83 L 124.93 230.69 C 124.07 230.57 123.28 231.16 123.16 232.02 C 123.04 232.87 123.63 233.66 124.48 233.78 L 125.48 233.93 C 126.33 234.05 127.12 233.45 127.25 232.60 C 127.37 231.75 126.77 230.96 125.92 230.83 Z M 125.06 230.72 L 124.09 230.49 C 123.25 230.29 122.41 230.81 122.21 231.65 C 122.01 232.49 122.53 233.33 123.37 233.53 L 124.34 233.76 C 125.18 233.96 126.03 233.44 126.22 232.60 C 126.42 231.76 125.90 230.92 125.06 230.72 Z M 124.23 230.53 L 123.28 230.21 C 122.46 229.93 121.57 230.37 121.30 231.19 C 121.02 232.01 121.46 232.89 122.28 233.17 L 123.23 233.49 C 124.05 233.76 124.94 233.32 125.21 232.50 C 125.49 231.69 125.05 230.80 124.23 230.53 Z M 123.40 230.25 L 122.47 229.85 C 121.68 229.51 120.76 229.87 120.42 230.66 C 120.07 231.46 120.44 232.38 121.23 232.72 L 122.16 233.12 C 122.95 233.47 123.87 233.10 124.21 232.31 C 124.56 231.52 124.19 230.60 123.40 230.25 Z M 122.60 229.91 L 121.72 229.43 C 120.96 229.02 120.01 229.31 119.60 230.07 C 119.19 230.83 119.47 231.78 120.23 232.19 L 121.11 232.66 C 121.87 233.08 122.82 232.79 123.23 232.03 C 123.64 231.27 123.36 230.32 122.60 229.91 Z M 121.85 229.51 L 121.00 228.94 C 120.28 228.46 119.31 228.66 118.82 229.38 C 118.34 230.10 118.54 231.07 119.26 231.55 L 120.10 232.12 C 120.82 232.60 121.80 232.40 122.28 231.68 C 122.76 230.96 122.57 229.99 121.85 229.51 Z M 121.12 229.03 L 120.35 228.40 C 119.67 227.85 118.68 227.96 118.13 228.63 C 117.59 229.30 117.69 230.30 118.36 230.84 L 119.14 231.47 C 119.81 232.02 120.80 231.91 121.35 231.24 C 121.90 230.56 121.79 229.57 121.12 229.03 Z M 120.44 228.48 L 119.73 227.80 C 119.10 227.20 118.10 227.22 117.50 227.85 C 116.90 228.48 116.92 229.48 117.55 230.08 L 118.27 230.76 C 118.90 231.36 119.90 231.34 120.50 230.71 C 121.10 230.08 121.07 229.08 120.44 228.48 Z M 119.80 227.87 L 119.14 227.15 C 118.54 226.51 117.54 226.47 116.90 227.06 C 116.26 227.65 116.22 228.65 116.81 229.29 L 117.48 230.01 C 118.07 230.65 119.07 230.69 119.71 230.10 C 120.35 229.51 120.39 228.51 119.80 227.87 Z M 119.20 227.22 L 118.58 226.46 C 118.03 225.79 117.03 225.69 116.35 226.24 C 115.68 226.80 115.58 227.80 116.13 228.47 L 116.75 229.22 C 117.31 229.90 118.30 230.00 118.98 229.44 C 119.66 228.89 119.75 227.89 119.20 227.22 Z M 118.65 226.54 L 118.06 225.73 C 117.55 225.02 116.56 224.86 115.85 225.37 C 115.14 225.88 114.98 226.87 115.49 227.58 L 116.07 228.39 C 116.58 229.10 117.57 229.27 118.28 228.75 C 118.99 228.24 119.16 227.25 118.65 226.54 Z M 118.13 225.82 L 117.58 224.94 C 117.12 224.19 116.14 223.96 115.40 224.42 C 114.65 224.88 114.42 225.86 114.88 226.60 L 115.42 227.49 C 115.88 228.23 116.86 228.47 117.61 228.01 C 118.35 227.55 118.59 226.57 118.13 225.82 Z M 117.64 225.03 L 117.20 224.19 C 116.79 223.42 115.82 223.12 115.05 223.53 C 114.27 223.94 113.97 224.90 114.38 225.68 L 114.82 226.51 C 115.23 227.29 116.20 227.59 116.97 227.18 C 117.75 226.77 118.05 225.81 117.64 225.03 Z M 117.24 224.27 L 116.83 223.39 C 116.47 222.59 115.52 222.24 114.72 222.61 C 113.92 222.97 113.57 223.92 113.94 224.72 L 114.34 225.60 C 114.71 226.40 115.65 226.75 116.46 226.39 C 117.26 226.02 117.61 225.07 117.24 224.27 Z M 116.87 223.46 L 116.49 222.52 C 116.16 221.70 115.23 221.30 114.41 221.63 C 113.59 221.96 113.19 222.89 113.52 223.71 L 113.90 224.65 C 114.23 225.47 115.16 225.87 115.98 225.54 C 116.80 225.21 117.20 224.28 116.87 223.46 Z M 116.52 222.58 L 116.17 221.58 C 115.87 220.75 114.95 220.31 114.12 220.61 C 113.28 220.90 112.85 221.82 113.14 222.65 L 113.50 223.65 C 113.79 224.48 114.71 224.92 115.54 224.63 C 116.38 224.33 116.81 223.41 116.52 222.58 Z M 116.19 221.63 L 115.90 220.72 C 115.63 219.87 114.73 219.40 113.88 219.67 C 113.03 219.93 112.57 220.84 112.83 221.68 L 113.12 222.60 C 113.39 223.45 114.29 223.92 115.14 223.65 C 115.98 223.38 116.45 222.48 116.19 221.63 Z M 115.91 220.76 L 115.65 219.84 C 115.41 218.99 114.52 218.49 113.67 218.73 C 112.81 218.98 112.31 219.87 112.56 220.72 L 112.82 221.64 C 113.06 222.49 113.95 222.99 114.80 222.75 C 115.66 222.51 116.16 221.62 115.91 220.76 Z M 115.67 219.89 L 115.42 218.93 C 115.20 218.06 114.33 217.54 113.46 217.76 C 112.60 217.98 112.08 218.86 112.30 219.72 L 112.54 220.68 C 112.76 221.54 113.64 222.07 114.50 221.85 C 115.37 221.63 115.89 220.75 115.67 219.89 Z M 115.44 218.97 L 115.21 217.97 C 115.01 217.10 114.14 216.55 113.28 216.75 C 112.41 216.95 111.86 217.81 112.06 218.68 L 112.29 219.68 C 112.48 220.55 113.35 221.10 114.22 220.90 C 115.09 220.70 115.63 219.84 115.44 218.97 Z M 115.22 218.00 L 115.01 216.96 C 114.83 216.08 113.98 215.51 113.10 215.69 C 112.23 215.87 111.66 216.72 111.84 217.60 L 112.05 218.64 C 112.23 219.52 113.08 220.08 113.95 219.91 C 114.83 219.73 115.39 218.88 115.22 218.00 Z M 115.01 216.99 L 114.85 216.05 C 114.69 215.17 113.85 214.58 112.97 214.74 C 112.09 214.90 111.50 215.74 111.66 216.62 L 111.83 217.56 C 111.99 218.44 112.83 219.03 113.71 218.87 C 114.59 218.71 115.17 217.87 115.01 216.99 Z M 114.85 216.08 L 114.70 215.14 C 114.56 214.26 113.72 213.66 112.84 213.80 C 111.96 213.94 111.36 214.78 111.50 215.66 L 111.65 216.59 C 111.80 217.48 112.63 218.08 113.51 217.93 C 114.40 217.79 115.00 216.96 114.85 216.08 Z M 114.71 215.17 L 114.56 214.20 C 114.43 213.31 113.61 212.70 112.72 212.83 C 111.84 212.96 111.22 213.78 111.35 214.67 L 111.50 215.64 C 111.63 216.52 112.45 217.14 113.34 217.01 C 114.22 216.88 114.84 216.05 114.71 215.17 Z M 114.57 214.22 L 114.44 213.22 C 114.32 212.33 113.50 211.71 112.61 211.82 C 111.72 211.94 111.10 212.76 111.22 213.65 L 111.35 214.65 C 111.47 215.54 112.28 216.16 113.17 216.05 C 114.06 215.93 114.69 215.11 114.57 214.22 Z M 114.44 213.24 L 114.32 212.21 C 114.21 211.32 113.40 210.68 112.51 210.79 C 111.62 210.89 110.98 211.70 111.09 212.60 L 111.21 213.63 C 111.32 214.52 112.13 215.16 113.02 215.05 C 113.91 214.94 114.55 214.13 114.44 213.24 Z M 114.32 212.23 L 114.21 211.16 C 114.11 210.27 113.31 209.62 112.41 209.72 C 111.52 209.82 110.87 210.62 110.97 211.51 L 111.08 212.58 C 111.18 213.47 111.98 214.12 112.88 214.02 C 113.77 213.92 114.42 213.12 114.32 212.23 Z M 114.21 211.18 L 114.11 210.19 C 114.02 209.29 113.22 208.64 112.33 208.73 C 111.43 208.82 110.78 209.61 110.87 210.51 L 110.97 211.50 C 111.05 212.39 111.85 213.05 112.75 212.96 C 113.64 212.87 114.30 212.07 114.21 211.18 Z M 114.11 210.20 L 114.02 209.23 C 113.94 208.33 113.15 207.67 112.25 207.75 C 111.36 207.83 110.70 208.62 110.78 209.52 L 110.87 210.50 C 110.95 211.39 111.74 212.05 112.64 211.97 C 113.53 211.89 114.19 211.10 114.11 210.20 Z M 114.03 209.24 L 113.95 208.25 C 113.87 207.35 113.08 206.68 112.19 206.75 C 111.29 206.83 110.62 207.61 110.70 208.51 L 110.78 209.50 C 110.85 210.40 111.64 211.07 112.53 211.00 C 113.43 210.92 114.10 210.14 114.03 209.24 Z M 113.95 208.26 L 113.87 207.25 C 113.81 206.36 113.03 205.68 112.13 205.75 C 111.23 205.81 110.55 206.59 110.62 207.49 L 110.69 208.50 C 110.76 209.40 111.54 210.07 112.44 210.00 C 113.34 209.94 114.01 209.16 113.95 208.26 Z M 113.87 207.27 L 113.81 206.26 C 113.75 205.36 112.98 204.68 112.08 204.73 C 111.18 204.79 110.50 205.57 110.55 206.47 L 110.62 207.48 C 110.68 208.38 111.45 209.06 112.35 209.00 C 113.25 208.94 113.93 208.17 113.87 207.27 Z M 113.81 206.27 L 113.75 205.26 C 113.71 204.36 112.94 203.67 112.04 203.72 C 111.14 203.77 110.45 204.54 110.50 205.44 L 110.55 206.45 C 110.60 207.35 111.37 208.04 112.27 207.99 C 113.17 207.94 113.86 207.17 113.81 206.27 Z M 113.76 205.27 L 113.71 204.26 C 113.67 203.36 112.91 202.67 112.01 202.71 C 111.11 202.75 110.41 203.51 110.45 204.41 L 110.50 205.42 C 110.54 206.32 111.30 207.02 112.20 206.98 C 113.10 206.94 113.80 206.17 113.76 205.27 Z M 113.71 204.28 L 113.68 203.28 C 113.65 202.38 112.89 201.67 111.99 201.70 C 111.09 201.74 110.38 202.49 110.41 203.39 L 110.45 204.39 C 110.48 205.29 111.24 206.00 112.14 205.97 C 113.04 205.94 113.74 205.18 113.71 204.28 Z M 113.68 203.29 L 113.65 202.30 C 113.63 201.40 112.88 200.69 111.98 200.71 C 111.08 200.73 110.37 201.48 110.39 202.38 L 110.41 203.38 C 110.44 204.28 111.19 204.99 112.09 204.97 C 112.99 204.95 113.70 204.20 113.68 203.29 Z M 113.66 202.31 L 113.64 201.32 C 113.62 200.42 112.88 199.70 111.98 199.71 C 111.07 199.73 110.35 200.47 110.37 201.38 L 110.39 202.37 C 110.40 203.27 111.15 203.99 112.05 203.97 C 112.95 203.96 113.67 203.22 113.66 202.31 Z M 113.64 201.33 L 113.63 200.34 C 113.62 199.43 112.88 198.71 111.98 198.72 C 111.07 198.73 110.35 199.47 110.36 200.37 L 110.37 201.37 C 110.38 202.27 111.12 202.99 112.02 202.98 C 112.92 202.97 113.65 202.23 113.64 201.33 Z M 113.63 200.35 L 113.63 199.35 C 113.62 198.44 112.88 197.72 111.98 197.72 C 111.08 197.73 110.35 198.46 110.35 199.37 L 110.36 200.36 C 110.36 201.27 111.10 202.00 112.00 201.99 C 112.91 201.99 113.64 201.25 113.63 200.35 Z M 113.63 199.35 L 113.62 198.35 C 113.62 197.45 112.89 196.71 111.98 196.72 C 111.08 196.72 110.35 197.45 110.35 198.36 L 110.35 199.36 C 110.35 200.27 111.09 201.00 111.99 201.00 C 112.90 200.99 113.63 200.26 113.63 199.35 Z M 113.63 198.35 L 113.63 197.34 C 113.63 196.43 112.89 195.70 111.99 195.70 C 111.08 195.70 110.35 196.43 110.35 197.34 L 110.35 198.35 C 110.35 199.26 111.08 199.99 111.99 199.99 C 112.89 199.99 113.63 199.26 113.63 198.35 Z M 113.63 197.34 L 113.63 196.37 C 113.63 195.47 112.89 194.73 111.99 194.73 C 111.08 194.73 110.35 195.47 110.35 196.37 L 110.35 197.34 C 110.35 198.24 111.08 198.98 111.99 198.98 C 112.89 198.98 113.63 198.24 113.63 197.34 Z M 113.63 196.38 L 113.63 195.41 C 113.63 194.50 112.90 193.76 111.99 193.76 C 111.08 193.76 110.35 194.50 110.35 195.40 L 110.34 196.37 C 110.34 197.28 111.08 198.02 111.98 198.02 C 112.89 198.02 113.63 197.28 113.63 196.38 Z M 113.63 195.41 L 113.63 194.43 C 113.64 193.52 112.90 192.78 111.99 192.78 C 111.09 192.78 110.35 193.51 110.35 194.42 L 110.34 195.40 C 110.34 196.31 111.08 197.05 111.98 197.05 C 112.89 197.05 113.63 196.32 113.63 195.41 Z M 113.63 194.43 L 113.64 193.44 C 113.65 192.53 112.91 191.79 112.00 191.78 C 111.10 191.78 110.36 192.51 110.35 193.42 L 110.35 194.41 C 110.34 195.32 111.07 196.06 111.98 196.07 C 112.89 196.07 113.63 195.34 113.63 194.43 Z M 113.64 193.44 L 113.65 192.44 C 113.66 191.53 112.93 190.78 112.02 190.77 C 111.11 190.77 110.37 191.50 110.36 192.40 L 110.35 193.41 C 110.34 194.32 111.07 195.07 111.98 195.07 C 112.89 195.08 113.63 194.35 113.64 193.44 Z M 113.65 192.44 L 113.67 191.42 C 113.68 190.51 112.95 189.76 112.04 189.75 C 111.13 189.74 110.38 190.47 110.37 191.38 L 110.36 192.40 C 110.35 193.31 111.07 194.05 111.98 194.07 C 112.89 194.08 113.64 193.35 113.65 192.44 Z M 113.67 191.43 L 113.69 190.39 C 113.70 189.48 112.98 188.73 112.07 188.71 C 111.16 188.70 110.41 189.42 110.39 190.33 L 110.37 191.37 C 110.35 192.28 111.08 193.03 111.99 193.05 C 112.90 193.06 113.65 192.34 113.67 191.43 Z M 113.69 190.40 L 113.71 189.40 C 113.74 188.49 113.02 187.73 112.11 187.71 C 111.19 187.69 110.44 188.41 110.41 189.32 L 110.39 190.32 C 110.37 191.23 111.09 191.99 112.00 192.01 C 112.91 192.03 113.67 191.31 113.69 190.40 Z M 113.71 189.41 L 113.74 188.46 C 113.77 187.55 113.06 186.78 112.15 186.76 C 111.23 186.73 110.47 187.44 110.44 188.35 L 110.41 189.31 C 110.39 190.22 111.10 190.98 112.01 191.01 C 112.92 191.04 113.69 190.32 113.71 189.41 Z M 113.74 188.47 L 113.78 187.50 C 113.82 186.59 113.11 185.82 112.20 185.79 C 111.28 185.75 110.52 186.46 110.48 187.37 L 110.44 188.34 C 110.41 189.25 111.12 190.02 112.03 190.06 C 112.94 190.09 113.71 189.38 113.74 188.47 Z M 113.78 187.51 L 113.83 186.53 C 113.87 185.62 113.17 184.85 112.26 184.81 C 111.34 184.76 110.57 185.47 110.53 186.38 L 110.48 187.36 C 110.44 188.27 111.14 189.04 112.05 189.09 C 112.97 189.13 113.74 188.43 113.78 187.51 Z M 113.83 186.55 L 113.88 185.56 C 113.94 184.64 113.24 183.86 112.33 183.81 C 111.42 183.76 110.64 184.46 110.58 185.37 L 110.53 186.36 C 110.48 187.27 111.17 188.06 112.08 188.11 C 113.00 188.16 113.78 187.46 113.83 186.55 Z M 113.88 185.57 L 113.95 184.56 C 114.01 183.65 113.32 182.87 112.41 182.81 C 111.50 182.74 110.71 183.43 110.65 184.35 L 110.58 185.35 C 110.52 186.26 111.21 187.05 112.12 187.11 C 113.04 187.17 113.82 186.48 113.88 185.57 Z M 113.95 184.58 L 114.03 183.56 C 114.10 182.65 113.42 181.85 112.51 181.78 C 111.60 181.71 110.80 182.40 110.73 183.31 L 110.65 184.33 C 110.58 185.24 111.26 186.03 112.17 186.10 C 113.08 186.17 113.88 185.49 113.95 184.58 Z M 114.03 183.58 L 114.12 182.54 C 114.20 181.63 113.53 180.83 112.62 180.75 C 111.71 180.67 110.91 181.34 110.82 182.25 L 110.73 183.29 C 110.65 184.20 111.32 185.00 112.23 185.08 C 113.14 185.16 113.95 184.49 114.03 183.58 Z M 114.12 182.56 L 114.22 181.53 C 114.32 180.62 113.65 179.81 112.74 179.72 C 111.83 179.63 111.02 180.29 110.93 181.20 L 110.83 182.23 C 110.73 183.14 111.40 183.95 112.31 184.04 C 113.21 184.14 114.03 183.47 114.12 182.56 Z M 114.22 181.55 L 114.33 180.60 C 114.43 179.69 113.78 178.87 112.87 178.77 C 111.96 178.67 111.14 179.32 111.04 180.23 L 110.93 181.18 C 110.83 182.09 111.48 182.91 112.39 183.01 C 113.30 183.11 114.12 182.46 114.22 181.55 Z M 114.33 180.62 L 114.45 179.66 C 114.56 178.75 113.91 177.92 113.01 177.81 C 112.10 177.70 111.27 178.34 111.16 179.25 L 111.04 180.21 C 110.93 181.12 111.57 181.94 112.48 182.06 C 113.39 182.17 114.22 181.53 114.33 180.62 Z M 114.44 179.67 L 114.57 178.70 C 114.69 177.79 114.06 176.96 113.15 176.84 C 112.25 176.72 111.41 177.36 111.29 178.26 L 111.16 179.23 C 111.04 180.14 111.68 180.97 112.59 181.09 C 113.49 181.21 114.32 180.58 114.44 179.67 Z M 114.57 178.71 L 114.71 177.73 C 114.84 176.83 114.21 175.99 113.30 175.86 C 112.40 175.73 111.56 176.36 111.43 177.27 L 111.30 178.25 C 111.17 179.15 111.80 179.99 112.70 180.12 C 113.61 180.25 114.44 179.62 114.57 178.71 Z M 114.71 177.74 L 114.86 176.75 C 114.99 175.85 114.37 175.01 113.47 174.87 C 112.56 174.74 111.72 175.36 111.58 176.26 L 111.44 177.26 C 111.30 178.16 111.92 179.00 112.83 179.14 C 113.73 179.27 114.57 178.65 114.71 177.74 Z M 114.86 176.76 L 115.01 175.76 C 115.15 174.86 114.53 174.01 113.63 173.87 C 112.73 173.73 111.88 174.35 111.74 175.25 L 111.59 176.25 C 111.45 177.16 112.06 178.00 112.97 178.14 C 113.87 178.28 114.71 177.67 114.86 176.76 Z M 115.01 175.77 L 115.17 174.76 C 115.32 173.86 114.71 173.01 113.80 172.87 C 112.90 172.72 112.05 173.33 111.91 174.23 L 111.74 175.24 C 111.60 176.14 112.21 176.99 113.11 177.14 C 114.01 177.29 114.86 176.67 115.01 175.77 Z M 115.17 174.77 L 115.34 173.75 C 115.49 172.85 114.88 172.00 113.98 171.85 C 113.08 171.70 112.23 172.31 112.08 173.21 L 111.91 174.23 C 111.76 175.13 112.37 175.98 113.27 176.13 C 114.17 176.28 115.02 175.67 115.17 174.77 Z M 115.34 173.76 L 115.52 172.74 C 115.67 171.84 115.06 170.98 114.16 170.83 C 113.26 170.67 112.41 171.28 112.25 172.18 L 112.08 173.20 C 111.93 174.10 112.53 174.96 113.43 175.11 C 114.33 175.27 115.19 174.66 115.34 173.76 Z M 115.51 172.74 L 115.68 171.78 C 115.84 170.88 115.24 170.03 114.34 169.87 C 113.44 169.71 112.58 170.31 112.42 171.21 L 112.26 172.17 C 112.10 173.07 112.70 173.93 113.60 174.09 C 114.50 174.25 115.36 173.64 115.51 172.74 Z M 115.68 171.79 L 115.85 170.83 C 116.01 169.93 115.41 169.08 114.51 168.92 C 113.61 168.76 112.75 169.36 112.59 170.25 L 112.42 171.21 C 112.26 172.11 112.86 172.97 113.76 173.13 C 114.66 173.29 115.52 172.69 115.68 171.79 Z M 115.85 170.84 L 116.02 169.88 C 116.19 168.98 115.59 168.12 114.69 167.96 C 113.79 167.79 112.93 168.39 112.77 169.29 L 112.59 170.25 C 112.43 171.15 113.03 172.01 113.93 172.17 C 114.83 172.34 115.69 171.74 115.85 170.84 Z M 116.02 169.88 L 116.20 168.92 C 116.37 168.02 115.78 167.16 114.88 166.99 C 113.98 166.82 113.12 167.42 112.95 168.32 L 112.77 169.28 C 112.60 170.18 113.20 171.04 114.10 171.21 C 114.99 171.38 115.86 170.78 116.02 169.88 Z M 116.20 168.92 L 116.39 167.95 C 116.55 167.05 115.96 166.18 115.07 166.02 C 114.17 165.85 113.30 166.44 113.13 167.33 L 112.95 168.31 C 112.78 169.21 113.37 170.07 114.27 170.24 C 115.17 170.41 116.03 169.82 116.20 168.92 Z M 116.38 167.95 L 116.57 166.97 C 116.75 166.07 116.16 165.21 115.26 165.03 C 114.36 164.86 113.50 165.45 113.32 166.35 L 113.13 167.33 C 112.96 168.23 113.55 169.09 114.45 169.27 C 115.34 169.44 116.21 168.85 116.38 167.95 Z M 116.57 166.98 L 116.77 165.99 C 116.94 165.09 116.36 164.22 115.46 164.04 C 114.56 163.87 113.70 164.45 113.52 165.35 L 113.32 166.34 C 113.15 167.24 113.73 168.11 114.63 168.28 C 115.53 168.46 116.40 167.87 116.57 166.98 Z M 116.77 165.99 L 116.97 164.99 C 117.15 164.10 116.56 163.23 115.67 163.05 C 114.77 162.87 113.90 163.45 113.72 164.34 L 113.52 165.34 C 113.34 166.24 113.92 167.11 114.82 167.29 C 115.71 167.47 116.59 166.89 116.77 165.99 Z M 116.97 165.00 L 117.17 163.99 C 117.35 163.10 116.78 162.22 115.88 162.04 C 114.98 161.86 114.11 162.43 113.93 163.33 L 113.72 164.34 C 113.54 165.23 114.12 166.11 115.01 166.29 C 115.91 166.47 116.78 165.90 116.97 165.00 Z M 117.17 164.00 L 117.38 162.98 C 117.57 162.08 116.99 161.21 116.10 161.02 C 115.20 160.83 114.33 161.41 114.14 162.30 L 113.93 163.32 C 113.74 164.22 114.32 165.09 115.21 165.28 C 116.11 165.47 116.98 164.89 117.17 164.00 Z M 117.38 162.99 L 117.59 162.00 C 117.78 161.10 117.21 160.22 116.32 160.03 C 115.42 159.84 114.54 160.41 114.35 161.31 L 114.14 162.30 C 113.95 163.19 114.52 164.07 115.42 164.26 C 116.31 164.45 117.19 163.88 117.38 162.99 Z M 117.59 162.00 L 117.80 161.02 C 118.00 160.12 117.43 159.24 116.54 159.05 C 115.64 158.85 114.76 159.42 114.57 160.31 L 114.35 161.30 C 114.16 162.19 114.73 163.08 115.62 163.27 C 116.52 163.46 117.40 162.90 117.59 162.00 Z M 117.80 161.02 L 118.02 160.03 C 118.22 159.14 117.66 158.26 116.76 158.06 C 115.87 157.86 114.99 158.42 114.79 159.32 L 114.57 160.31 C 114.37 161.20 114.94 162.08 115.83 162.28 C 116.72 162.48 117.61 161.92 117.80 161.02 Z M 118.02 160.04 L 118.24 159.05 C 118.45 158.16 117.89 157.27 116.99 157.07 C 116.10 156.87 115.22 157.43 115.01 158.32 L 114.79 159.31 C 114.59 160.20 115.15 161.09 116.04 161.29 C 116.93 161.49 117.82 160.93 118.02 160.04 Z M 118.24 159.06 L 118.47 158.06 C 118.68 157.17 118.12 156.28 117.23 156.08 C 116.34 155.87 115.45 156.43 115.24 157.32 L 115.02 158.31 C 114.81 159.20 115.37 160.09 116.26 160.30 C 117.15 160.50 118.04 159.95 118.24 159.06 Z M 118.47 158.07 L 118.70 157.09 C 118.91 156.20 118.36 155.30 117.47 155.09 C 116.58 154.88 115.69 155.44 115.48 156.32 L 115.25 157.31 C 115.04 158.20 115.59 159.09 116.48 159.30 C 117.37 159.51 118.26 158.96 118.47 158.07 Z M 118.70 157.10 L 118.94 156.12 C 119.15 155.23 118.61 154.33 117.72 154.12 C 116.83 153.90 115.93 154.45 115.72 155.34 L 115.48 156.32 C 115.27 157.20 115.81 158.10 116.70 158.31 C 117.59 158.53 118.48 157.98 118.70 157.10 Z M 118.93 156.13 L 119.18 155.16 C 119.40 154.27 118.86 153.37 117.97 153.15 C 117.08 152.93 116.18 153.47 115.96 154.36 L 115.72 155.33 C 115.50 156.21 116.04 157.11 116.93 157.33 C 117.82 157.55 118.71 157.01 118.93 156.13 Z M 119.17 155.17 L 119.42 154.21 C 119.64 153.33 119.11 152.42 118.22 152.20 C 117.34 151.97 116.44 152.51 116.21 153.39 L 115.96 154.35 C 115.74 155.23 116.27 156.14 117.16 156.36 C 118.05 156.59 118.95 156.05 119.17 155.17 Z M 119.41 154.22 L 119.66 153.28 C 119.89 152.40 119.36 151.49 118.48 151.26 C 117.60 151.03 116.69 151.56 116.46 152.44 L 116.21 153.38 C 115.98 154.27 116.51 155.17 117.39 155.40 C 118.28 155.64 119.18 155.11 119.41 154.22 Z M 119.66 153.30 L 119.91 152.35 C 120.15 151.47 119.63 150.56 118.75 150.32 C 117.87 150.08 116.96 150.60 116.72 151.48 L 116.46 152.43 C 116.22 153.31 116.74 154.22 117.63 154.46 C 118.51 154.70 119.42 154.18 119.66 153.30 Z M 119.91 152.37 L 120.20 151.34 C 120.45 150.46 119.93 149.54 119.05 149.29 C 118.17 149.05 117.26 149.56 117.01 150.44 L 116.72 151.47 C 116.47 152.35 116.99 153.26 117.87 153.51 C 118.75 153.76 119.66 153.25 119.91 152.37 Z M 120.20 151.35 L 120.49 150.35 C 120.74 149.47 120.24 148.55 119.36 148.29 C 118.48 148.04 117.56 148.54 117.31 149.42 L 117.02 150.43 C 116.76 151.30 117.26 152.22 118.14 152.48 C 119.02 152.73 119.94 152.23 120.20 151.35 Z M 120.48 150.36 L 120.78 149.38 C 121.04 148.50 120.55 147.58 119.67 147.32 C 118.80 147.05 117.87 147.55 117.61 148.42 L 117.31 149.41 C 117.05 150.28 117.54 151.21 118.42 151.47 C 119.30 151.73 120.22 151.24 120.48 150.36 Z M 120.78 149.39 L 121.08 148.43 C 121.35 147.56 120.86 146.63 119.99 146.36 C 119.11 146.09 118.18 146.57 117.91 147.45 L 117.61 148.41 C 117.34 149.28 117.83 150.21 118.70 150.48 C 119.57 150.76 120.50 150.27 120.78 149.39 Z M 121.07 148.45 L 121.37 147.51 C 121.65 146.63 121.18 145.70 120.30 145.42 C 119.43 145.14 118.50 145.62 118.22 146.49 L 117.92 147.43 C 117.64 148.30 118.11 149.24 118.99 149.52 C 119.86 149.80 120.79 149.32 121.07 148.45 Z M 121.37 147.52 L 121.68 146.59 C 121.97 145.72 121.49 144.79 120.63 144.50 C 119.76 144.21 118.82 144.68 118.53 145.55 L 118.22 146.48 C 117.94 147.34 118.41 148.28 119.28 148.57 C 120.14 148.86 121.08 148.39 121.37 147.52 Z M 121.67 146.61 L 121.99 145.69 C 122.28 144.82 121.82 143.88 120.95 143.59 C 120.08 143.29 119.14 143.75 118.85 144.62 L 118.54 145.54 C 118.24 146.40 118.70 147.34 119.57 147.64 C 120.44 147.93 121.38 147.47 121.67 146.61 Z M 121.98 145.70 L 122.30 144.80 C 122.60 143.94 122.14 142.99 121.28 142.69 C 120.42 142.39 119.47 142.84 119.17 143.71 L 118.85 144.61 C 118.55 145.47 119.00 146.42 119.87 146.72 C 120.73 147.02 121.68 146.57 121.98 145.70 Z M 122.29 144.81 L 122.61 143.92 C 122.92 143.06 122.47 142.11 121.61 141.80 C 120.75 141.49 119.80 141.94 119.49 142.80 L 119.17 143.69 C 118.86 144.56 119.31 145.51 120.17 145.81 C 121.03 146.12 121.98 145.68 122.29 144.81 Z M 122.61 143.93 L 122.96 142.98 C 123.27 142.12 122.83 141.17 121.97 140.85 C 121.11 140.54 120.16 140.98 119.84 141.84 L 119.50 142.79 C 119.18 143.65 119.62 144.60 120.48 144.92 C 121.34 145.23 122.29 144.79 122.61 143.93 Z M 122.95 142.99 L 123.31 142.05 C 123.63 141.19 123.19 140.23 122.34 139.91 C 121.48 139.59 120.52 140.03 120.20 140.88 L 119.85 141.83 C 119.53 142.69 119.96 143.64 120.82 143.96 C 121.68 144.28 122.63 143.85 122.95 142.99 Z M 123.30 142.06 L 123.66 141.12 C 123.99 140.26 123.56 139.30 122.71 138.98 C 121.85 138.65 120.89 139.08 120.57 139.93 L 120.21 140.87 C 119.88 141.73 120.31 142.69 121.16 143.01 C 122.02 143.34 122.98 142.91 123.30 142.06 Z M 123.66 141.13 L 124.02 140.19 C 124.35 139.34 123.93 138.38 123.08 138.05 C 122.23 137.72 121.27 138.14 120.93 138.99 L 120.57 139.92 C 120.24 140.78 120.66 141.74 121.51 142.07 C 122.36 142.40 123.32 141.98 123.66 141.13 Z M 124.02 140.20 L 124.38 139.27 C 124.72 138.43 124.31 137.46 123.46 137.12 C 122.61 136.79 121.64 137.20 121.31 138.05 L 120.94 138.98 C 120.60 139.83 121.02 140.79 121.87 141.13 C 122.72 141.47 123.68 141.05 124.02 140.20 Z M 124.38 139.28 L 124.75 138.36 C 125.10 137.51 124.69 136.55 123.84 136.21 C 122.99 135.86 122.03 136.27 121.68 137.12 L 121.31 138.04 C 120.97 138.89 121.38 139.86 122.23 140.20 C 123.07 140.54 124.04 140.13 124.38 139.28 Z M 124.75 138.37 L 125.13 137.45 C 125.47 136.61 125.07 135.64 124.22 135.29 C 123.38 134.95 122.41 135.35 122.07 136.19 L 121.69 137.11 C 121.34 137.96 121.75 138.92 122.59 139.27 C 123.44 139.62 124.40 139.21 124.75 138.37 Z M 125.12 137.46 L 125.50 136.55 C 125.85 135.70 125.46 134.73 124.61 134.38 C 123.77 134.03 122.80 134.43 122.45 135.27 L 122.07 136.19 C 121.72 137.03 122.12 138.00 122.96 138.35 C 123.80 138.70 124.77 138.30 125.12 137.46 Z M 125.50 136.55 L 125.89 135.64 C 126.24 134.79 125.85 133.82 125.01 133.47 C 124.17 133.11 123.20 133.51 122.84 134.35 L 122.45 135.27 C 122.10 136.11 122.49 137.08 123.33 137.43 C 124.17 137.79 125.14 137.39 125.50 136.55 Z M 125.88 135.64 L 126.28 134.71 C 126.64 133.87 126.25 132.90 125.41 132.54 C 124.57 132.18 123.60 132.57 123.24 133.41 L 122.85 134.34 C 122.49 135.18 122.87 136.15 123.71 136.51 C 124.55 136.87 125.52 136.48 125.88 135.64 Z M 126.28 134.72 L 126.68 133.80 C 127.04 132.96 126.66 131.99 125.82 131.62 C 124.98 131.26 124.01 131.64 123.65 132.48 L 123.25 133.41 C 122.88 134.24 123.27 135.22 124.10 135.58 C 124.94 135.94 125.92 135.56 126.28 134.72 Z M 126.68 133.80 L 127.08 132.88 C 127.45 132.05 127.07 131.07 126.23 130.71 C 125.40 130.34 124.42 130.72 124.05 131.55 L 123.65 132.47 C 123.28 133.31 123.66 134.29 124.50 134.65 C 125.33 135.02 126.31 134.64 126.68 133.80 Z M 127.08 132.89 L 127.49 131.98 C 127.86 131.14 127.48 130.16 126.65 129.79 C 125.81 129.42 124.84 129.80 124.46 130.63 L 124.06 131.55 C 123.69 132.38 124.06 133.36 124.90 133.73 C 125.73 134.10 126.71 133.73 127.08 132.89 Z M 127.48 131.98 L 127.89 131.07 C 128.27 130.24 127.90 129.26 127.06 128.89 C 126.23 128.51 125.25 128.88 124.88 129.71 L 124.47 130.62 C 124.09 131.46 124.46 132.44 125.30 132.81 C 126.13 133.19 127.11 132.81 127.48 131.98 Z M 127.89 131.08 L 128.30 130.17 C 128.68 129.34 128.31 128.36 127.48 127.98 C 126.65 127.60 125.67 127.97 125.29 128.80 L 124.88 129.71 C 124.50 130.54 124.87 131.52 125.70 131.90 C 126.53 132.28 127.51 131.91 127.89 131.08 Z M 128.30 130.18 L 128.71 129.28 C 129.10 128.45 128.73 127.47 127.90 127.09 C 127.08 126.70 126.09 127.07 125.71 127.89 L 125.30 128.80 C 124.91 129.62 125.28 130.61 126.11 130.99 C 126.93 131.37 127.92 131.01 128.30 130.18 Z M 128.71 129.29 L 129.13 128.39 C 129.51 127.56 129.16 126.58 128.33 126.19 C 127.50 125.81 126.52 126.17 126.13 126.99 L 125.71 127.89 C 125.33 128.72 125.69 129.70 126.51 130.09 C 127.34 130.47 128.33 130.11 128.71 129.29 Z M 129.13 128.40 L 129.56 127.47 C 129.95 126.65 129.60 125.66 128.77 125.27 C 127.94 124.88 126.96 125.24 126.57 126.06 L 126.13 126.99 C 125.75 127.81 126.10 128.80 126.93 129.19 C 127.75 129.58 128.74 129.22 129.13 128.40 Z M 129.56 127.48 L 130.00 126.56 C 130.39 125.74 130.04 124.75 129.22 124.36 C 128.39 123.96 127.40 124.31 127.01 125.14 L 126.57 126.06 C 126.18 126.88 126.53 127.87 127.35 128.26 C 128.18 128.65 129.16 128.30 129.56 127.48 Z M 129.99 126.57 L 130.43 125.66 C 130.83 124.83 130.49 123.85 129.66 123.45 C 128.84 123.05 127.85 123.40 127.46 124.22 L 127.02 125.13 C 126.62 125.95 126.96 126.94 127.78 127.34 C 128.61 127.73 129.59 127.39 129.99 126.57 Z M 130.43 125.66 L 130.87 124.76 C 131.27 123.94 130.93 122.95 130.11 122.55 C 129.29 122.15 128.30 122.49 127.90 123.31 L 127.46 124.21 C 127.06 125.03 127.40 126.02 128.22 126.42 C 129.04 126.82 130.03 126.48 130.43 125.66 Z M 130.87 124.77 L 131.31 123.87 C 131.72 123.06 131.38 122.07 130.57 121.66 C 129.75 121.25 128.76 121.59 128.35 122.40 L 127.91 123.30 C 127.50 124.12 127.83 125.11 128.65 125.51 C 129.47 125.92 130.46 125.59 130.87 124.77 Z M 131.31 123.88 L 131.75 123.00 C 132.16 122.18 131.84 121.19 131.02 120.78 C 130.21 120.37 129.21 120.69 128.80 121.51 L 128.36 122.39 C 127.94 123.21 128.27 124.20 129.09 124.61 C 129.90 125.03 130.90 124.70 131.31 123.88 Z M 131.75 123.01 L 132.20 122.14 C 132.61 121.32 132.29 120.33 131.48 119.91 C 130.67 119.49 129.67 119.81 129.26 120.63 L 128.81 121.50 C 128.39 122.31 128.71 123.31 129.52 123.72 C 130.33 124.14 131.33 123.82 131.75 123.01 Z M 132.19 122.15 L 132.64 121.28 C 133.06 120.47 132.75 119.48 131.94 119.05 C 131.13 118.63 130.14 118.94 129.71 119.75 L 129.26 120.62 C 128.84 121.42 129.15 122.42 129.96 122.85 C 130.77 123.27 131.77 122.96 132.19 122.15 Z M 132.64 121.29 L 133.11 120.41 C 133.54 119.60 133.23 118.60 132.43 118.17 C 131.62 117.74 130.62 118.05 130.19 118.85 L 129.72 119.74 C 129.29 120.55 129.59 121.55 130.40 121.98 C 131.21 122.41 132.21 122.10 132.64 121.29 Z M 133.10 120.42 L 133.58 119.53 C 134.02 118.73 133.72 117.73 132.92 117.29 C 132.12 116.86 131.11 117.15 130.68 117.96 L 130.20 118.84 C 129.76 119.64 130.06 120.65 130.86 121.08 C 131.66 121.52 132.67 121.22 133.10 120.42 Z M 133.58 119.54 L 134.06 118.67 C 134.50 117.87 134.21 116.86 133.41 116.42 C 132.61 115.98 131.61 116.27 131.17 117.07 L 130.68 117.95 C 130.24 118.75 130.53 119.75 131.33 120.19 C 132.13 120.63 133.14 120.34 133.58 119.54 Z M 134.05 118.68 L 134.54 117.81 C 134.99 117.01 134.70 116.01 133.91 115.56 C 133.11 115.11 132.11 115.40 131.66 116.19 L 131.17 117.06 C 130.73 117.86 131.01 118.86 131.80 119.31 C 132.60 119.76 133.61 119.47 134.05 118.68 Z M 134.54 117.82 L 135.03 116.96 C 135.48 116.16 135.20 115.15 134.41 114.70 C 133.62 114.25 132.61 114.53 132.16 115.32 L 131.66 116.18 C 131.21 116.98 131.49 117.99 132.28 118.44 C 133.08 118.89 134.08 118.61 134.54 117.82 Z M 135.02 116.96 L 135.52 116.10 C 135.98 115.31 135.70 114.30 134.91 113.85 C 134.12 113.39 133.11 113.66 132.66 114.45 L 132.16 115.31 C 131.70 116.10 131.98 117.11 132.77 117.57 C 133.56 118.02 134.57 117.75 135.02 116.96 Z M 135.52 116.11 L 136.02 115.25 C 136.48 114.46 136.21 113.45 135.42 112.99 C 134.63 112.53 133.62 112.79 133.16 113.58 L 132.66 114.44 C 132.20 115.23 132.47 116.24 133.26 116.70 C 134.04 117.16 135.06 116.90 135.52 116.11 Z M 136.01 115.25 L 136.53 114.38 C 136.99 113.60 136.73 112.58 135.94 112.12 C 135.15 111.66 134.14 111.92 133.68 112.71 L 133.17 113.58 C 132.70 114.36 132.97 115.38 133.75 115.84 C 134.54 116.30 135.55 116.04 136.01 115.25 Z M 136.52 114.39 L 137.05 113.50 C 137.52 112.71 137.26 111.70 136.47 111.23 C 135.69 110.77 134.68 111.03 134.21 111.81 L 133.68 112.70 C 133.22 113.49 133.48 114.50 134.26 114.96 C 135.04 115.43 136.06 115.17 136.52 114.39 Z M 137.05 113.50 L 137.58 112.61 C 138.05 111.83 137.79 110.82 137.01 110.35 C 136.23 109.88 135.22 110.14 134.75 110.92 L 134.22 111.81 C 133.75 112.59 134.00 113.60 134.78 114.07 C 135.56 114.54 136.58 114.28 137.05 113.50 Z M 137.57 112.62 L 138.11 111.74 C 138.58 110.96 138.33 109.95 137.55 109.48 C 136.77 109.00 135.76 109.25 135.29 110.03 L 134.75 110.91 C 134.28 111.69 134.53 112.70 135.31 113.17 C 136.09 113.65 137.10 113.40 137.57 112.62 Z M 138.10 111.75 L 138.63 110.88 C 139.11 110.11 138.86 109.09 138.09 108.62 C 137.31 108.14 136.30 108.38 135.83 109.16 L 135.29 110.02 C 134.82 110.80 135.06 111.81 135.84 112.29 C 136.61 112.76 137.62 112.52 138.10 111.75 Z M 138.62 110.89 L 139.15 110.05 C 139.63 109.27 139.40 108.26 138.62 107.78 C 137.85 107.30 136.84 107.53 136.36 108.30 L 135.83 109.15 C 135.35 109.92 135.59 110.94 136.36 111.42 C 137.13 111.90 138.14 111.66 138.62 110.89 Z M 139.14 110.06 L 139.66 109.24 C 140.15 108.47 139.92 107.46 139.15 106.97 C 138.39 106.48 137.37 106.71 136.89 107.48 L 136.37 108.29 C 135.88 109.06 136.11 110.08 136.87 110.56 C 137.64 111.05 138.66 110.82 139.14 110.06 Z M 139.65 109.25 L 140.16 108.46 C 140.65 107.70 140.44 106.69 139.67 106.19 C 138.91 105.70 137.90 105.92 137.40 106.68 L 136.89 107.46 C 136.40 108.23 136.62 109.24 137.38 109.74 C 138.14 110.23 139.16 110.01 139.65 109.25 Z M 140.15 108.48 L 140.74 107.59 C 141.24 106.83 141.04 105.82 140.28 105.31 C 139.53 104.81 138.51 105.02 138.01 105.77 L 137.41 106.66 C 136.91 107.42 137.12 108.44 137.87 108.94 C 138.63 109.44 139.65 109.24 140.15 108.48 Z M 140.73 107.61 L 141.33 106.73 C 141.85 105.98 141.66 104.95 140.91 104.44 C 140.16 103.93 139.14 104.12 138.62 104.87 L 138.02 105.75 C 137.50 106.50 137.70 107.52 138.44 108.04 C 139.19 108.55 140.22 108.36 140.73 107.61 Z M 141.32 106.75 L 141.91 105.91 C 142.43 105.17 142.26 104.15 141.52 103.62 C 140.77 103.10 139.75 103.27 139.22 104.02 L 138.64 104.85 C 138.11 105.59 138.29 106.62 139.03 107.14 C 139.77 107.66 140.80 107.49 141.32 106.75 Z M 141.90 105.93 L 142.47 105.14 C 143.01 104.41 142.85 103.38 142.11 102.84 C 141.38 102.31 140.35 102.47 139.81 103.21 L 139.24 104.00 C 138.70 104.73 138.86 105.76 139.60 106.30 C 140.33 106.83 141.36 106.67 141.90 105.93 Z M 142.46 105.16 L 143.02 104.41 C 143.57 103.68 143.42 102.65 142.69 102.10 C 141.96 101.56 140.93 101.71 140.38 102.44 L 139.82 103.19 C 139.28 103.92 139.42 104.95 140.15 105.50 C 140.88 106.04 141.92 105.89 142.46 105.16 Z M 143.01 104.43 L 143.57 103.70 C 144.12 102.98 143.99 101.94 143.26 101.39 C 142.54 100.83 141.51 100.97 140.95 101.69 L 140.40 102.42 C 139.84 103.14 139.98 104.18 140.70 104.73 C 141.42 105.29 142.46 105.15 143.01 104.43 Z M 143.56 103.72 L 144.20 102.91 C 144.76 102.19 144.63 101.15 143.92 100.59 C 143.20 100.03 142.16 100.15 141.60 100.87 L 140.96 101.68 C 140.40 102.40 140.52 103.43 141.24 104.00 C 141.96 104.56 143.00 104.43 143.56 103.72 Z M 144.18 102.92 L 144.83 102.12 C 145.40 101.41 145.29 100.37 144.57 99.80 C 143.86 99.23 142.82 99.34 142.25 100.05 L 141.61 100.85 C 141.04 101.56 141.15 102.60 141.86 103.18 C 142.57 103.75 143.61 103.63 144.18 102.92 Z M 144.81 102.14 L 145.45 101.36 C 146.03 100.66 145.93 99.62 145.23 99.04 C 144.52 98.46 143.48 98.56 142.90 99.26 L 142.26 100.04 C 141.68 100.74 141.78 101.78 142.49 102.36 C 143.19 102.94 144.23 102.84 144.81 102.14 Z M 145.44 101.38 L 146.07 100.63 C 146.66 99.94 146.58 98.89 145.88 98.30 C 145.18 97.72 144.14 97.80 143.55 98.50 L 142.92 99.25 C 142.33 99.94 142.41 100.99 143.11 101.58 C 143.81 102.17 144.85 102.08 145.44 101.38 Z M 146.06 100.65 L 146.68 99.93 C 147.28 99.24 147.21 98.20 146.52 97.60 C 145.83 97.00 144.79 97.07 144.19 97.76 L 143.56 98.48 C 142.96 99.17 143.04 100.21 143.72 100.81 C 144.41 101.41 145.46 101.34 146.06 100.65 Z M 146.67 99.95 L 147.37 99.17 C 147.98 98.49 147.92 97.45 147.24 96.84 C 146.56 96.23 145.52 96.28 144.90 96.96 L 144.21 97.74 C 143.60 98.42 143.65 99.47 144.33 100.08 C 145.01 100.69 146.06 100.63 146.67 99.95 Z M 147.35 99.20 L 148.05 98.44 C 148.67 97.77 148.63 96.73 147.96 96.10 C 147.29 95.48 146.25 95.52 145.62 96.19 L 144.92 96.94 C 144.30 97.61 144.34 98.66 145.01 99.28 C 145.68 99.90 146.73 99.86 147.35 99.20 Z M 148.03 98.46 L 148.72 97.75 C 149.35 97.09 149.33 96.04 148.68 95.41 C 148.02 94.77 146.97 94.79 146.34 95.45 L 145.65 96.17 C 145.01 96.82 145.03 97.87 145.69 98.51 C 146.35 99.14 147.39 99.12 148.03 98.46 Z M 148.70 97.77 L 149.37 97.09 C 150.02 96.45 150.02 95.40 149.38 94.75 C 148.73 94.11 147.69 94.10 147.04 94.75 L 146.36 95.43 C 145.71 96.07 145.71 97.12 146.35 97.77 C 147.00 98.41 148.05 98.42 148.70 97.77 Z M 149.35 97.12 L 150.07 96.43 C 150.73 95.80 150.76 94.75 150.13 94.09 C 149.50 93.43 148.45 93.40 147.79 94.03 L 147.06 94.72 C 146.40 95.35 146.38 96.40 147.01 97.06 C 147.64 97.72 148.69 97.75 149.35 97.12 Z M 150.04 96.46 L 150.81 95.76 C 151.49 95.15 151.54 94.11 150.93 93.43 C 150.32 92.75 149.28 92.70 148.60 93.31 L 147.83 94.00 C 147.15 94.61 147.09 95.66 147.70 96.34 C 148.31 97.01 149.36 97.07 150.04 96.46 Z M 150.76 95.80 L 151.52 95.16 C 152.22 94.58 152.31 93.54 151.73 92.84 C 151.14 92.14 150.10 92.05 149.40 92.64 L 148.64 93.27 C 147.94 93.86 147.85 94.90 148.44 95.60 C 149.02 96.29 150.06 96.39 150.76 95.80 Z M 151.47 95.21 L 152.22 94.63 C 152.94 94.07 153.08 93.04 152.52 92.32 C 151.97 91.60 150.93 91.46 150.21 92.02 L 149.46 92.59 C 148.74 93.15 148.60 94.18 149.16 94.90 C 149.71 95.62 150.74 95.76 151.47 95.21 Z M 152.15 94.68 L 152.90 94.16 C 153.65 93.64 153.84 92.62 153.32 91.87 C 152.81 91.12 151.78 90.93 151.03 91.45 L 150.28 91.97 C 149.53 92.48 149.34 93.51 149.86 94.25 C 150.37 95.00 151.40 95.19 152.15 94.68 Z M 152.79 94.23 L 153.59 93.77 C 154.38 93.31 154.65 92.30 154.19 91.51 C 153.74 90.73 152.73 90.46 151.94 90.91 L 151.14 91.38 C 150.35 91.83 150.09 92.84 150.54 93.63 C 151.00 94.42 152.01 94.69 152.79 94.23 Z M 153.45 93.84 L 154.37 93.43 C 155.20 93.05 155.56 92.07 155.18 91.24 C 154.81 90.41 153.83 90.05 153.00 90.42 L 152.09 90.84 C 151.26 91.22 150.89 92.19 151.27 93.02 C 151.64 93.85 152.62 94.22 153.45 93.84 Z M 154.22 93.49 L 155.29 93.12 C 156.16 92.83 156.62 91.89 156.32 91.02 C 156.03 90.16 155.09 89.70 154.22 89.99 L 153.15 90.36 C 152.28 90.66 151.82 91.60 152.12 92.46 C 152.41 93.32 153.35 93.78 154.22 93.49 Z M 155.18 93.16 L 156.10 92.91 C 156.99 92.68 157.51 91.77 157.28 90.89 C 157.05 90.01 156.14 89.48 155.26 89.71 L 154.33 89.96 C 153.45 90.19 152.92 91.10 153.16 91.98 C 153.39 92.86 154.30 93.39 155.18 93.16 Z M 156.02 92.93 L 157.03 92.72 C 157.92 92.53 158.49 91.65 158.30 90.76 C 158.11 89.86 157.23 89.29 156.34 89.48 L 155.34 89.69 C 154.45 89.88 153.87 90.76 154.06 91.66 C 154.25 92.55 155.13 93.12 156.02 92.93 Z M 156.95 92.73 L 157.98 92.56 C 158.88 92.42 159.50 91.57 159.35 90.67 C 159.20 89.76 158.35 89.15 157.45 89.30 L 156.42 89.47 C 155.52 89.61 154.90 90.46 155.05 91.37 C 155.20 92.27 156.05 92.88 156.95 92.73 Z M 157.90 92.58 L 158.92 92.46 C 159.82 92.36 160.48 91.55 160.38 90.64 C 160.28 89.73 159.46 89.08 158.55 89.18 L 157.54 89.29 C 156.63 89.39 155.97 90.21 156.07 91.11 C 156.17 92.02 156.99 92.68 157.90 92.58 Z M 158.81 92.47 L 159.77 92.43 C 160.68 92.38 161.39 91.61 161.35 90.70 C 161.30 89.79 160.53 89.08 159.62 89.12 L 158.66 89.17 C 157.75 89.21 157.04 89.98 157.08 90.90 C 157.13 91.81 157.90 92.51 158.81 92.47 Z M 159.61 92.43 L 160.71 92.48 C 161.62 92.53 162.40 91.83 162.45 90.92 C 162.49 90.01 161.79 89.23 160.88 89.18 L 159.78 89.12 C 158.87 89.08 158.09 89.78 158.04 90.69 C 158.00 91.60 158.70 92.38 159.61 92.43 Z M 160.48 92.45 L 161.46 92.64 C 162.36 92.82 163.23 92.23 163.40 91.33 C 163.57 90.44 162.99 89.57 162.09 89.40 L 161.11 89.21 C 160.21 89.04 159.35 89.62 159.17 90.52 C 159.00 91.42 159.59 92.28 160.48 92.45 Z M 161.23 92.58 L 162.12 92.89 C 162.98 93.19 163.92 92.74 164.22 91.88 C 164.52 91.02 164.07 90.07 163.21 89.77 L 162.32 89.46 C 161.46 89.16 160.52 89.62 160.22 90.48 C 159.92 91.34 160.37 92.28 161.23 92.58 Z M 161.93 92.81 L 162.78 93.23 C 163.59 93.63 164.58 93.30 164.99 92.48 C 165.39 91.66 165.06 90.68 164.24 90.27 L 163.40 89.85 C 162.58 89.45 161.59 89.78 161.19 90.60 C 160.78 91.42 161.12 92.41 161.93 92.81 Z M 162.65 93.16 L 163.44 93.64 C 164.22 94.11 165.24 93.87 165.71 93.09 C 166.18 92.31 165.94 91.29 165.16 90.82 L 164.36 90.34 C 163.59 89.87 162.57 90.11 162.10 90.89 C 161.63 91.67 161.87 92.69 162.65 93.16 Z M 163.35 93.58 L 164.15 94.14 C 164.90 94.67 165.93 94.49 166.45 93.74 C 166.98 93.00 166.80 91.97 166.05 91.44 L 165.25 90.88 C 164.51 90.35 163.47 90.53 162.95 91.28 C 162.42 92.03 162.60 93.06 163.35 93.58 Z M 164.07 94.09 L 164.87 94.73 C 165.59 95.30 166.63 95.17 167.20 94.46 C 167.77 93.74 167.65 92.70 166.93 92.13 L 166.13 91.49 C 165.41 90.93 164.37 91.05 163.80 91.76 C 163.23 92.48 163.35 93.52 164.07 94.09 Z M 164.81 94.68 L 165.61 95.38 C 166.30 95.99 167.35 95.92 167.96 95.23 C 168.56 94.54 168.49 93.49 167.80 92.88 L 167.00 92.18 C 166.31 91.58 165.26 91.65 164.65 92.34 C 164.05 93.03 164.12 94.07 164.81 94.68 Z M 165.56 95.34 L 166.25 95.99 C 166.92 96.62 167.97 96.60 168.60 95.93 C 169.23 95.26 169.21 94.21 168.54 93.58 L 167.85 92.93 C 167.19 92.30 166.13 92.32 165.50 92.99 C 164.87 93.66 164.90 94.71 165.56 95.34 Z M 166.21 95.95 L 166.89 96.64 C 167.54 97.30 168.59 97.31 169.25 96.66 C 169.90 96.01 169.91 94.96 169.26 94.31 L 168.58 93.62 C 167.93 92.97 166.88 92.96 166.23 93.60 C 165.57 94.25 165.57 95.30 166.21 95.95 Z M 166.86 96.61 L 167.54 97.34 C 168.17 98.01 169.22 98.05 169.89 97.43 C 170.56 96.80 170.60 95.75 169.98 95.08 L 169.30 94.34 C 168.67 93.67 167.62 93.63 166.94 94.26 C 166.27 94.88 166.23 95.94 166.86 96.61 Z M 167.51 97.31 L 168.19 98.08 C 168.80 98.77 169.85 98.84 170.54 98.23 C 171.23 97.63 171.30 96.57 170.69 95.88 L 170.01 95.11 C 169.40 94.42 168.35 94.35 167.66 94.96 C 166.97 95.57 166.90 96.62 167.51 97.31 Z M 168.16 98.05 L 168.84 98.86 C 169.43 99.56 170.48 99.66 171.18 99.07 C 171.89 98.48 171.98 97.43 171.39 96.72 L 170.72 95.91 C 170.13 95.21 169.08 95.12 168.37 95.71 C 167.67 96.30 167.57 97.35 168.16 98.05 Z M 168.81 98.83 L 169.40 99.56 C 169.97 100.28 171.02 100.39 171.74 99.82 C 172.46 99.24 172.57 98.20 172.00 97.48 L 171.42 96.75 C 170.84 96.03 169.79 95.91 169.07 96.49 C 168.35 97.06 168.24 98.11 168.81 98.83 Z M 169.38 99.53 L 169.96 100.30 C 170.52 101.03 171.57 101.16 172.30 100.60 C 173.03 100.04 173.17 99.00 172.61 98.27 L 172.02 97.50 C 171.46 96.77 170.41 96.64 169.68 97.20 C 168.95 97.76 168.82 98.80 169.38 99.53 Z M 169.94 100.27 L 170.52 101.06 C 171.07 101.81 172.11 101.97 172.85 101.42 C 173.60 100.88 173.76 99.83 173.21 99.09 L 172.63 98.29 C 172.08 97.55 171.04 97.39 170.30 97.94 C 169.55 98.48 169.39 99.52 169.94 100.27 Z M 170.50 101.04 L 171.08 101.87 C 171.61 102.63 172.65 102.81 173.41 102.28 C 174.16 101.75 174.35 100.71 173.82 99.96 L 173.23 99.12 C 172.71 98.37 171.67 98.18 170.91 98.71 C 170.16 99.24 169.97 100.28 170.50 101.04 Z M 171.06 101.84 L 171.65 102.72 C 172.16 103.48 173.20 103.69 173.96 103.18 C 174.73 102.67 174.94 101.63 174.43 100.86 L 173.84 99.99 C 173.33 99.22 172.29 99.01 171.52 99.52 C 170.76 100.04 170.55 101.07 171.06 101.84 Z M 171.63 102.69 L 172.18 103.55 C 172.67 104.33 173.71 104.56 174.48 104.06 C 175.26 103.57 175.49 102.54 175.00 101.76 L 174.45 100.89 C 173.95 100.11 172.92 99.88 172.14 100.38 C 171.36 100.88 171.13 101.91 171.63 102.69 Z M 172.16 103.52 L 172.66 104.34 C 173.14 105.13 174.17 105.38 174.96 104.90 C 175.74 104.42 175.99 103.39 175.51 102.61 L 175.01 101.79 C 174.53 101.00 173.51 100.75 172.72 101.23 C 171.93 101.71 171.68 102.74 172.16 103.52 Z M 172.64 104.32 L 173.14 105.16 C 173.60 105.96 174.62 106.23 175.42 105.77 C 176.22 105.30 176.49 104.28 176.02 103.49 L 175.53 102.64 C 175.07 101.84 174.04 101.57 173.25 102.03 C 172.45 102.50 172.18 103.52 172.64 104.32 Z M 173.12 105.13 L 173.61 106.01 C 174.06 106.82 175.07 107.11 175.88 106.66 C 176.68 106.21 176.97 105.20 176.53 104.39 L 176.04 103.52 C 175.59 102.71 174.58 102.42 173.77 102.87 C 172.97 103.31 172.68 104.33 173.12 105.13 Z M 173.59 105.98 L 174.07 106.88 C 174.50 107.69 175.50 108.00 176.32 107.57 C 177.13 107.14 177.45 106.14 177.02 105.32 L 176.54 104.42 C 176.11 103.61 175.10 103.30 174.29 103.73 C 173.48 104.15 173.16 105.16 173.59 105.98 Z M 174.05 106.84 L 174.51 107.76 C 174.92 108.58 175.92 108.92 176.74 108.51 C 177.57 108.10 177.90 107.10 177.49 106.27 L 177.03 105.35 C 176.62 104.53 175.62 104.20 174.80 104.61 C 173.97 105.02 173.64 106.02 174.05 106.84 Z M 174.49 107.72 L 174.93 108.66 C 175.32 109.49 176.31 109.85 177.14 109.46 C 177.98 109.07 178.33 108.07 177.94 107.24 L 177.51 106.31 C 177.12 105.47 176.12 105.12 175.29 105.51 C 174.46 105.90 174.10 106.89 174.49 107.72 Z M 174.91 108.62 L 175.30 109.51 C 175.67 110.36 176.66 110.74 177.50 110.37 C 178.34 110.00 178.72 109.02 178.36 108.18 L 177.96 107.28 C 177.59 106.44 176.61 106.05 175.77 106.42 C 174.92 106.79 174.54 107.77 174.91 108.62 Z M 175.29 109.48 L 175.65 110.37 C 176.00 111.23 176.98 111.63 177.83 111.29 C 178.68 110.94 179.09 109.96 178.74 109.11 L 178.37 108.21 C 178.02 107.36 177.05 106.95 176.20 107.30 C 175.34 107.65 174.94 108.63 175.29 109.48 Z M 175.64 110.34 L 175.98 111.25 C 176.31 112.11 177.28 112.54 178.14 112.21 C 179.00 111.88 179.44 110.92 179.11 110.06 L 178.76 109.15 C 178.43 108.28 177.46 107.85 176.60 108.18 C 175.74 108.51 175.31 109.48 175.64 110.34 Z M 175.97 111.22 L 176.30 112.15 C 176.61 113.02 177.57 113.47 178.44 113.16 C 179.31 112.85 179.76 111.89 179.45 111.02 L 179.12 110.09 C 178.81 109.22 177.85 108.77 176.98 109.08 C 176.11 109.39 175.66 110.35 175.97 111.22 Z M 176.29 112.11 L 176.60 113.07 C 176.90 113.94 177.84 114.42 178.72 114.13 C 179.60 113.84 180.07 112.89 179.78 112.01 L 179.47 111.06 C 179.18 110.18 178.23 109.70 177.35 110.00 C 176.47 110.29 176.00 111.24 176.29 112.11 Z M 176.59 113.03 L 176.89 114.01 C 177.17 114.90 178.11 115.39 178.99 115.12 C 179.88 114.84 180.37 113.91 180.10 113.02 L 179.80 112.04 C 179.52 111.16 178.58 110.66 177.70 110.94 C 176.81 111.21 176.32 112.15 176.59 113.03 Z M 176.88 113.98 L 177.17 114.99 C 177.43 115.88 178.36 116.39 179.25 116.14 C 180.14 115.88 180.66 114.95 180.40 114.06 L 180.11 113.05 C 179.85 112.16 178.92 111.65 178.03 111.90 C 177.14 112.16 176.63 113.09 176.88 113.98 Z M 177.16 114.96 L 177.42 115.90 C 177.66 116.80 178.58 117.33 179.48 117.08 C 180.37 116.84 180.90 115.92 180.66 115.02 L 180.41 114.08 C 180.17 113.19 179.24 112.66 178.35 112.90 C 177.45 113.14 176.92 114.06 177.16 114.96 Z M 177.41 115.88 L 177.64 116.80 C 177.87 117.70 178.79 118.24 179.69 118.02 C 180.59 117.79 181.13 116.87 180.90 115.97 L 180.67 115.05 C 180.44 114.15 179.53 113.60 178.63 113.83 C 177.73 114.06 177.18 114.98 177.41 115.88 Z M 177.64 116.78 L 177.86 117.72 C 178.08 118.63 178.99 119.18 179.89 118.97 C 180.80 118.75 181.35 117.84 181.14 116.94 L 180.91 115.99 C 180.69 115.09 179.78 114.53 178.88 114.75 C 177.98 114.97 177.42 115.87 177.64 116.78 Z M 177.86 117.70 L 178.08 118.67 C 178.28 119.57 179.18 120.14 180.09 119.94 C 181.00 119.73 181.57 118.83 181.36 117.92 L 181.14 116.96 C 180.94 116.05 180.03 115.48 179.13 115.69 C 178.22 115.89 177.65 116.80 177.86 117.70 Z M 178.07 118.65 L 178.28 119.63 C 178.48 120.54 179.37 121.12 180.28 120.92 C 181.19 120.73 181.77 119.83 181.58 118.93 L 181.36 117.94 C 181.17 117.03 180.28 116.45 179.37 116.65 C 178.46 116.84 177.88 117.74 178.07 118.65 Z M 178.28 119.61 L 178.48 120.61 C 178.67 121.52 179.56 122.11 180.47 121.93 C 181.38 121.74 181.97 120.86 181.78 119.94 L 181.58 118.94 C 181.40 118.03 180.51 117.44 179.60 117.63 C 178.68 117.81 178.10 118.70 178.28 119.61 Z M 178.48 120.60 L 178.67 121.61 C 178.85 122.52 179.73 123.12 180.64 122.95 C 181.56 122.77 182.16 121.89 181.98 120.98 L 181.79 119.96 C 181.61 119.05 180.73 118.45 179.82 118.62 C 178.90 118.80 178.30 119.68 178.48 120.60 Z M 178.67 121.59 L 178.86 122.62 C 179.02 123.54 179.90 124.15 180.81 123.98 C 181.73 123.82 182.34 122.94 182.17 122.02 L 181.98 120.99 C 181.82 120.08 180.94 119.47 180.03 119.64 C 179.11 119.80 178.50 120.68 178.67 121.59 Z M 178.85 122.61 L 179.02 123.60 C 179.18 124.52 180.05 125.14 180.97 124.98 C 181.89 124.82 182.50 123.95 182.34 123.03 L 182.17 122.04 C 182.02 121.12 181.15 120.51 180.23 120.66 C 179.31 120.82 178.70 121.69 178.85 122.61 Z M 179.02 123.59 L 179.18 124.55 C 179.33 125.47 180.19 126.09 181.11 125.94 C 182.03 125.80 182.65 124.93 182.50 124.01 L 182.35 123.05 C 182.20 122.13 181.33 121.50 180.41 121.65 C 179.49 121.80 178.87 122.67 179.02 123.59 Z M 179.17 124.54 L 179.33 125.51 C 179.47 126.43 180.33 127.06 181.25 126.92 C 182.17 126.78 182.80 125.92 182.66 125.00 L 182.51 124.02 C 182.36 123.10 181.50 122.47 180.58 122.62 C 179.66 122.76 179.03 123.62 179.17 124.54 Z M 179.32 125.50 L 179.47 126.48 C 179.60 127.40 180.46 128.04 181.38 127.90 C 182.30 127.77 182.94 126.91 182.80 125.99 L 182.66 125.01 C 182.52 124.09 181.67 123.45 180.75 123.59 C 179.83 123.72 179.19 124.58 179.32 125.50 Z M 179.46 126.47 L 179.60 127.46 C 179.73 128.38 180.58 129.02 181.50 128.90 C 182.42 128.77 183.07 127.92 182.94 126.99 L 182.80 126.01 C 182.68 125.08 181.83 124.44 180.90 124.57 C 179.98 124.69 179.34 125.54 179.46 126.47 Z M 179.60 127.44 L 179.73 128.44 C 179.85 129.36 180.70 130.02 181.62 129.89 C 182.54 129.77 183.19 128.93 183.07 128.00 L 182.94 127.01 C 182.82 126.08 181.98 125.43 181.05 125.55 C 180.13 125.67 179.48 126.52 179.60 127.44 Z M 179.73 128.43 L 179.85 129.43 C 179.96 130.36 180.81 131.01 181.73 130.90 C 182.65 130.79 183.31 129.95 183.20 129.02 L 183.08 128.02 C 182.96 127.09 182.12 126.43 181.20 126.55 C 180.27 126.66 179.61 127.50 179.73 128.43 Z M 179.85 129.42 L 179.97 130.43 C 180.07 131.36 180.91 132.02 181.83 131.91 C 182.76 131.81 183.42 130.97 183.32 130.04 L 183.20 129.03 C 183.09 128.11 182.26 127.44 181.33 127.55 C 180.41 127.66 179.74 128.49 179.85 129.42 Z M 179.96 130.42 L 180.07 131.43 C 180.17 132.36 181.01 133.03 181.93 132.93 C 182.86 132.83 183.53 132.00 183.43 131.07 L 183.32 130.06 C 183.22 129.13 182.39 128.46 181.46 128.56 C 180.53 128.66 179.86 129.49 179.96 130.42 Z M 180.07 131.42 L 180.17 132.42 C 180.27 133.35 181.09 134.02 182.02 133.93 C 182.95 133.83 183.62 133.01 183.53 132.08 L 183.43 131.08 C 183.34 130.16 182.51 129.48 181.58 129.57 C 180.65 129.67 179.98 130.50 180.07 131.42 Z M 180.17 132.41 L 180.26 133.39 C 180.35 134.32 181.18 135.00 182.10 134.91 C 183.03 134.83 183.71 134.00 183.62 133.08 L 183.53 132.09 C 183.44 131.16 182.62 130.48 181.69 130.57 C 180.77 130.66 180.08 131.48 180.17 132.41 Z M 180.26 133.38 L 180.35 134.37 C 180.43 135.30 181.25 135.99 182.18 135.90 C 183.11 135.82 183.79 135.00 183.71 134.08 L 183.63 133.09 C 183.54 132.16 182.73 131.47 181.80 131.55 C 180.87 131.63 180.18 132.45 180.26 133.38 Z M 180.35 134.36 L 180.43 135.35 C 180.51 136.28 181.32 136.97 182.25 136.90 C 183.18 136.82 183.87 136.01 183.79 135.08 L 183.71 134.09 C 183.64 133.16 182.82 132.47 181.90 132.54 C 180.97 132.62 180.27 133.43 180.35 134.36 Z M 180.43 135.34 L 180.50 136.34 C 180.57 137.27 181.38 137.97 182.31 137.90 C 183.24 137.83 183.94 137.02 183.87 136.09 L 183.80 135.09 C 183.73 134.16 182.92 133.46 181.99 133.53 C 181.06 133.60 180.36 134.41 180.43 135.34 Z M 180.50 136.33 L 180.57 137.33 C 180.64 138.26 181.44 138.96 182.37 138.90 C 183.30 138.83 184.00 138.03 183.94 137.10 L 183.87 136.10 C 183.81 135.17 183.00 134.47 182.07 134.53 C 181.14 134.59 180.44 135.40 180.50 136.33 Z M 180.57 137.32 L 180.63 138.32 C 180.69 139.25 181.49 139.96 182.42 139.90 C 183.35 139.84 184.06 139.04 184.00 138.11 L 183.94 137.11 C 183.88 136.18 183.08 135.47 182.15 135.53 C 181.22 135.59 180.51 136.39 180.57 137.32 Z M 180.63 138.31 L 180.69 139.32 C 180.74 140.25 181.54 140.96 182.47 140.91 C 183.40 140.85 184.11 140.06 184.06 139.13 L 184.00 138.12 C 183.95 137.19 183.15 136.48 182.22 136.53 C 181.29 136.58 180.58 137.38 180.63 138.31 Z M 180.69 139.31 L 180.74 140.31 C 180.78 141.24 181.58 141.96 182.51 141.91 C 183.44 141.87 184.15 141.08 184.11 140.15 L 184.06 139.14 C 184.01 138.21 183.22 137.49 182.29 137.54 C 181.36 137.58 180.64 138.37 180.69 139.31 Z M 180.74 140.30 L 180.78 141.30 C 180.82 142.23 181.61 142.95 182.54 142.91 C 183.47 142.87 184.19 142.08 184.15 141.15 L 184.11 140.16 C 184.07 139.23 183.28 138.50 182.35 138.54 C 181.42 138.58 180.70 139.37 180.74 140.30 Z M 180.78 141.29 L 180.82 142.26 C 180.85 143.19 181.63 143.92 182.57 143.88 C 183.50 143.85 184.22 143.07 184.19 142.13 L 184.15 141.16 C 184.12 140.23 183.33 139.50 182.40 139.54 C 181.47 139.57 180.75 140.36 180.78 141.29 Z M 180.82 142.25 L 180.85 143.23 C 180.88 144.16 181.66 144.89 182.59 144.86 C 183.52 144.83 184.25 144.05 184.22 143.12 L 184.19 142.14 C 184.16 141.21 183.38 140.48 182.45 140.51 C 181.52 140.54 180.79 141.32 180.82 142.25 Z M 180.85 143.22 L 180.87 144.20 C 180.90 145.14 181.67 145.87 182.61 145.85 C 183.54 145.82 184.28 145.04 184.25 144.11 L 184.22 143.13 C 184.20 142.20 183.42 141.46 182.49 141.49 C 181.56 141.51 180.82 142.29 180.85 143.22 Z M 180.87 144.20 L 180.89 145.18 C 180.92 146.12 181.69 146.86 182.62 146.84 C 183.56 146.81 184.29 146.04 184.27 145.11 L 184.25 144.12 C 184.23 143.19 183.46 142.45 182.52 142.47 C 181.59 142.49 180.85 143.26 180.87 144.20 Z M 180.89 145.18 L 180.91 146.17 C 180.93 147.11 181.70 147.85 182.63 147.83 C 183.57 147.81 184.31 147.04 184.29 146.11 L 184.27 145.11 C 184.26 144.18 183.49 143.44 182.55 143.45 C 181.62 143.47 180.88 144.24 180.89 145.18 Z M 180.91 146.17 L 180.93 147.17 C 180.94 148.10 181.71 148.85 182.64 148.84 C 183.58 148.82 184.32 148.05 184.31 147.12 L 184.29 146.11 C 184.28 145.18 183.51 144.43 182.58 144.45 C 181.64 144.46 180.90 145.23 180.91 146.17 Z M 180.93 147.17 L 180.94 148.18 C 180.95 149.11 181.72 149.86 182.65 149.85 C 183.59 149.84 184.33 149.07 184.32 148.14 L 184.31 147.12 C 184.30 146.19 183.53 145.44 182.60 145.45 C 181.66 145.46 180.91 146.23 180.93 147.17 Z M 180.94 148.17 L 180.95 149.20 C 180.96 150.14 181.72 150.89 182.66 150.88 C 183.59 150.87 184.34 150.10 184.33 149.17 L 184.32 148.14 C 184.31 147.21 183.55 146.46 182.61 146.46 C 181.68 146.47 180.93 147.24 180.94 148.17 Z M 180.95 149.20 L 180.95 150.23 C 180.96 151.17 181.73 151.92 182.66 151.92 C 183.60 151.91 184.35 151.14 184.34 150.21 L 184.34 149.17 C 184.33 148.23 183.56 147.48 182.63 147.49 C 181.69 147.50 180.94 148.26 180.95 149.20 Z M 180.95 150.23 L 180.96 151.23 C 180.97 152.16 181.73 152.92 182.67 152.91 C 183.60 152.91 184.36 152.14 184.35 151.21 L 184.34 150.21 C 184.34 149.27 183.57 148.52 182.64 148.53 C 181.70 148.53 180.95 149.30 180.95 150.23 Z M 180.96 151.23 L 180.97 152.22 C 180.97 153.15 181.73 153.91 182.67 153.90 C 183.60 153.90 184.36 153.14 184.35 152.20 L 184.35 151.21 C 184.34 150.27 183.58 149.52 182.65 149.52 C 181.71 149.53 180.96 150.29 180.96 151.23 Z M 180.97 152.21 L 180.97 153.21 C 180.97 154.15 181.73 154.90 182.67 154.90 C 183.61 154.90 184.36 154.14 184.36 153.20 L 184.35 152.20 C 184.35 151.27 183.59 150.51 182.65 150.51 C 181.72 150.52 180.96 151.28 180.97 152.21 Z M 180.97 153.21 L 180.97 154.22 C 180.97 155.15 181.73 155.91 182.67 155.90 C 183.61 155.90 184.36 155.14 184.36 154.21 L 184.36 153.20 C 184.36 152.27 183.59 151.51 182.66 151.51 C 181.72 151.51 180.97 152.27 180.97 153.21 Z M 180.97 154.21 L 180.97 155.22 C 180.97 156.16 181.73 156.91 182.67 156.91 C 183.60 156.91 184.36 156.15 184.36 155.22 L 184.36 154.21 C 184.36 153.27 183.60 152.52 182.66 152.52 C 181.73 152.52 180.97 153.28 180.97 154.21 Z M 180.97 155.22 L 180.97 156.23 C 180.97 157.16 181.73 157.92 182.67 157.92 C 183.60 157.92 184.36 157.17 184.36 156.23 L 184.36 155.22 C 184.36 154.28 183.60 153.53 182.67 153.53 C 181.73 153.53 180.97 154.28 180.97 155.22 Z M 180.97 156.23 L 180.97 157.24 C 180.97 158.17 181.73 158.93 182.66 158.93 C 183.60 158.93 184.36 158.18 184.36 157.24 L 184.36 156.23 C 184.36 155.30 183.60 154.54 182.67 154.54 C 181.73 154.54 180.98 155.29 180.97 156.23 Z M 180.97 157.23 L 180.97 158.24 C 180.97 159.18 181.72 159.94 182.66 159.94 C 183.59 159.94 184.35 159.18 184.36 158.25 L 184.36 157.24 C 184.36 156.31 183.60 155.55 182.67 155.55 C 181.74 155.54 180.98 156.30 180.97 157.23 Z M 180.97 158.24 L 180.97 159.24 C 180.96 160.17 181.72 160.93 182.65 160.94 C 183.59 160.94 184.35 160.19 184.35 159.25 L 184.35 158.25 C 184.36 157.32 183.60 156.56 182.67 156.55 C 181.73 156.55 180.97 157.30 180.97 158.24 Z M 180.97 159.24 L 180.96 160.23 C 180.96 161.17 181.71 161.93 182.65 161.93 C 183.58 161.94 184.34 161.18 184.35 160.25 L 184.35 159.26 C 184.36 158.32 183.60 157.56 182.67 157.55 C 181.73 157.55 180.97 158.30 180.97 159.24 Z M 180.96 160.23 L 180.96 161.23 C 180.95 162.17 181.70 162.93 182.64 162.94 C 183.57 162.94 184.33 162.19 184.34 161.26 L 184.35 160.25 C 184.35 159.32 183.60 158.55 182.66 158.55 C 181.73 158.54 180.97 159.29 180.96 160.23 Z M 180.95 161.23 L 180.95 162.25 C 180.94 163.19 181.69 163.95 182.62 163.96 C 183.56 163.97 184.32 163.22 184.33 162.28 L 184.34 161.26 C 184.35 160.32 183.60 159.56 182.66 159.55 C 181.73 159.54 180.96 160.30 180.95 161.23 Z M 180.94 162.25 L 180.93 163.26 C 180.92 164.19 181.67 164.96 182.61 164.97 C 183.54 164.99 184.31 164.24 184.32 163.30 L 184.33 162.29 C 184.34 161.35 183.60 160.58 182.66 160.57 C 181.72 160.56 180.95 161.31 180.94 162.25 Z M 180.93 163.25 L 180.91 164.25 C 180.90 165.19 181.64 165.96 182.58 165.98 C 183.52 166.00 184.29 165.25 184.31 164.31 L 184.32 163.31 C 184.34 162.37 183.59 161.60 182.66 161.58 C 181.72 161.57 180.95 162.31 180.93 163.25 Z M 180.91 164.24 L 180.89 165.24 C 180.86 166.18 181.61 166.96 182.54 166.98 C 183.48 167.00 184.26 166.26 184.28 165.32 L 184.31 164.32 C 184.33 163.39 183.59 162.61 182.65 162.58 C 181.71 162.56 180.93 163.30 180.91 164.24 Z M 180.88 165.22 L 180.85 166.22 C 180.82 167.16 181.56 167.94 182.50 167.97 C 183.44 168.00 184.22 167.27 184.25 166.33 L 184.29 165.33 C 184.32 164.40 183.58 163.61 182.64 163.58 C 181.70 163.55 180.91 164.28 180.88 165.22 Z M 180.85 166.20 L 180.81 167.19 C 180.77 168.13 181.50 168.92 182.44 168.96 C 183.38 169.00 184.17 168.27 184.21 167.33 L 184.25 166.34 C 184.29 165.40 183.56 164.61 182.62 164.57 C 181.68 164.53 180.89 165.26 180.85 166.20 Z M 180.81 167.17 L 180.75 168.16 C 180.70 169.10 181.42 169.90 182.37 169.95 C 183.31 170.00 184.11 169.28 184.16 168.34 L 184.21 167.35 C 184.26 166.41 183.54 165.61 182.60 165.56 C 181.66 165.51 180.86 166.23 180.81 167.17 Z M 180.75 168.13 L 180.69 169.12 C 180.62 170.06 181.34 170.88 182.28 170.94 C 183.22 171.00 184.03 170.29 184.09 169.35 L 184.16 168.36 C 184.22 167.42 183.51 166.61 182.57 166.54 C 181.63 166.48 180.82 167.19 180.75 168.13 Z M 180.69 169.10 L 180.61 170.09 C 180.53 171.03 181.23 171.85 182.17 171.93 C 183.11 172.00 183.94 171.30 184.01 170.36 L 184.09 169.37 C 184.17 168.43 183.47 167.61 182.53 167.53 C 181.59 167.45 180.76 168.16 180.69 169.10 Z M 180.61 170.06 L 180.51 171.04 C 180.42 171.98 181.11 172.82 182.05 172.91 C 182.99 173.00 183.83 172.31 183.92 171.37 L 184.01 170.39 C 184.11 169.45 183.42 168.61 182.48 168.52 C 181.53 168.43 180.70 169.12 180.61 170.06 Z M 180.51 171.02 L 180.40 172.00 C 180.30 172.94 180.97 173.79 181.91 173.89 C 182.85 174.00 183.70 173.32 183.81 172.38 L 183.92 171.40 C 184.02 170.46 183.35 169.61 182.41 169.51 C 181.47 169.40 180.62 170.08 180.51 171.02 Z M 180.40 171.98 L 180.28 172.96 C 180.16 173.90 180.83 174.76 181.77 174.88 C 182.70 174.99 183.56 174.33 183.68 173.39 L 183.81 172.41 C 183.92 171.47 183.26 170.61 182.32 170.49 C 181.38 170.37 180.52 171.04 180.40 171.98 Z M 180.28 172.94 L 180.14 173.92 C 180.01 174.86 180.67 175.73 181.60 175.86 C 182.54 175.99 183.41 175.34 183.54 174.40 L 183.68 173.41 C 183.81 172.48 183.16 171.61 182.22 171.48 C 181.28 171.35 180.41 172.00 180.28 172.94 Z M 180.15 173.90 L 179.99 174.89 C 179.85 175.83 180.50 176.70 181.43 176.85 C 182.37 176.99 183.24 176.35 183.39 175.41 L 183.54 174.42 C 183.68 173.48 183.04 172.61 182.10 172.47 C 181.16 172.32 180.29 172.97 180.15 173.90 Z M 180.00 174.87 L 179.83 175.86 C 179.68 176.80 180.31 177.68 181.25 177.84 C 182.19 177.99 183.07 177.36 183.22 176.42 L 183.39 175.43 C 183.54 174.49 182.91 173.61 181.97 173.46 C 181.03 173.30 180.15 173.94 180.00 174.87 Z M 179.84 175.84 L 179.66 176.84 C 179.50 177.77 180.12 178.66 181.06 178.82 C 181.99 178.99 182.88 178.36 183.05 177.43 L 183.22 176.44 C 183.38 175.50 182.76 174.61 181.82 174.45 C 180.89 174.29 180.00 174.91 179.84 175.84 Z M 179.66 176.82 L 179.48 177.81 C 179.31 178.74 179.93 179.64 180.86 179.81 C 181.79 179.98 182.69 179.37 182.86 178.43 L 183.05 177.44 C 183.22 176.51 182.60 175.61 181.67 175.44 C 180.73 175.27 179.84 175.88 179.66 176.82 Z M 179.48 177.79 L 179.29 178.78 C 179.11 179.71 179.72 180.62 180.65 180.80 C 181.58 180.98 182.49 180.37 182.67 179.44 L 182.86 178.45 C 183.04 177.52 182.43 176.61 181.50 176.43 C 180.57 176.25 179.66 176.86 179.48 177.79 Z M 179.29 178.77 L 179.09 179.75 C 178.90 180.69 179.51 181.59 180.44 181.78 C 181.37 181.97 182.28 181.37 182.47 180.44 L 182.67 179.45 C 182.86 178.52 182.25 177.61 181.32 177.42 C 180.39 177.23 179.48 177.84 179.29 178.77 Z M 179.09 179.74 L 178.89 180.73 C 178.69 181.66 179.29 182.57 180.22 182.77 C 181.15 182.96 182.06 182.37 182.26 181.43 L 182.47 180.45 C 182.66 179.52 182.07 178.61 181.13 178.41 C 180.20 178.21 179.29 178.81 179.09 179.74 Z M 178.89 180.71 L 178.67 181.69 C 178.47 182.63 179.06 183.54 179.99 183.75 C 180.92 183.95 181.84 183.36 182.04 182.43 L 182.26 181.45 C 182.46 180.52 181.87 179.60 180.94 179.40 C 180.01 179.19 179.09 179.78 178.89 180.71 Z M 178.67 181.68 L 178.45 182.66 C 178.25 183.59 178.83 184.51 179.76 184.72 C 180.69 184.93 181.61 184.35 181.82 183.42 L 182.04 182.44 C 182.25 181.51 181.67 180.59 180.74 180.38 C 179.81 180.17 178.88 180.75 178.67 181.68 Z M 178.46 182.65 L 178.23 183.62 C 178.01 184.55 178.59 185.48 179.52 185.70 C 180.45 185.91 181.38 185.34 181.60 184.41 L 181.82 183.43 C 182.04 182.50 181.46 181.57 180.53 181.36 C 179.60 181.14 178.67 181.72 178.46 182.65 Z M 178.23 183.61 L 178.00 184.58 C 177.77 185.51 178.35 186.45 179.27 186.67 C 180.20 186.89 181.14 186.32 181.36 185.39 L 181.59 184.42 C 181.82 183.49 181.24 182.56 180.32 182.33 C 179.39 182.11 178.45 182.68 178.23 183.61 Z M 178.00 184.57 L 177.76 185.54 C 177.53 186.47 178.09 187.41 179.02 187.64 C 179.95 187.87 180.89 187.30 181.12 186.37 L 181.36 185.40 C 181.59 184.48 181.02 183.54 180.09 183.31 C 179.17 183.08 178.23 183.64 178.00 184.57 Z M 177.76 185.53 L 177.51 186.50 C 177.27 187.43 177.83 188.37 178.76 188.61 C 179.69 188.84 180.63 188.28 180.87 187.36 L 181.12 186.39 C 181.35 185.46 180.79 184.52 179.87 184.28 C 178.94 184.04 177.99 184.60 177.76 185.53 Z M 177.51 186.49 L 177.26 187.45 C 177.02 188.38 177.57 189.33 178.50 189.57 C 179.42 189.81 180.37 189.26 180.62 188.33 L 180.87 187.37 C 181.11 186.44 180.56 185.49 179.63 185.25 C 178.71 185.00 177.76 185.56 177.51 186.49 Z M 177.26 187.44 L 177.00 188.40 C 176.75 189.33 177.30 190.28 178.22 190.53 C 179.15 190.78 180.10 190.23 180.35 189.31 L 180.61 188.34 C 180.87 187.42 180.32 186.46 179.39 186.21 C 178.46 185.96 177.51 186.51 177.26 187.44 Z M 177.00 188.39 L 176.73 189.35 C 176.48 190.27 177.02 191.23 177.94 191.49 C 178.87 191.75 179.83 191.20 180.09 190.28 L 180.35 189.32 C 180.61 188.39 180.07 187.44 179.14 187.18 C 178.22 186.92 177.26 187.46 177.00 188.39 Z M 176.74 189.33 L 176.46 190.30 C 176.20 191.22 176.73 192.19 177.66 192.45 C 178.58 192.72 179.54 192.18 179.81 191.26 L 180.08 190.29 C 180.35 189.37 179.81 188.40 178.89 188.14 C 177.96 187.88 177.00 188.41 176.74 189.33 Z M 176.46 190.29 L 176.18 191.26 C 175.91 192.18 176.44 193.15 177.36 193.42 C 178.28 193.69 179.25 193.16 179.52 192.24 L 179.80 191.27 C 180.08 190.35 179.55 189.38 178.62 189.11 C 177.70 188.84 176.73 189.37 176.46 190.29 Z M 176.18 191.24 L 175.89 192.21 C 175.62 193.13 176.14 194.10 177.06 194.38 C 177.98 194.66 178.95 194.13 179.23 193.21 L 179.52 192.25 C 179.79 191.33 179.27 190.36 178.35 190.08 C 177.43 189.80 176.46 190.32 176.18 191.24 Z M 175.90 192.20 L 175.60 193.16 C 175.32 194.08 175.83 195.05 176.75 195.34 C 177.67 195.62 178.65 195.10 178.93 194.18 L 179.22 193.22 C 179.51 192.30 178.99 191.33 178.07 191.05 C 177.15 190.76 176.18 191.28 175.90 192.20 Z M 175.60 193.15 L 175.30 194.11 C 175.01 195.02 175.52 196.00 176.44 196.29 C 177.36 196.58 178.34 196.07 178.62 195.15 L 178.93 194.19 C 179.21 193.28 178.70 192.30 177.79 192.01 C 176.87 191.72 175.89 192.23 175.60 193.15 Z M 175.31 194.10 L 175.00 195.05 C 174.70 195.96 175.21 196.95 176.12 197.24 C 177.04 197.53 178.02 197.03 178.32 196.11 L 178.62 195.16 C 178.92 194.25 178.41 193.26 177.50 192.97 C 176.58 192.68 175.60 193.18 175.31 194.10 Z M 175.00 195.04 L 174.69 195.99 C 174.39 196.90 174.89 197.89 175.80 198.18 C 176.72 198.48 177.70 197.99 178.00 197.07 L 178.31 196.12 C 178.61 195.21 178.11 194.23 177.20 193.93 C 176.28 193.63 175.30 194.13 175.00 195.04 Z M 174.69 195.98 L 174.38 196.92 C 174.08 197.84 174.57 198.82 175.48 199.13 C 176.39 199.43 177.38 198.94 177.68 198.02 L 178.00 197.08 C 178.30 196.17 177.81 195.18 176.90 194.88 C 175.98 194.57 175.00 195.07 174.69 195.98 Z M 174.38 196.91 L 174.06 197.85 C 173.76 198.76 174.24 199.75 175.15 200.06 C 176.07 200.37 177.05 199.88 177.36 198.97 L 177.68 198.03 C 177.99 197.12 177.50 196.13 176.59 195.82 C 175.68 195.52 174.69 196.00 174.38 196.91 Z M 174.07 197.85 L 173.75 198.78 C 173.43 199.69 173.92 200.68 174.83 200.99 C 175.73 201.31 176.73 200.82 177.04 199.91 L 177.36 198.98 C 177.67 198.07 177.19 197.08 176.28 196.77 C 175.37 196.45 174.38 196.94 174.07 197.85 Z M 173.75 198.77 L 173.42 199.71 C 173.10 200.62 173.58 201.61 174.49 201.93 C 175.40 202.25 176.39 201.77 176.71 200.86 L 177.04 199.92 C 177.35 199.01 176.88 198.02 175.97 197.70 C 175.06 197.38 174.06 197.86 173.75 198.77 Z M 173.42 199.70 L 173.09 200.64 C 172.77 201.55 173.24 202.55 174.15 202.87 C 175.06 203.19 176.05 202.71 176.38 201.81 L 176.71 200.87 C 177.03 199.96 176.55 198.96 175.65 198.64 C 174.74 198.32 173.74 198.80 173.42 199.70 Z M 173.09 200.63 L 172.75 201.57 C 172.43 202.48 172.90 203.48 173.81 203.80 C 174.72 204.13 175.72 203.65 176.04 202.75 L 176.38 201.81 C 176.70 200.90 176.23 199.91 175.32 199.58 C 174.41 199.25 173.41 199.73 173.09 200.63 Z M 172.75 201.56 L 172.42 202.49 C 172.09 203.40 172.56 204.40 173.46 204.73 C 174.37 205.06 175.37 204.59 175.70 203.69 L 176.04 202.75 C 176.37 201.85 175.90 200.84 174.99 200.51 C 174.09 200.19 173.08 200.65 172.75 201.56 Z M 172.42 202.49 L 172.07 203.42 C 171.74 204.33 172.21 205.33 173.12 205.67 C 174.02 206.00 175.03 205.53 175.36 204.63 L 175.70 203.69 C 176.03 202.79 175.57 201.78 174.66 201.45 C 173.75 201.12 172.75 201.58 172.42 202.49 Z M 172.07 203.42 L 171.73 204.35 C 171.39 205.26 171.86 206.27 172.77 206.60 C 173.67 206.94 174.68 206.47 175.02 205.56 L 175.36 204.63 C 175.70 203.72 175.23 202.72 174.32 202.38 C 173.42 202.05 172.41 202.51 172.07 203.42 Z M 171.73 204.35 L 171.38 205.28 C 171.04 206.19 171.50 207.20 172.41 207.54 C 173.32 207.88 174.33 207.41 174.67 206.51 L 175.02 205.57 C 175.35 204.66 174.89 203.65 173.98 203.31 C 173.08 202.98 172.07 203.44 171.73 204.35 Z M 171.38 205.28 L 171.03 206.22 C 170.69 207.13 171.15 208.14 172.06 208.48 C 172.96 208.82 173.97 208.36 174.31 207.45 L 174.67 206.51 C 175.01 205.60 174.55 204.59 173.64 204.25 C 172.73 203.91 171.72 204.37 171.38 205.28 Z M 171.03 206.22 L 170.67 207.16 C 170.33 208.07 170.79 209.08 171.70 209.43 C 172.60 209.77 173.62 209.31 173.96 208.40 L 174.31 207.45 C 174.66 206.55 174.20 205.53 173.29 205.19 C 172.38 204.85 171.37 205.31 171.03 206.22 Z M 170.67 207.16 L 170.31 208.11 C 169.97 209.02 170.42 210.04 171.33 210.38 C 172.24 210.72 173.26 210.27 173.60 209.36 L 173.96 208.40 C 174.30 207.50 173.84 206.48 172.94 206.14 C 172.03 205.79 171.01 206.25 170.67 207.16 Z M 170.31 208.11 L 169.95 209.07 C 169.60 209.98 170.06 210.99 170.97 211.34 C 171.88 211.68 172.89 211.23 173.24 210.32 L 173.60 209.36 C 173.94 208.45 173.49 207.44 172.58 207.09 C 171.67 206.75 170.65 207.20 170.31 208.11 Z M 169.95 209.07 L 169.58 210.03 C 169.24 210.94 169.69 211.95 170.60 212.30 C 171.51 212.64 172.52 212.19 172.87 211.28 L 173.23 210.32 C 173.58 209.41 173.12 208.40 172.22 208.05 C 171.31 207.71 170.29 208.16 169.95 209.07 Z M 169.58 210.03 L 169.21 210.99 C 168.87 211.89 169.32 212.91 170.23 213.26 C 171.13 213.61 172.15 213.15 172.50 212.25 L 172.87 211.28 C 173.21 210.38 172.76 209.36 171.85 209.01 C 170.95 208.67 169.93 209.12 169.58 210.03 Z M 169.22 210.98 L 168.85 211.94 C 168.50 212.85 168.95 213.86 169.85 214.21 C 170.76 214.56 171.78 214.11 172.13 213.21 L 172.50 212.25 C 172.84 211.34 172.39 210.33 171.49 209.98 C 170.58 209.63 169.57 210.08 169.22 210.98 Z M 168.85 211.94 L 168.48 212.89 C 168.13 213.79 168.58 214.81 169.48 215.16 C 170.38 215.51 171.40 215.07 171.75 214.16 L 172.12 213.21 C 172.48 212.31 172.03 211.29 171.12 210.94 C 170.22 210.59 169.20 211.03 168.85 211.94 Z M 168.48 212.88 L 168.11 213.82 C 167.76 214.72 168.20 215.74 169.11 216.10 C 170.01 216.45 171.03 216.01 171.38 215.10 L 171.75 214.17 C 172.11 213.26 171.66 212.24 170.76 211.89 C 169.86 211.53 168.84 211.98 168.48 212.88 Z M 168.12 213.81 L 167.75 214.73 C 167.39 215.63 167.83 216.65 168.73 217.01 C 169.63 217.37 170.65 216.93 171.01 216.03 L 171.38 215.11 C 171.74 214.21 171.30 213.19 170.40 212.83 C 169.50 212.47 168.48 212.91 168.12 213.81 Z M 167.75 214.72 L 167.39 215.62 C 167.03 216.52 167.46 217.55 168.36 217.91 C 169.26 218.27 170.28 217.84 170.65 216.94 L 171.01 216.04 C 171.37 215.14 170.94 214.12 170.04 213.75 C 169.14 213.39 168.12 213.83 167.75 214.72 Z M 167.39 215.62 L 167.04 216.49 C 166.67 217.39 167.10 218.41 167.99 218.78 C 168.89 219.15 169.91 218.72 170.28 217.82 L 170.64 216.95 C 171.01 216.05 170.58 215.03 169.68 214.66 C 168.79 214.29 167.76 214.72 167.39 215.62 Z M 167.04 216.48 L 166.65 217.41 C 166.28 218.30 166.70 219.33 167.59 219.71 C 168.49 220.08 169.51 219.66 169.89 218.76 L 170.28 217.84 C 170.65 216.94 170.23 215.91 169.34 215.54 C 168.44 215.17 167.41 215.59 167.04 216.48 Z M 166.66 217.39 L 166.22 218.41 C 165.84 219.30 166.25 220.34 167.14 220.72 C 168.03 221.10 169.07 220.69 169.45 219.80 L 169.88 218.78 C 170.27 217.89 169.85 216.85 168.96 216.47 C 168.07 216.09 167.04 216.50 166.66 217.39 Z M 166.22 218.40 L 165.80 219.37 C 165.40 220.26 165.81 221.30 166.70 221.69 C 167.59 222.08 168.62 221.68 169.01 220.79 L 169.44 219.81 C 169.83 218.92 169.43 217.89 168.54 217.50 C 167.65 217.10 166.62 217.51 166.22 218.40 Z M 165.80 219.36 L 165.38 220.29 C 164.98 221.18 165.37 222.22 166.26 222.62 C 167.14 223.02 168.19 222.62 168.59 221.74 L 169.01 220.80 C 169.41 219.92 169.01 218.88 168.13 218.48 C 167.24 218.08 166.20 218.47 165.80 219.36 Z M 165.38 220.27 L 164.97 221.17 C 164.56 222.06 164.94 223.10 165.83 223.51 C 166.71 223.92 167.76 223.54 168.17 222.65 L 168.58 221.75 C 168.99 220.87 168.61 219.82 167.72 219.42 C 166.84 219.01 165.79 219.39 165.38 220.27 Z M 164.97 221.16 L 164.56 222.02 C 164.14 222.90 164.52 223.96 165.40 224.37 C 166.28 224.79 167.33 224.42 167.75 223.54 L 168.16 222.67 C 168.58 221.79 168.20 220.74 167.32 220.32 C 166.44 219.90 165.39 220.28 164.97 221.16 Z M 164.57 222.01 L 164.16 222.85 C 163.73 223.72 164.10 224.78 164.98 225.21 C 165.85 225.63 166.91 225.27 167.34 224.39 L 167.74 223.55 C 168.17 222.67 167.80 221.62 166.93 221.19 C 166.05 220.77 164.99 221.13 164.57 222.01 Z M 164.16 222.83 L 163.76 223.65 C 163.33 224.52 163.68 225.58 164.56 226.02 C 165.43 226.45 166.49 226.09 166.93 225.22 L 167.33 224.40 C 167.77 223.53 167.41 222.47 166.53 222.03 C 165.66 221.60 164.60 221.96 164.16 222.83 Z M 163.77 223.63 L 163.31 224.53 C 162.87 225.40 163.22 226.47 164.09 226.91 C 164.96 227.35 166.02 227.00 166.47 226.13 L 166.92 225.23 C 167.36 224.36 167.02 223.30 166.14 222.85 C 165.27 222.41 164.21 222.76 163.77 223.63 Z M 163.32 224.52 L 162.83 225.46 C 162.38 226.32 162.72 227.39 163.59 227.84 C 164.45 228.29 165.52 227.95 165.97 227.08 L 166.46 226.15 C 166.91 225.28 166.57 224.21 165.70 223.76 C 164.84 223.31 163.77 223.65 163.32 224.52 Z M 162.84 225.44 L 162.36 226.35 C 161.90 227.21 162.23 228.28 163.09 228.74 C 163.95 229.20 165.02 228.87 165.48 228.01 L 165.96 227.10 C 166.42 226.24 166.09 225.17 165.23 224.71 C 164.37 224.25 163.30 224.58 162.84 225.44 Z M 162.37 226.34 L 161.89 227.22 C 161.42 228.07 161.74 229.15 162.60 229.61 C 163.45 230.08 164.52 229.76 164.99 228.90 L 165.47 228.02 C 165.93 227.17 165.62 226.10 164.76 225.63 C 163.90 225.17 162.83 225.48 162.37 226.34 Z M 161.90 227.20 L 161.43 228.05 C 160.95 228.90 161.26 229.98 162.11 230.45 C 162.96 230.93 164.03 230.62 164.51 229.77 L 164.98 228.92 C 165.45 228.07 165.15 226.99 164.30 226.52 C 163.45 226.05 162.37 226.35 161.90 227.20 Z M 161.44 228.04 L 160.97 228.86 C 160.49 229.71 160.78 230.78 161.63 231.26 C 162.47 231.74 163.55 231.45 164.03 230.60 L 164.50 229.78 C 164.98 228.94 164.68 227.86 163.84 227.38 C 162.99 226.90 161.92 227.19 161.44 228.04 Z M 160.98 228.85 L 160.49 229.68 C 160.00 230.52 160.28 231.60 161.12 232.09 C 161.96 232.58 163.04 232.30 163.53 231.46 L 164.02 230.62 C 164.51 229.78 164.22 228.70 163.39 228.21 C 162.55 227.72 161.47 228.01 160.98 228.85 Z M 160.50 229.66 L 159.95 230.58 C 159.45 231.42 159.72 232.50 160.55 233.00 C 161.39 233.50 162.47 233.23 162.97 232.39 L 163.52 231.47 C 164.02 230.64 163.75 229.56 162.91 229.06 C 162.08 228.56 161.00 228.83 160.50 229.66 Z M 159.96 230.57 L 159.42 231.45 C 158.91 232.27 159.17 233.36 159.99 233.87 C 160.82 234.38 161.91 234.12 162.42 233.29 L 162.96 232.41 C 163.47 231.58 163.21 230.50 162.38 229.99 C 161.55 229.48 160.47 229.74 159.96 230.57 Z M 159.43 231.43 L 158.90 232.27 C 158.38 233.09 158.62 234.18 159.45 234.70 C 160.27 235.22 161.36 234.97 161.88 234.15 L 162.41 233.31 C 162.93 232.48 162.68 231.40 161.86 230.88 C 161.03 230.36 159.94 230.60 159.43 231.43 Z M 158.90 232.25 L 158.39 233.05 C 157.86 233.87 158.10 234.97 158.92 235.50 C 159.74 236.02 160.83 235.79 161.36 234.97 L 161.87 234.16 C 162.40 233.34 162.16 232.25 161.34 231.72 C 160.52 231.20 159.43 231.43 158.90 232.25 Z M 158.40 233.04 L 157.89 233.81 C 157.35 234.63 157.58 235.72 158.40 236.26 C 159.21 236.79 160.31 236.57 160.84 235.75 L 161.35 234.98 C 161.89 234.16 161.66 233.07 160.84 232.53 C 160.03 232.00 158.93 232.23 158.40 233.04 Z M 157.90 233.80 L 157.35 234.63 C 156.80 235.44 157.02 236.53 157.83 237.08 C 158.64 237.62 159.74 237.40 160.28 236.59 L 160.83 235.76 C 161.38 234.95 161.16 233.86 160.35 233.31 C 159.54 232.77 158.44 232.99 157.90 233.80 Z M 157.36 234.61 L 156.81 235.41 C 156.25 236.21 156.45 237.31 157.25 237.86 C 158.05 238.42 159.15 238.22 159.71 237.42 L 160.26 236.61 C 160.82 235.81 160.62 234.71 159.82 234.16 C 159.02 233.61 157.92 233.81 157.36 234.61 Z M 156.83 235.38 L 156.26 236.18 C 155.69 236.96 155.86 238.06 156.65 238.63 C 157.44 239.20 158.54 239.03 159.11 238.24 L 159.68 237.44 C 160.25 236.66 160.08 235.56 159.29 234.99 C 158.50 234.42 157.40 234.59 156.83 235.38 Z M 156.29 236.14 L 155.67 236.95 C 155.08 237.72 155.23 238.82 156.00 239.41 C 156.77 240.00 157.87 239.85 158.46 239.08 L 159.08 238.27 C 159.66 237.50 159.52 236.40 158.75 235.81 C 157.98 235.22 156.87 235.37 156.29 236.14 Z M 155.70 236.91 L 155.08 237.69 C 154.47 238.44 154.59 239.54 155.34 240.15 C 156.10 240.76 157.20 240.64 157.81 239.89 L 158.43 239.11 C 159.04 238.36 158.92 237.26 158.17 236.65 C 157.41 236.04 156.31 236.16 155.70 236.91 Z M 155.10 237.66 L 154.49 238.38 C 153.87 239.13 153.96 240.23 154.70 240.85 C 155.44 241.48 156.55 241.38 157.17 240.64 L 157.78 239.92 C 158.41 239.18 158.31 238.07 157.57 237.45 C 156.83 236.82 155.73 236.92 155.10 237.66 Z M 154.51 238.36 L 153.86 239.11 C 153.22 239.84 153.30 240.95 154.03 241.58 C 154.77 242.22 155.87 242.14 156.51 241.41 L 157.16 240.66 C 157.79 239.93 157.71 238.82 156.98 238.19 C 156.25 237.55 155.14 237.63 154.51 238.36 Z M 153.87 239.10 L 153.20 239.86 C 152.55 240.58 152.62 241.69 153.34 242.33 C 154.07 242.98 155.18 242.91 155.82 242.18 L 156.50 241.42 C 157.14 240.70 157.07 239.59 156.35 238.95 C 155.62 238.30 154.51 238.37 153.87 239.10 Z M 153.20 239.85 L 152.51 240.62 C 151.86 241.34 151.92 242.45 152.64 243.10 C 153.36 243.75 154.47 243.69 155.12 242.96 L 155.82 242.19 C 156.46 241.47 156.40 240.36 155.68 239.71 C 154.96 239.07 153.85 239.12 153.20 239.85 Z M 152.51 240.61 L 151.81 241.39 C 151.16 242.11 151.22 243.22 151.94 243.87 C 152.66 244.52 153.77 244.47 154.42 243.75 L 155.12 242.97 C 155.77 242.25 155.72 241.14 155.00 240.49 C 154.28 239.84 153.16 239.89 152.51 240.61 Z"
      fill="black"
      fill-rule="nonzero" /></svg>