<svg xmlns="http://www.w3.org/2000/svg" width="300" height="300" viewBox="0 0 300 300">
<path d="M 106.54 80.79 L 105.37 80.60 C 104.52 80.46 103.72 81.03 103.58 81.88 C 103.44 82.73 104.01 83.54 104.86 83.68 L 106.03 83.87 C 106.88 84.01 107.68 83.43 107.82 82.58 C 107.96 81.73 107.39 80.93 106.54 80.79 Z M 105.30 80.59 L 104.21 80.46 C 103.35 80.36 102.58 80.97 102.48 81.83 C 102.37 82.68 102.99 83.46 103.84 83.56 L 104.93 83.69 C 105.79 83.79 106.57 83.18 106.67 82.32 C 106.77 81.46 106.16 80.69 105.30 80.59 Z M 104.03 80.45 L 103.09 80.44 C 102.23 80.44 101.53 81.14 101.53 82.00 C 101.52 82.86 102.22 83.56 103.08 83.57 L 104.02 83.57 C 104.88 83.57 105.59 82.87 105.59 82.01 C 105.59 81.15 104.89 80.45 104.03 80.45 Z M 102.68 80.50 L 101.96 80.69 C 101.13 80.91 100.64 81.77 100.86 82.60 C 101.08 83.44 101.94 83.93 102.77 83.71 L 103.49 83.51 C 104.32 83.29 104.82 82.43 104.60 81.60 C 104.37 80.77 103.52 80.27 102.68 80.50 Z M 101.16 81.20 L 100.66 81.81 C 100.11 82.47 100.20 83.46 100.87 84.01 C 101.53 84.56 102.52 84.47 103.07 83.80 L 103.57 83.19 C 104.12 82.53 104.03 81.55 103.36 81.00 C 102.70 80.45 101.71 80.54 101.16 81.20 Z M 100.31 82.67 L 100.23 83.63 C 100.15 84.49 100.79 85.24 101.65 85.32 C 102.51 85.39 103.26 84.75 103.34 83.89 L 103.42 82.94 C 103.49 82.08 102.86 81.32 102.00 81.25 C 101.14 81.18 100.38 81.81 100.31 82.67 Z M 100.25 84.06 L 100.48 85.25 C 100.65 86.09 101.47 86.64 102.32 86.48 C 103.16 86.31 103.71 85.49 103.55 84.64 L 103.31 83.46 C 103.15 82.61 102.33 82.06 101.48 82.23 C 100.63 82.40 100.08 83.22 100.25 84.06 Z M 100.53 85.42 L 100.82 86.32 C 101.08 87.15 101.96 87.60 102.78 87.34 C 103.60 87.08 104.05 86.20 103.79 85.38 L 103.50 84.47 C 103.24 83.65 102.36 83.20 101.54 83.46 C 100.72 83.72 100.27 84.60 100.53 85.42 Z M 100.85 86.41 L 101.21 87.35 C 101.51 88.16 102.41 88.56 103.22 88.26 C 104.03 87.95 104.43 87.05 104.12 86.24 L 103.76 85.29 C 103.46 84.49 102.56 84.08 101.75 84.39 C 100.94 84.70 100.54 85.60 100.85 86.41 Z M 101.23 87.41 L 101.63 88.36 C 101.97 89.16 102.89 89.53 103.68 89.19 C 104.47 88.86 104.84 87.94 104.51 87.15 L 104.10 86.19 C 103.77 85.40 102.85 85.02 102.06 85.36 C 101.26 85.70 100.89 86.61 101.23 87.41 Z M 101.65 88.40 L 102.07 89.32 C 102.43 90.11 103.35 90.46 104.14 90.10 C 104.92 89.74 105.27 88.82 104.91 88.03 L 104.49 87.11 C 104.14 86.32 103.21 85.98 102.42 86.33 C 101.64 86.69 101.29 87.61 101.65 88.40 Z M 102.08 89.35 L 102.53 90.29 C 102.90 91.07 103.83 91.40 104.61 91.03 C 105.39 90.66 105.72 89.73 105.35 88.95 L 104.90 88.01 C 104.53 87.23 103.60 86.90 102.82 87.27 C 102.04 87.64 101.71 88.57 102.08 89.35 Z M 102.54 90.31 L 102.99 91.23 C 103.37 92.01 104.31 92.32 105.08 91.94 C 105.86 91.56 106.17 90.62 105.79 89.85 L 105.34 88.93 C 104.96 88.16 104.02 87.84 103.25 88.22 C 102.47 88.60 102.16 89.54 102.54 90.31 Z M 103.00 91.25 L 103.44 92.11 C 103.83 92.88 104.77 93.19 105.54 92.80 C 106.31 92.41 106.62 91.47 106.22 90.70 L 105.78 89.83 C 105.39 89.06 104.45 88.76 103.68 89.15 C 102.92 89.54 102.61 90.48 103.00 91.25 Z M 103.45 92.12 L 103.89 92.97 C 104.28 93.74 105.23 94.04 105.99 93.64 C 106.76 93.25 107.06 92.30 106.66 91.54 L 106.22 90.69 C 105.82 89.92 104.88 89.62 104.12 90.02 C 103.35 90.42 103.05 91.36 103.45 92.12 Z M 103.89 92.98 L 104.33 93.83 C 104.73 94.59 105.67 94.89 106.44 94.49 C 107.20 94.10 107.50 93.15 107.10 92.39 L 106.66 91.54 C 106.26 90.77 105.32 90.47 104.55 90.87 C 103.79 91.27 103.49 92.21 103.89 92.98 Z M 104.33 93.83 L 104.78 94.70 C 105.18 95.47 106.12 95.76 106.89 95.37 C 107.65 94.97 107.95 94.02 107.55 93.26 L 107.10 92.39 C 106.70 91.62 105.76 91.32 105.00 91.72 C 104.23 92.12 103.93 93.06 104.33 93.83 Z M 104.79 94.70 L 105.25 95.60 C 105.65 96.36 106.59 96.66 107.36 96.26 C 108.12 95.86 108.42 94.92 108.02 94.15 L 107.55 93.26 C 107.15 92.49 106.21 92.20 105.45 92.60 C 104.68 92.99 104.39 93.94 104.79 94.70 Z M 105.25 95.60 L 105.73 96.51 C 106.13 97.28 107.08 97.57 107.84 97.17 C 108.60 96.77 108.90 95.83 108.50 95.06 L 108.02 94.15 C 107.62 93.39 106.67 93.09 105.91 93.49 C 105.15 93.89 104.85 94.84 105.25 95.60 Z M 105.73 96.52 L 106.20 97.39 C 106.60 98.15 107.54 98.44 108.31 98.04 C 109.07 97.64 109.36 96.69 108.96 95.93 L 108.49 95.06 C 108.09 94.30 107.15 94.00 106.38 94.41 C 105.62 94.81 105.33 95.75 105.73 96.52 Z M 106.20 97.40 L 106.66 98.26 C 107.07 99.02 108.02 99.31 108.78 98.90 C 109.54 98.49 109.82 97.55 109.42 96.79 L 108.95 95.92 C 108.54 95.16 107.60 94.88 106.84 95.28 C 106.08 95.69 105.79 96.64 106.20 97.40 Z M 106.67 98.28 L 107.15 99.15 C 107.57 99.91 108.51 100.19 109.27 99.77 C 110.03 99.36 110.30 98.41 109.89 97.65 L 109.41 96.78 C 108.99 96.02 108.05 95.74 107.29 96.16 C 106.53 96.57 106.26 97.52 106.67 98.28 Z M 107.16 99.17 L 107.66 100.06 C 108.09 100.81 109.04 101.07 109.79 100.65 C 110.54 100.23 110.81 99.27 110.38 98.52 L 109.88 97.63 C 109.46 96.88 108.50 96.62 107.75 97.04 C 107.00 97.47 106.74 98.42 107.16 99.17 Z M 107.67 100.08 L 108.18 100.94 C 108.62 101.69 109.57 101.94 110.32 101.50 C 111.06 101.07 111.31 100.11 110.88 99.37 L 110.37 98.50 C 109.93 97.76 108.98 97.51 108.23 97.94 C 107.49 98.38 107.24 99.33 107.67 100.08 Z M 108.19 100.96 L 108.70 101.80 C 109.14 102.54 110.10 102.77 110.84 102.33 C 111.58 101.88 111.82 100.92 111.37 100.18 L 110.86 99.35 C 110.42 98.61 109.46 98.37 108.72 98.82 C 107.98 99.26 107.75 100.22 108.19 100.96 Z M 108.71 101.81 L 109.23 102.66 C 109.69 103.39 110.65 103.62 111.38 103.16 C 112.12 102.71 112.34 101.74 111.88 101.01 L 111.36 100.16 C 110.90 99.43 109.94 99.21 109.21 99.66 C 108.48 100.12 108.25 101.08 108.71 101.81 Z M 109.24 102.67 L 109.79 103.53 C 110.25 104.26 111.21 104.47 111.94 104.01 C 112.67 103.54 112.88 102.58 112.42 101.85 L 111.88 101.00 C 111.41 100.27 110.45 100.06 109.72 100.52 C 108.99 100.98 108.78 101.95 109.24 102.67 Z M 109.79 103.54 L 110.35 104.40 C 110.82 105.12 111.79 105.33 112.51 104.86 C 113.24 104.39 113.44 103.43 112.97 102.70 L 112.41 101.84 C 111.94 101.12 110.98 100.91 110.25 101.38 C 109.53 101.85 109.32 102.82 109.79 103.54 Z M 110.36 104.41 L 110.90 105.23 C 111.37 105.95 112.34 106.15 113.06 105.68 C 113.78 105.21 113.98 104.24 113.51 103.52 L 112.97 102.69 C 112.49 101.97 111.52 101.77 110.80 102.25 C 110.08 102.72 109.88 103.69 110.36 104.41 Z M 110.91 105.24 L 111.45 106.06 C 111.93 106.78 112.90 106.97 113.62 106.49 C 114.34 106.01 114.53 105.04 114.05 104.33 L 113.50 103.51 C 113.02 102.79 112.05 102.60 111.34 103.08 C 110.62 103.56 110.43 104.53 110.91 105.24 Z M 111.46 106.07 L 112.02 106.90 C 112.51 107.61 113.48 107.80 114.19 107.31 C 114.90 106.83 115.09 105.86 114.60 105.14 L 114.04 104.32 C 113.56 103.60 112.59 103.42 111.88 103.90 C 111.16 104.39 110.98 105.36 111.46 106.07 Z M 112.03 106.91 L 112.60 107.74 C 113.09 108.45 114.07 108.63 114.77 108.13 C 115.48 107.64 115.66 106.67 115.17 105.96 L 114.60 105.13 C 114.11 104.42 113.13 104.25 112.42 104.74 C 111.72 105.23 111.54 106.20 112.03 106.91 Z M 112.61 107.75 L 113.20 108.59 C 113.70 109.29 114.67 109.46 115.38 108.96 C 116.08 108.47 116.25 107.49 115.75 106.79 L 115.16 105.95 C 114.67 105.25 113.69 105.08 112.99 105.57 C 112.28 106.07 112.11 107.05 112.61 107.75 Z M 113.21 108.60 L 113.78 109.39 C 114.28 110.10 115.26 110.25 115.96 109.75 C 116.66 109.25 116.82 108.27 116.32 107.57 L 115.74 106.78 C 115.24 106.08 114.27 105.92 113.56 106.42 C 112.86 106.92 112.70 107.90 113.21 108.60 Z M 113.79 109.41 L 114.37 110.20 C 114.88 110.90 115.86 111.05 116.55 110.54 C 117.25 110.03 117.40 109.05 116.89 108.36 L 116.31 107.56 C 115.80 106.87 114.82 106.71 114.13 107.22 C 113.43 107.73 113.28 108.71 113.79 109.41 Z M 114.38 110.21 L 114.97 111.01 C 115.49 111.70 116.47 111.84 117.16 111.33 C 117.85 110.81 117.99 109.83 117.48 109.14 L 116.88 108.34 C 116.37 107.65 115.39 107.51 114.70 108.03 C 114.01 108.54 113.86 109.52 114.38 110.21 Z M 114.98 111.02 L 115.59 111.82 C 116.11 112.51 117.09 112.64 117.78 112.12 C 118.47 111.60 118.60 110.62 118.08 109.94 L 117.47 109.13 C 116.95 108.45 115.97 108.31 115.28 108.83 C 114.60 109.35 114.46 110.33 114.98 111.02 Z M 115.60 111.83 L 116.22 112.64 C 116.75 113.32 117.73 113.45 118.41 112.92 C 119.10 112.40 119.22 111.42 118.69 110.73 L 118.07 109.93 C 117.54 109.24 116.56 109.12 115.88 109.64 C 115.20 110.17 115.07 111.15 115.60 111.83 Z M 116.23 112.65 L 116.84 113.43 C 117.38 114.11 118.36 114.23 119.04 113.70 C 119.71 113.16 119.83 112.18 119.30 111.51 L 118.69 110.72 C 118.15 110.05 117.17 109.93 116.50 110.46 C 115.82 110.99 115.70 111.97 116.23 112.65 Z M 116.85 113.44 L 117.45 114.20 C 117.99 114.87 118.97 114.99 119.65 114.45 C 120.32 113.91 120.43 112.93 119.90 112.26 L 119.29 111.50 C 118.76 110.82 117.77 110.71 117.10 111.25 C 116.42 111.78 116.31 112.77 116.85 113.44 Z M 117.46 114.21 L 118.08 114.97 C 118.62 115.64 119.60 115.75 120.27 115.21 C 120.94 114.67 121.05 113.69 120.51 113.01 L 119.89 112.25 C 119.35 111.58 118.37 111.47 117.70 112.01 C 117.02 112.55 116.92 113.54 117.46 114.21 Z M 118.08 114.98 L 118.71 115.76 C 119.26 116.42 120.24 116.52 120.91 115.98 C 121.58 115.44 121.68 114.45 121.14 113.78 L 120.50 113.01 C 119.96 112.34 118.98 112.24 118.31 112.78 C 117.64 113.33 117.54 114.31 118.08 114.98 Z M 118.72 115.76 L 119.36 116.55 C 119.91 117.21 120.89 117.31 121.56 116.76 C 122.23 116.22 122.32 115.23 121.78 114.57 L 121.13 113.78 C 120.58 113.11 119.60 113.02 118.93 113.56 C 118.27 114.11 118.17 115.09 118.72 115.76 Z M 119.37 116.55 L 120.03 117.35 C 120.58 118.02 121.56 118.11 122.23 117.56 C 122.89 117.01 122.98 116.03 122.44 115.36 L 121.77 114.56 C 121.23 113.90 120.24 113.80 119.58 114.35 C 118.91 114.90 118.82 115.89 119.37 116.55 Z M 120.03 117.35 L 120.67 118.13 C 121.22 118.79 122.20 118.88 122.87 118.33 C 123.53 117.78 123.62 116.80 123.07 116.13 L 122.43 115.36 C 121.88 114.70 120.90 114.61 120.23 115.16 C 119.57 115.71 119.48 116.69 120.03 117.35 Z M 120.67 118.13 L 121.32 118.90 C 121.87 119.56 122.85 119.65 123.51 119.10 C 124.18 118.55 124.26 117.56 123.71 116.90 L 123.07 116.13 C 122.52 115.47 121.53 115.38 120.87 115.93 C 120.21 116.48 120.12 117.47 120.67 118.13 Z M 121.32 118.90 L 121.97 119.68 C 122.53 120.34 123.51 120.42 124.17 119.87 C 124.83 119.31 124.91 118.33 124.36 117.67 L 123.71 116.89 C 123.15 116.23 122.17 116.15 121.51 116.70 C 120.85 117.26 120.76 118.25 121.32 118.90 Z M 121.98 119.68 L 122.63 120.45 C 123.19 121.11 124.17 121.19 124.83 120.63 C 125.49 120.07 125.57 119.09 125.01 118.43 L 124.35 117.66 C 123.79 117.00 122.81 116.92 122.15 117.48 C 121.50 118.04 121.42 119.03 121.98 119.68 Z M 122.64 120.46 L 123.29 121.22 C 123.86 121.87 124.84 121.94 125.50 121.38 C 126.15 120.82 126.22 119.83 125.66 119.18 L 125.00 118.42 C 124.44 117.77 123.45 117.70 122.80 118.26 C 122.15 118.82 122.07 119.81 122.64 120.46 Z M 123.30 121.23 L 123.96 121.97 C 124.53 122.62 125.51 122.68 126.16 122.11 C 126.81 121.55 126.87 120.56 126.30 119.91 L 125.65 119.17 C 125.08 118.52 124.09 118.46 123.44 119.03 C 122.80 119.60 122.73 120.58 123.30 121.23 Z M 123.97 121.99 L 124.65 122.74 C 125.22 123.38 126.21 123.44 126.85 122.86 C 127.49 122.28 127.55 121.30 126.97 120.65 L 126.29 119.90 C 125.71 119.26 124.73 119.21 124.08 119.78 C 123.44 120.36 123.39 121.35 123.97 121.99 Z M 124.66 122.76 L 125.35 123.50 C 125.93 124.14 126.92 124.18 127.55 123.60 C 128.19 123.01 128.23 122.03 127.65 121.39 L 126.96 120.64 C 126.37 120.01 125.39 119.97 124.75 120.55 C 124.12 121.13 124.08 122.12 124.66 122.76 Z M 125.36 123.52 L 126.04 124.25 C 126.63 124.87 127.62 124.91 128.25 124.32 C 128.88 123.73 128.91 122.74 128.32 122.11 L 127.64 121.38 C 127.05 120.75 126.06 120.72 125.43 121.31 C 124.80 121.90 124.77 122.89 125.36 123.52 Z M 126.05 124.25 L 126.73 124.97 C 127.33 125.60 128.31 125.62 128.94 125.03 C 129.56 124.43 129.59 123.44 128.99 122.82 L 128.31 122.10 C 127.72 121.48 126.73 121.45 126.11 122.05 C 125.48 122.64 125.46 123.63 126.05 124.25 Z M 126.74 124.98 L 127.42 125.69 C 128.02 126.31 129.01 126.33 129.63 125.73 C 130.25 125.13 130.27 124.14 129.67 123.52 L 128.99 122.81 C 128.39 122.19 127.40 122.17 126.78 122.77 C 126.16 123.37 126.14 124.35 126.74 124.98 Z M 127.42 125.69 L 128.11 126.40 C 128.70 127.02 129.69 127.03 130.31 126.44 C 130.93 125.84 130.95 124.85 130.35 124.23 L 129.67 123.52 C 129.07 122.90 128.08 122.88 127.46 123.48 C 126.84 124.08 126.82 125.07 127.42 125.69 Z M 128.11 126.40 L 128.80 127.11 C 129.40 127.73 130.39 127.75 131.01 127.15 C 131.62 126.55 131.64 125.56 131.04 124.94 L 130.35 124.23 C 129.75 123.61 128.76 123.59 128.14 124.19 C 127.52 124.79 127.51 125.78 128.11 126.40 Z M 128.80 127.11 L 129.49 127.83 C 130.09 128.45 131.08 128.47 131.70 127.87 C 132.32 127.27 132.34 126.28 131.74 125.66 L 131.04 124.94 C 130.44 124.32 129.45 124.31 128.83 124.91 C 128.21 125.50 128.20 126.49 128.80 127.11 Z M 129.49 127.83 L 130.19 128.55 C 130.79 129.17 131.78 129.18 132.40 128.58 C 133.02 127.98 133.03 126.99 132.43 126.38 L 131.73 125.66 C 131.13 125.04 130.15 125.02 129.53 125.62 C 128.91 126.22 128.89 127.21 129.49 127.83 Z M 130.19 128.55 L 130.89 129.27 C 131.49 129.89 132.48 129.90 133.10 129.30 C 133.72 128.70 133.73 127.71 133.13 127.09 L 132.43 126.37 C 131.83 125.76 130.84 125.74 130.22 126.34 C 129.60 126.95 129.59 127.93 130.19 128.55 Z M 130.89 129.27 L 131.59 129.99 C 132.20 130.61 133.19 130.62 133.80 130.01 C 134.42 129.41 134.43 128.42 133.83 127.81 L 133.13 127.09 C 132.52 126.47 131.54 126.46 130.92 127.06 C 130.30 127.67 130.29 128.66 130.89 129.27 Z M 131.60 129.99 L 132.30 130.71 C 132.91 131.32 133.89 131.33 134.51 130.73 C 135.12 130.12 135.13 129.14 134.53 128.52 L 133.83 127.80 C 133.22 127.19 132.23 127.18 131.62 127.78 C 131.00 128.39 130.99 129.38 131.60 129.99 Z M 132.30 130.71 L 133.01 131.43 C 133.62 132.04 134.61 132.05 135.22 131.45 C 135.84 130.84 135.84 129.85 135.24 129.24 L 134.53 128.52 C 133.92 127.90 132.93 127.90 132.32 128.50 C 131.71 129.11 131.70 130.10 132.30 130.71 Z M 133.02 131.43 L 133.72 132.15 C 134.33 132.76 135.32 132.77 135.93 132.16 C 136.55 131.55 136.55 130.56 135.94 129.95 L 135.24 129.24 C 134.63 128.62 133.64 128.62 133.03 129.23 C 132.41 129.83 132.41 130.82 133.02 131.43 Z M 133.73 132.15 L 134.43 132.86 C 135.04 133.47 136.03 133.48 136.64 132.87 C 137.25 132.26 137.25 131.27 136.65 130.66 L 135.94 129.95 C 135.34 129.34 134.35 129.33 133.74 129.94 C 133.12 130.55 133.12 131.54 133.73 132.15 Z M 134.43 132.86 L 135.13 133.57 C 135.74 134.18 136.72 134.18 137.34 133.58 C 137.95 132.97 137.96 131.98 137.35 131.37 L 136.65 130.66 C 136.04 130.05 135.05 130.05 134.44 130.65 C 133.83 131.26 133.82 132.25 134.43 132.86 Z M 135.13 133.56 L 135.82 134.27 C 136.43 134.88 137.42 134.89 138.03 134.28 C 138.64 133.68 138.65 132.69 138.04 132.07 L 137.35 131.37 C 136.74 130.76 135.76 130.75 135.14 131.36 C 134.53 131.96 134.52 132.95 135.13 133.56 Z M 135.82 134.26 L 136.53 134.99 C 137.13 135.61 138.12 135.61 138.74 135.01 C 139.35 134.41 139.36 133.42 138.76 132.80 L 138.05 132.08 C 137.44 131.46 136.45 131.45 135.84 132.06 C 135.22 132.66 135.21 133.65 135.82 134.26 Z M 136.53 134.99 L 137.24 135.72 C 137.84 136.34 138.83 136.35 139.45 135.75 C 140.07 135.14 140.08 134.15 139.48 133.54 L 138.76 132.81 C 138.16 132.19 137.17 132.18 136.55 132.78 C 135.94 133.38 135.93 134.37 136.53 134.99 Z M 137.24 135.72 L 137.94 136.44 C 138.54 137.06 139.53 137.07 140.15 136.47 C 140.77 135.87 140.78 134.88 140.18 134.26 L 139.48 133.54 C 138.88 132.92 137.89 132.91 137.27 133.51 C 136.65 134.11 136.64 135.10 137.24 135.72 Z M 137.94 136.44 L 138.63 137.15 C 139.23 137.77 140.22 137.79 140.84 137.19 C 141.46 136.59 141.47 135.60 140.87 134.98 L 140.18 134.27 C 139.58 133.65 138.60 133.63 137.98 134.23 C 137.36 134.83 137.34 135.82 137.94 136.44 Z M 138.63 137.15 L 139.31 137.85 C 139.91 138.47 140.89 138.49 141.51 137.89 C 142.13 137.29 142.15 136.30 141.55 135.68 L 140.88 134.98 C 140.28 134.36 139.29 134.34 138.67 134.94 C 138.05 135.54 138.03 136.53 138.63 137.15 Z M 139.31 137.85 L 139.99 138.56 C 140.59 139.18 141.58 139.20 142.20 138.60 C 142.82 138.01 142.84 137.02 142.24 136.40 L 141.55 135.69 C 140.96 135.06 139.97 135.05 139.35 135.64 C 138.73 136.24 138.71 137.23 139.31 137.85 Z M 139.99 138.56 L 140.69 139.29 C 141.29 139.91 142.28 139.93 142.90 139.34 C 143.52 138.74 143.54 137.75 142.94 137.13 L 142.24 136.40 C 141.64 135.78 140.66 135.76 140.03 136.35 C 139.41 136.95 139.39 137.94 139.99 138.56 Z M 140.69 139.29 L 141.37 140.01 C 141.97 140.64 142.96 140.66 143.58 140.07 C 144.21 139.47 144.23 138.48 143.64 137.86 L 142.95 137.13 C 142.35 136.51 141.37 136.49 140.74 137.08 C 140.12 137.67 140.09 138.66 140.69 139.29 Z M 141.37 140.00 L 142.04 140.72 C 142.63 141.35 143.62 141.39 144.25 140.80 C 144.88 140.21 144.91 139.22 144.32 138.59 L 143.65 137.87 C 143.06 137.24 142.07 137.21 141.44 137.79 C 140.81 138.38 140.78 139.37 141.37 140.00 Z M 142.03 140.71 L 142.70 141.44 C 143.28 142.08 144.27 142.12 144.91 141.54 C 145.54 140.96 145.58 139.97 145.00 139.33 L 144.33 138.60 C 143.75 137.97 142.76 137.92 142.13 138.51 C 141.49 139.09 141.45 140.08 142.03 140.71 Z M 142.69 141.43 L 143.36 142.19 C 143.94 142.83 144.92 142.89 145.57 142.31 C 146.21 141.74 146.27 140.75 145.69 140.11 L 145.02 139.35 C 144.44 138.71 143.46 138.65 142.81 139.22 C 142.17 139.80 142.11 140.78 142.69 141.43 Z M 143.35 142.17 L 144.03 142.96 C 144.60 143.61 145.58 143.68 146.23 143.12 C 146.89 142.56 146.96 141.57 146.39 140.92 L 145.71 140.13 C 145.15 139.48 144.16 139.40 143.51 139.97 C 142.86 140.53 142.78 141.52 143.35 142.17 Z M 144.02 142.94 L 144.68 143.73 C 145.24 144.39 146.22 144.47 146.88 143.92 C 147.54 143.36 147.62 142.38 147.07 141.72 L 146.41 140.93 C 145.85 140.27 144.86 140.19 144.21 140.74 C 143.55 141.30 143.46 142.29 144.02 142.94 Z M 144.67 143.72 L 145.30 144.48 C 145.85 145.15 146.83 145.24 147.50 144.69 C 148.16 144.14 148.26 143.16 147.71 142.49 L 147.08 141.73 C 146.53 141.07 145.55 140.97 144.88 141.52 C 144.22 142.07 144.12 143.05 144.67 143.72 Z M 145.29 144.47 L 145.88 145.20 C 146.42 145.87 147.40 145.97 148.07 145.43 C 148.74 144.89 148.85 143.91 148.31 143.24 L 147.72 142.51 C 147.18 141.84 146.19 141.73 145.52 142.27 C 144.85 142.81 144.75 143.80 145.29 144.47 Z M 145.87 145.18 L 146.49 145.97 C 147.02 146.65 148.00 146.76 148.68 146.23 C 149.36 145.70 149.47 144.71 148.94 144.04 L 148.32 143.25 C 147.78 142.57 146.80 142.46 146.13 142.99 C 145.45 143.52 145.33 144.50 145.87 145.18 Z M 146.47 145.94 L 147.05 146.72 C 147.57 147.41 148.55 147.55 149.24 147.03 C 149.93 146.51 150.06 145.53 149.54 144.84 L 148.96 144.06 C 148.44 143.37 147.46 143.24 146.77 143.76 C 146.08 144.28 145.95 145.26 146.47 145.94 Z M 147.02 146.68 L 147.58 147.47 C 148.08 148.18 149.06 148.34 149.76 147.85 C 150.46 147.35 150.63 146.37 150.13 145.67 L 149.57 144.88 C 149.07 144.17 148.10 144.01 147.40 144.51 C 146.69 145.00 146.53 145.98 147.02 146.68 Z M 147.55 147.43 L 148.12 148.29 C 148.59 149.01 149.56 149.21 150.28 148.73 C 151.00 148.26 151.20 147.29 150.73 146.57 L 150.16 145.71 C 149.69 144.99 148.72 144.79 148.00 145.27 C 147.28 145.74 147.08 146.71 147.55 147.43 Z M 148.09 148.25 L 148.56 149.01 C 149.01 149.74 149.97 149.97 150.71 149.52 C 151.44 149.07 151.67 148.10 151.22 147.37 L 150.75 146.61 C 150.30 145.88 149.34 145.65 148.60 146.10 C 147.87 146.55 147.64 147.51 148.09 148.25 Z M 148.54 148.97 L 149.01 149.78 C 149.45 150.53 150.40 150.78 151.15 150.35 C 151.89 149.91 152.14 148.96 151.71 148.21 L 151.24 147.40 C 150.81 146.66 149.85 146.41 149.10 146.84 C 148.36 147.27 148.11 148.23 148.54 148.97 Z M 148.99 149.75 L 149.48 150.63 C 149.89 151.38 150.84 151.66 151.60 151.24 C 152.35 150.82 152.63 149.87 152.21 149.12 L 151.73 148.24 C 151.31 147.49 150.36 147.22 149.61 147.63 C 148.85 148.05 148.58 149.00 148.99 149.75 Z M 149.46 150.60 L 149.95 151.53 C 150.35 152.30 151.29 152.59 152.05 152.19 C 152.82 151.80 153.12 150.85 152.72 150.09 L 152.23 149.15 C 151.83 148.39 150.89 148.09 150.12 148.49 C 149.36 148.89 149.06 149.83 149.46 150.60 Z M 149.93 151.50 L 150.42 152.49 C 150.80 153.27 151.74 153.58 152.51 153.20 C 153.28 152.82 153.60 151.89 153.22 151.11 L 152.73 150.12 C 152.35 149.35 151.42 149.03 150.64 149.41 C 149.87 149.79 149.55 150.73 149.93 151.50 Z M 150.41 152.46 L 150.94 153.60 C 151.30 154.38 152.23 154.72 153.01 154.35 C 153.79 153.99 154.13 153.06 153.77 152.28 L 153.24 151.14 C 152.87 150.36 151.94 150.02 151.16 150.39 C 150.38 150.75 150.04 151.68 150.41 152.46 Z M 150.94 153.61 L 151.47 154.71 C 151.84 155.49 152.77 155.82 153.55 155.44 C 154.33 155.07 154.66 154.14 154.29 153.36 L 153.76 152.26 C 153.39 151.49 152.46 151.16 151.68 151.53 C 150.90 151.90 150.57 152.83 150.94 153.61 Z M 151.51 154.79 L 152.02 155.70 C 152.43 156.46 153.38 156.73 154.14 156.31 C 154.89 155.89 155.17 154.94 154.75 154.19 L 154.24 153.28 C 153.82 152.52 152.87 152.25 152.12 152.67 C 151.37 153.09 151.09 154.04 151.51 154.79 Z M 152.17 155.93 L 152.65 156.52 C 153.19 157.19 154.17 157.30 154.84 156.75 C 155.51 156.21 155.62 155.23 155.07 154.56 L 154.60 153.97 C 154.05 153.30 153.07 153.19 152.40 153.73 C 151.73 154.27 151.63 155.26 152.17 155.93 Z M 153.44 157.04 L 153.91 157.17 C 154.74 157.41 155.60 156.93 155.83 156.10 C 156.07 155.27 155.59 154.40 154.76 154.17 L 154.28 154.04 C 153.45 153.80 152.59 154.29 152.36 155.12 C 152.12 155.95 152.61 156.81 153.44 157.04 Z M 155.44 156.77 L 155.92 156.29 C 156.52 155.68 156.52 154.69 155.90 154.08 C 155.29 153.48 154.30 153.48 153.69 154.10 L 153.22 154.58 C 152.61 155.19 152.62 156.18 153.23 156.78 C 153.85 157.39 154.84 157.38 155.44 156.77 Z M 156.23 155.83 L 156.65 154.89 C 157.00 154.10 156.64 153.18 155.85 152.83 C 155.06 152.48 154.14 152.83 153.79 153.62 L 153.38 154.56 C 153.03 155.35 153.38 156.27 154.17 156.62 C 154.96 156.97 155.88 156.61 156.23 155.83 Z M 156.71 154.71 L 157.07 153.53 C 157.32 152.71 156.85 151.84 156.03 151.59 C 155.20 151.34 154.33 151.80 154.08 152.63 L 153.73 153.80 C 153.48 154.63 153.94 155.50 154.77 155.75 C 155.59 156.00 156.46 155.53 156.71 154.71 Z M 157.09 153.46 L 157.37 152.33 C 157.58 151.50 157.07 150.65 156.23 150.44 C 155.39 150.23 154.55 150.74 154.34 151.58 L 154.06 152.70 C 153.85 153.54 154.36 154.39 155.20 154.59 C 156.04 154.80 156.88 154.29 157.09 153.46 Z M 157.38 152.29 L 157.60 151.30 C 157.78 150.46 157.25 149.63 156.41 149.44 C 155.57 149.25 154.74 149.79 154.55 150.63 L 154.33 151.62 C 154.14 152.46 154.68 153.30 155.52 153.48 C 156.36 153.67 157.19 153.14 157.38 152.29 Z M 157.60 151.27 L 157.80 150.31 C 157.97 149.47 157.42 148.65 156.58 148.47 C 155.73 148.30 154.91 148.85 154.74 149.69 L 154.54 150.65 C 154.37 151.50 154.92 152.32 155.76 152.49 C 156.61 152.67 157.43 152.12 157.60 151.27 Z M 157.80 150.30 L 157.99 149.35 C 158.15 148.50 157.60 147.68 156.75 147.52 C 155.91 147.35 155.09 147.90 154.92 148.75 L 154.74 149.71 C 154.57 150.55 155.12 151.37 155.97 151.54 C 156.82 151.70 157.64 151.15 157.80 150.30 Z M 157.99 149.35 L 158.18 148.39 C 158.34 147.54 157.79 146.72 156.95 146.56 C 156.10 146.39 155.28 146.94 155.11 147.79 L 154.92 148.75 C 154.76 149.59 155.31 150.41 156.15 150.58 C 157.00 150.75 157.82 150.20 157.99 149.35 Z M 158.17 148.40 L 158.36 147.49 C 158.53 146.65 157.99 145.82 157.15 145.65 C 156.30 145.47 155.48 146.02 155.30 146.86 L 155.11 147.77 C 154.94 148.62 155.48 149.44 156.33 149.62 C 157.17 149.79 158.00 149.25 158.17 148.40 Z M 158.36 147.51 L 158.56 146.56 C 158.74 145.71 158.21 144.88 157.37 144.70 C 156.52 144.52 155.69 145.05 155.51 145.90 L 155.31 146.85 C 155.12 147.69 155.66 148.52 156.50 148.70 C 157.34 148.88 158.18 148.35 158.36 147.51 Z M 158.56 146.57 L 158.78 145.58 C 158.97 144.74 158.44 143.91 157.60 143.72 C 156.76 143.53 155.92 144.06 155.74 144.90 L 155.51 145.88 C 155.32 146.73 155.85 147.56 156.69 147.75 C 157.53 147.94 158.37 147.41 158.56 146.57 Z M 158.78 145.60 L 159.02 144.58 C 159.21 143.74 158.69 142.90 157.85 142.70 C 157.01 142.50 156.17 143.03 155.98 143.87 L 155.74 144.89 C 155.54 145.73 156.06 146.57 156.90 146.76 C 157.74 146.96 158.58 146.44 158.78 145.60 Z M 159.01 144.59 L 159.26 143.58 C 159.46 142.74 158.95 141.90 158.11 141.70 C 157.27 141.49 156.43 142.01 156.22 142.85 L 155.98 143.85 C 155.78 144.69 156.29 145.54 157.13 145.74 C 157.97 145.94 158.81 145.43 159.01 144.59 Z M 159.26 143.59 L 159.48 142.67 C 159.69 141.83 159.18 140.99 158.35 140.78 C 157.51 140.57 156.66 141.08 156.45 141.92 L 156.23 142.84 C 156.02 143.67 156.53 144.52 157.36 144.73 C 158.20 144.94 159.05 144.43 159.26 143.59 Z M 159.48 142.68 L 159.72 141.74 C 159.94 140.90 159.43 140.05 158.60 139.84 C 157.76 139.62 156.91 140.13 156.70 140.96 L 156.46 141.91 C 156.24 142.74 156.75 143.59 157.58 143.81 C 158.42 144.02 159.27 143.51 159.48 142.68 Z M 159.72 141.74 L 159.97 140.78 C 160.19 139.94 159.69 139.09 158.86 138.87 C 158.03 138.65 157.17 139.15 156.95 139.99 L 156.70 140.95 C 156.48 141.79 156.98 142.64 157.81 142.86 C 158.65 143.08 159.50 142.58 159.72 141.74 Z M 159.97 140.79 L 160.24 139.80 C 160.46 138.97 159.97 138.11 159.13 137.89 C 158.30 137.66 157.45 138.16 157.22 138.99 L 156.96 139.98 C 156.73 140.81 157.23 141.67 158.06 141.89 C 158.89 142.11 159.75 141.62 159.97 140.79 Z M 160.23 139.81 L 160.51 138.80 C 160.74 137.97 160.25 137.11 159.42 136.88 C 158.59 136.65 157.73 137.14 157.50 137.97 L 157.22 138.98 C 157.00 139.81 157.48 140.67 158.32 140.90 C 159.15 141.13 160.01 140.64 160.23 139.81 Z M 160.51 138.81 L 160.78 137.84 C 161.01 137.01 160.53 136.15 159.70 135.92 C 158.87 135.69 158.01 136.17 157.77 137.00 L 157.50 137.96 C 157.27 138.79 157.75 139.65 158.58 139.89 C 159.41 140.12 160.28 139.64 160.51 138.81 Z M 160.78 137.85 L 161.04 136.93 C 161.28 136.10 160.80 135.23 159.97 135.00 C 159.14 134.76 158.28 135.24 158.04 136.07 L 157.78 136.99 C 157.54 137.82 158.02 138.69 158.85 138.92 C 159.68 139.16 160.54 138.68 160.78 137.85 Z M 161.04 136.93 L 161.31 135.99 C 161.55 135.16 161.08 134.30 160.25 134.06 C 159.42 133.82 158.56 134.29 158.32 135.12 L 158.04 136.06 C 157.80 136.89 158.28 137.76 159.11 138.00 C 159.94 138.24 160.80 137.76 161.04 136.93 Z M 161.31 135.99 L 161.59 135.04 C 161.83 134.21 161.36 133.34 160.53 133.10 C 159.70 132.86 158.84 133.33 158.60 134.16 L 158.32 135.12 C 158.07 135.94 158.55 136.81 159.38 137.05 C 160.20 137.30 161.07 136.82 161.31 135.99 Z M 161.59 135.04 L 161.88 134.06 C 162.12 133.24 161.65 132.37 160.82 132.13 C 159.99 131.88 159.12 132.36 158.88 133.18 L 158.60 134.16 C 158.35 134.99 158.83 135.85 159.65 136.10 C 160.48 136.34 161.35 135.86 161.59 135.04 Z M 161.88 134.06 L 162.17 133.08 C 162.41 132.25 161.94 131.38 161.11 131.14 C 160.28 130.89 159.42 131.37 159.17 132.20 L 158.88 133.18 C 158.64 134.01 159.11 134.88 159.94 135.12 C 160.77 135.37 161.63 134.89 161.88 134.06 Z M 162.17 133.08 L 162.46 132.08 C 162.70 131.25 162.23 130.38 161.40 130.14 C 160.58 129.90 159.71 130.37 159.47 131.20 L 159.17 132.20 C 158.93 133.02 159.40 133.89 160.23 134.13 C 161.06 134.38 161.93 133.90 162.17 133.08 Z M 162.46 132.08 L 162.73 131.16 C 162.97 130.33 162.50 129.47 161.67 129.22 C 160.84 128.98 159.97 129.46 159.73 130.28 L 159.46 131.20 C 159.22 132.03 159.70 132.89 160.53 133.14 C 161.35 133.38 162.22 132.90 162.46 132.08 Z M 162.73 131.16 L 163.00 130.23 C 163.24 129.40 162.77 128.54 161.94 128.29 C 161.11 128.05 160.25 128.53 160.00 129.35 L 159.73 130.28 C 159.49 131.11 159.97 131.98 160.79 132.22 C 161.62 132.46 162.49 131.99 162.73 131.16 Z M 163.00 130.23 L 163.28 129.29 C 163.52 128.46 163.05 127.60 162.22 127.35 C 161.39 127.11 160.53 127.58 160.28 128.41 L 160.01 129.35 C 159.76 130.18 160.24 131.05 161.06 131.29 C 161.89 131.53 162.76 131.06 163.00 130.23 Z M 163.28 129.30 L 163.56 128.34 C 163.81 127.51 163.34 126.64 162.51 126.40 C 161.68 126.15 160.81 126.62 160.57 127.45 L 160.28 128.41 C 160.04 129.23 160.51 130.10 161.34 130.35 C 162.16 130.59 163.03 130.12 163.28 129.30 Z M 163.56 128.34 L 163.85 127.37 C 164.10 126.55 163.63 125.68 162.81 125.43 C 161.98 125.18 161.11 125.65 160.86 126.47 L 160.57 127.44 C 160.32 128.27 160.79 129.14 161.61 129.39 C 162.44 129.64 163.31 129.17 163.56 128.34 Z M 163.85 127.38 L 164.15 126.40 C 164.40 125.57 163.94 124.70 163.12 124.45 C 162.29 124.19 161.42 124.66 161.17 125.48 L 160.86 126.47 C 160.61 127.29 161.07 128.16 161.90 128.42 C 162.72 128.67 163.60 128.21 163.85 127.38 Z M 164.15 126.41 L 164.46 125.41 C 164.72 124.58 164.26 123.71 163.44 123.45 C 162.62 123.19 161.74 123.65 161.48 124.47 L 161.17 125.47 C 160.91 126.29 161.37 127.17 162.19 127.43 C 163.02 127.69 163.89 127.23 164.15 126.41 Z M 164.46 125.42 L 164.77 124.46 C 165.03 123.64 164.58 122.76 163.76 122.50 C 162.93 122.23 162.06 122.69 161.79 123.51 L 161.49 124.46 C 161.22 125.28 161.67 126.16 162.50 126.43 C 163.32 126.69 164.20 126.24 164.46 125.42 Z M 164.76 124.47 L 165.07 123.51 C 165.34 122.69 164.90 121.81 164.08 121.54 C 163.26 121.28 162.38 121.72 162.11 122.54 L 161.79 123.50 C 161.53 124.32 161.97 125.20 162.79 125.47 C 163.61 125.73 164.49 125.29 164.76 124.47 Z M 165.07 123.52 L 165.39 122.56 C 165.66 121.74 165.22 120.86 164.40 120.59 C 163.59 120.32 162.70 120.76 162.43 121.58 L 162.11 122.54 C 161.84 123.35 162.28 124.24 163.10 124.51 C 163.92 124.78 164.80 124.34 165.07 123.52 Z M 165.39 122.57 L 165.71 121.61 C 165.99 120.79 165.55 119.91 164.74 119.63 C 163.92 119.35 163.03 119.79 162.76 120.61 L 162.43 121.57 C 162.16 122.39 162.59 123.27 163.41 123.55 C 164.23 123.82 165.11 123.39 165.39 122.57 Z M 165.71 121.62 L 166.04 120.66 C 166.32 119.85 165.89 118.96 165.07 118.68 C 164.26 118.40 163.37 118.83 163.09 119.65 L 162.76 120.60 C 162.48 121.42 162.91 122.31 163.73 122.59 C 164.54 122.87 165.43 122.43 165.71 121.62 Z M 166.04 120.67 L 166.37 119.72 C 166.65 118.91 166.22 118.02 165.41 117.73 C 164.59 117.45 163.70 117.88 163.42 118.69 L 163.09 119.64 C 162.81 120.46 163.24 121.35 164.05 121.63 C 164.86 121.91 165.75 121.48 166.04 120.67 Z M 166.37 119.73 L 166.69 118.79 C 166.98 117.98 166.55 117.09 165.74 116.80 C 164.93 116.52 164.04 116.94 163.75 117.76 L 163.42 118.69 C 163.13 119.50 163.56 120.39 164.37 120.68 C 165.19 120.97 166.08 120.54 166.37 119.73 Z M 166.69 118.80 L 167.02 117.88 C 167.31 117.06 166.89 116.17 166.08 115.88 C 165.26 115.59 164.37 116.01 164.08 116.83 L 163.75 117.75 C 163.46 118.56 163.89 119.46 164.70 119.75 C 165.51 120.03 166.40 119.61 166.69 118.80 Z M 167.02 117.88 L 167.38 116.90 C 167.67 116.08 167.25 115.19 166.44 114.90 C 165.63 114.60 164.73 115.02 164.44 115.84 L 164.08 116.82 C 163.79 117.63 164.21 118.53 165.02 118.82 C 165.83 119.11 166.73 118.69 167.02 117.88 Z M 167.37 116.90 L 167.73 115.94 C 168.02 115.13 167.61 114.23 166.80 113.94 C 165.99 113.64 165.09 114.06 164.79 114.87 L 164.44 115.83 C 164.15 116.64 164.56 117.54 165.37 117.83 C 166.18 118.13 167.08 117.71 167.37 116.90 Z M 167.72 115.95 L 168.07 115.01 C 168.38 114.20 167.96 113.30 167.16 113.00 C 166.35 112.70 165.45 113.11 165.15 113.92 L 164.80 114.86 C 164.50 115.67 164.91 116.57 165.72 116.87 C 166.52 117.17 167.42 116.76 167.72 115.95 Z M 168.07 115.01 L 168.42 114.09 C 168.73 113.28 168.32 112.38 167.52 112.07 C 166.71 111.77 165.81 112.17 165.50 112.98 L 165.15 113.91 C 164.85 114.71 165.25 115.61 166.06 115.92 C 166.86 116.23 167.77 115.82 168.07 115.01 Z M 168.42 114.10 L 168.77 113.18 C 169.08 112.38 168.69 111.48 167.88 111.16 C 167.08 110.85 166.17 111.25 165.86 112.06 L 165.51 112.97 C 165.20 113.77 165.60 114.68 166.40 114.99 C 167.20 115.30 168.11 114.90 168.42 114.10 Z M 168.77 113.20 L 169.13 112.29 C 169.45 111.49 169.05 110.58 168.25 110.26 C 167.45 109.95 166.54 110.34 166.22 111.14 L 165.87 112.04 C 165.55 112.85 165.94 113.75 166.74 114.07 C 167.54 114.39 168.45 114.00 168.77 113.20 Z M 169.12 112.30 L 169.49 111.40 C 169.81 110.60 169.43 109.69 168.63 109.37 C 167.83 109.04 166.92 109.43 166.60 110.23 L 166.23 111.13 C 165.91 111.93 166.29 112.84 167.09 113.16 C 167.89 113.49 168.80 113.10 169.12 112.30 Z M 169.48 111.42 L 169.87 110.49 C 170.20 109.70 169.82 108.78 169.03 108.45 C 168.23 108.12 167.32 108.50 166.98 109.29 L 166.60 110.22 C 166.27 111.01 166.65 111.93 167.44 112.26 C 168.24 112.59 169.15 112.21 169.48 111.42 Z M 169.86 110.51 L 170.25 109.59 C 170.59 108.79 170.22 107.88 169.43 107.54 C 168.64 107.20 167.72 107.57 167.38 108.36 L 166.99 109.28 C 166.65 110.07 167.02 110.99 167.81 111.33 C 168.61 111.67 169.52 111.30 169.86 110.51 Z M 170.25 109.60 L 170.65 108.68 C 170.99 107.89 170.63 106.97 169.84 106.63 C 169.05 106.28 168.13 106.64 167.79 107.43 L 167.39 108.35 C 167.04 109.14 167.40 110.06 168.19 110.40 C 168.98 110.75 169.90 110.39 170.25 109.60 Z M 170.64 108.69 L 171.05 107.78 C 171.40 106.99 171.05 106.07 170.26 105.72 C 169.47 105.37 168.55 105.72 168.20 106.51 L 167.79 107.42 C 167.44 108.21 167.79 109.13 168.58 109.48 C 169.37 109.83 170.29 109.48 170.64 108.69 Z M 171.05 107.79 L 171.46 106.88 C 171.82 106.09 171.47 105.17 170.68 104.81 C 169.90 104.45 168.97 104.80 168.62 105.59 L 168.20 106.50 C 167.85 107.28 168.19 108.21 168.98 108.56 C 169.76 108.92 170.69 108.57 171.05 107.79 Z M 171.45 106.89 L 171.87 105.98 C 172.24 105.20 171.90 104.27 171.11 103.91 C 170.33 103.55 169.40 103.89 169.04 104.67 L 168.62 105.58 C 168.26 106.36 168.60 107.29 169.38 107.65 C 170.16 108.01 171.09 107.67 171.45 106.89 Z M 171.87 105.99 L 172.30 105.08 C 172.66 104.30 172.33 103.37 171.55 103.01 C 170.77 102.64 169.84 102.97 169.47 103.75 L 169.05 104.66 C 168.68 105.44 169.01 106.37 169.79 106.74 C 170.57 107.10 171.50 106.77 171.87 105.99 Z M 172.29 105.09 L 172.73 104.19 C 173.10 103.41 172.77 102.48 171.99 102.11 C 171.21 101.73 170.28 102.06 169.91 102.84 L 169.48 103.74 C 169.10 104.52 169.43 105.46 170.21 105.83 C 170.99 106.20 171.92 105.87 172.29 105.09 Z M 172.72 104.20 L 173.16 103.30 C 173.54 102.52 173.21 101.59 172.44 101.21 C 171.66 100.83 170.73 101.16 170.35 101.93 L 169.91 102.83 C 169.53 103.61 169.86 104.54 170.63 104.92 C 171.41 105.30 172.35 104.98 172.72 104.20 Z M 173.16 103.31 L 173.60 102.41 C 173.98 101.63 173.66 100.70 172.89 100.31 C 172.11 99.93 171.18 100.25 170.79 101.03 L 170.35 101.92 C 169.97 102.70 170.29 103.64 171.06 104.02 C 171.84 104.40 172.78 104.08 173.16 103.31 Z M 173.60 102.42 L 174.04 101.52 C 174.43 100.75 174.12 99.81 173.34 99.42 C 172.57 99.04 171.63 99.35 171.24 100.12 L 170.80 101.02 C 170.41 101.79 170.72 102.73 171.50 103.12 C 172.27 103.50 173.21 103.19 173.60 102.42 Z M 174.04 101.53 L 174.49 100.64 C 174.88 99.87 174.57 98.92 173.80 98.53 C 173.03 98.14 172.09 98.45 171.70 99.22 L 171.25 100.12 C 170.86 100.89 171.17 101.83 171.94 102.22 C 172.71 102.61 173.65 102.30 174.04 101.53 Z M 174.49 100.64 L 174.94 99.75 C 175.34 98.98 175.03 98.04 174.26 97.65 C 173.49 97.25 172.55 97.56 172.15 98.33 L 171.70 99.22 C 171.31 99.99 171.61 100.93 172.38 101.33 C 173.15 101.72 174.10 101.41 174.49 100.64 Z M 174.94 99.76 L 175.40 98.87 C 175.80 98.10 175.50 97.15 174.73 96.76 C 173.96 96.36 173.01 96.66 172.62 97.43 L 172.15 98.32 C 171.76 99.09 172.06 100.04 172.83 100.44 C 173.60 100.83 174.54 100.53 174.94 99.76 Z M 175.40 98.87 L 175.87 97.98 C 176.27 97.21 175.97 96.26 175.20 95.86 C 174.43 95.46 173.49 95.76 173.09 96.53 L 172.62 97.42 C 172.22 98.19 172.52 99.14 173.28 99.54 C 174.05 99.94 175.00 99.64 175.40 98.87 Z M 175.87 97.98 L 176.34 97.09 C 176.74 96.32 176.45 95.37 175.68 94.97 C 174.91 94.56 173.96 94.86 173.56 95.63 L 173.09 96.52 C 172.68 97.29 172.98 98.24 173.74 98.64 C 174.51 99.05 175.46 98.75 175.87 97.98 Z M 176.33 97.10 L 176.81 96.21 C 177.21 95.44 176.92 94.49 176.16 94.08 C 175.39 93.68 174.44 93.97 174.03 94.73 L 173.56 95.62 C 173.15 96.39 173.44 97.34 174.21 97.75 C 174.97 98.15 175.93 97.86 176.33 97.10 Z M 176.80 96.22 L 177.28 95.34 C 177.69 94.57 177.40 93.62 176.64 93.21 C 175.87 92.79 174.92 93.08 174.51 93.85 L 174.03 94.72 C 173.62 95.49 173.91 96.44 174.67 96.86 C 175.44 97.27 176.39 96.98 176.80 96.22 Z M 177.28 95.35 L 177.75 94.47 C 178.17 93.71 177.89 92.75 177.12 92.34 C 176.36 91.92 175.40 92.20 174.98 92.97 L 174.51 93.84 C 174.09 94.60 174.37 95.56 175.14 95.97 C 175.90 96.39 176.86 96.11 177.28 95.35 Z M 177.75 94.48 L 178.22 93.62 C 178.64 92.86 178.37 91.90 177.60 91.48 C 176.84 91.06 175.88 91.34 175.46 92.10 L 174.99 92.96 C 174.57 93.72 174.84 94.68 175.61 95.10 C 176.37 95.52 177.33 95.25 177.75 94.48 Z M 178.22 93.63 L 178.71 92.76 C 179.13 92.00 178.86 91.04 178.10 90.61 C 177.34 90.19 176.38 90.46 175.95 91.22 L 175.46 92.09 C 175.04 92.85 175.31 93.81 176.07 94.24 C 176.83 94.66 177.79 94.39 178.22 93.63 Z M 178.71 92.77 L 179.20 91.90 C 179.63 91.14 179.36 90.17 178.60 89.74 C 177.84 89.31 176.88 89.58 176.45 90.34 L 175.95 91.21 C 175.52 91.97 175.79 92.94 176.55 93.37 C 177.31 93.80 178.28 93.53 178.71 92.77 Z M 179.20 91.91 L 179.69 91.04 C 180.13 90.28 179.86 89.31 179.10 88.88 C 178.34 88.44 177.37 88.71 176.94 89.47 L 176.45 90.33 C 176.01 91.09 176.28 92.06 177.04 92.50 C 177.80 92.93 178.77 92.67 179.20 91.91 Z M 179.70 91.05 L 180.19 90.19 C 180.63 89.42 180.36 88.45 179.60 88.02 C 178.84 87.58 177.87 87.84 177.43 88.60 L 176.94 89.46 C 176.50 90.23 176.76 91.20 177.52 91.63 C 178.29 92.07 179.26 91.81 179.70 91.05 Z M 180.19 90.19 L 180.69 89.32 C 181.13 88.56 180.87 87.59 180.10 87.15 C 179.34 86.71 178.36 86.97 177.93 87.74 L 177.43 88.60 C 176.99 89.36 177.25 90.34 178.02 90.78 C 178.78 91.21 179.75 90.95 180.19 90.19 Z M 180.69 89.33 L 181.19 88.46 C 181.63 87.69 181.37 86.71 180.60 86.27 C 179.84 85.84 178.86 86.10 178.42 86.87 L 177.92 87.74 C 177.48 88.50 177.75 89.48 178.51 89.92 C 179.28 90.35 180.25 90.09 180.69 89.33 Z M 181.20 88.45 L 181.70 87.57 C 182.14 86.80 181.87 85.82 181.10 85.39 C 180.34 84.95 179.36 85.22 178.92 85.98 L 178.42 86.87 C 177.98 87.64 178.25 88.61 179.01 89.05 C 179.78 89.49 180.76 89.22 181.20 88.45 Z M 181.71 87.57 L 182.22 86.66 C 182.65 85.89 182.38 84.91 181.61 84.48 C 180.84 84.04 179.86 84.31 179.43 85.08 L 178.92 85.99 C 178.48 86.76 178.75 87.74 179.52 88.17 C 180.29 88.61 181.27 88.34 181.71 87.57 Z M 182.22 86.66 L 182.73 85.76 C 183.17 84.99 182.89 84.01 182.12 83.57 C 181.35 83.13 180.37 83.41 179.93 84.18 L 179.42 85.08 C 178.99 85.86 179.26 86.84 180.03 87.27 C 180.81 87.71 181.79 87.43 182.22 86.66 Z M 182.73 85.76 L 183.24 84.87 C 183.67 84.09 183.40 83.11 182.63 82.67 C 181.85 82.24 180.87 82.51 180.44 83.29 L 179.93 84.18 C 179.50 84.95 179.77 85.93 180.54 86.37 C 181.32 86.81 182.30 86.53 182.73 85.76 Z M 183.24 84.87 L 183.73 83.99 C 184.17 83.22 183.90 82.24 183.12 81.80 C 182.35 81.36 181.37 81.64 180.93 82.41 L 180.44 83.28 C 180.00 84.06 180.27 85.04 181.04 85.48 C 181.82 85.91 182.80 85.64 183.24 84.87 Z M 183.73 84.00 L 184.21 83.16 C 184.65 82.38 184.38 81.40 183.61 80.96 C 182.84 80.52 181.85 80.79 181.41 81.56 L 180.93 82.40 C 180.49 83.18 180.76 84.16 181.53 84.60 C 182.31 85.04 183.29 84.77 183.73 84.00 Z M 184.21 83.17 L 184.67 82.36 C 185.12 81.59 184.85 80.60 184.08 80.16 C 183.31 79.72 182.32 79.98 181.87 80.75 L 181.41 81.55 C 180.97 82.33 181.23 83.31 182.01 83.76 C 182.78 84.20 183.77 83.94 184.21 83.17 Z M 184.67 82.38 L 185.23 81.41 C 185.69 80.64 185.43 79.65 184.66 79.20 C 183.89 78.74 182.90 79.00 182.44 79.77 L 181.88 80.74 C 181.42 81.51 181.68 82.50 182.45 82.95 C 183.22 83.41 184.22 83.15 184.67 82.38 Z M 185.23 81.43 L 185.78 80.52 C 186.24 79.75 185.99 78.76 185.22 78.29 C 184.45 77.83 183.46 78.08 182.99 78.85 L 182.45 79.76 C 181.98 80.52 182.23 81.52 183.00 81.98 C 183.77 82.45 184.77 82.20 185.23 81.43 Z M 185.77 80.54 L 186.29 79.71 C 186.77 78.94 186.53 77.94 185.76 77.46 C 185.00 76.99 183.99 77.22 183.52 77.99 L 183.00 78.83 C 182.52 79.59 182.76 80.60 183.53 81.07 C 184.29 81.55 185.30 81.31 185.77 80.54 Z M 186.28 79.73 L 186.78 78.95 C 187.27 78.19 187.05 77.18 186.29 76.69 C 185.53 76.20 184.51 76.42 184.03 77.18 L 183.53 77.96 C 183.04 78.73 183.26 79.74 184.02 80.23 C 184.78 80.71 185.80 80.49 186.28 79.73 Z M 186.77 78.98 L 187.28 78.22 C 187.78 77.47 187.57 76.44 186.82 75.94 C 186.06 75.44 185.04 75.65 184.54 76.40 L 184.03 77.16 C 183.53 77.91 183.74 78.93 184.50 79.44 C 185.25 79.94 186.27 79.73 186.77 78.98 Z M 187.26 78.25 L 187.85 77.40 C 188.37 76.65 188.18 75.62 187.43 75.11 C 186.68 74.59 185.66 74.78 185.14 75.52 L 184.55 76.38 C 184.03 77.13 184.22 78.15 184.97 78.67 C 185.72 79.18 186.74 79.00 187.26 78.25 Z M 187.83 77.42 L 188.41 76.60 C 188.94 75.86 188.77 74.83 188.03 74.31 C 187.29 73.78 186.26 73.95 185.74 74.69 L 185.15 75.50 C 184.63 76.24 184.80 77.27 185.54 77.80 C 186.28 78.33 187.30 78.16 187.83 77.42 Z M 188.40 76.62 L 188.98 75.82 C 189.52 75.09 189.36 74.06 188.62 73.53 C 187.89 72.99 186.86 73.15 186.33 73.88 L 185.75 74.68 C 185.21 75.41 185.37 76.44 186.11 76.97 C 186.84 77.51 187.87 77.35 188.40 76.62 Z M 188.98 75.83 L 189.43 75.21 C 189.97 74.48 189.82 73.45 189.09 72.91 C 188.36 72.37 187.33 72.53 186.79 73.26 L 186.33 73.88 C 185.79 74.61 185.95 75.64 186.68 76.18 C 187.41 76.72 188.44 76.56 188.98 75.83 Z"
      fill="black"
      fill-rule="nonzero" /></svg>